{
.appVersion = "922";
DisplayStrings = (
"OI/idotless n"
);
copyright = "Copyright (c) 2014, The Muli Project Authors (vern@newtypography.co.uk)";
customParameters = (
{
name = license;
value = "This Font Software is licensed under the SIL Open Font License, Version 1.1. This license is available with a FAQ at: http://scripts.sil.org/OFL";
},
{
name = licenseURL;
value = "http://scripts.sil.org/OFL";
},
{
name = fsType;
value = 0;
},
{
name = "Use Typo Metrics";
value = 1;
},
{
name = vendorID;
value = NeWT;
}
);
date = "2016-08-22 10:29:05 +0000";
designer = "Vernon Adams";
designerURL = newtypography.co.uk;
familyName = Muli;
featurePrefixes = (
{
automatic = 1;
code = "languagesystem DFLT dflt;\012languagesystem latn dflt;\012languagesystem latn CAT;\012languagesystem latn ROM;\012languagesystem latn MOL;\012languagesystem latn KAZ;\012languagesystem latn TAT;\012languagesystem latn TRK;\012languagesystem latn CRT;\012languagesystem latn AZE;\012";
name = Languagesystems;
}
);
features = (
{
automatic = 1;
code = "feature locl;\012feature sups;\012feature frac;\012feature ordn;\012";
name = aalt;
},
{
automatic = 1;
code = "script latn;\012language CAT;\012sub  l' periodcentered' l by ldot;\012sub  L' periodcentered' L by Ldot;\012language ROM;\012sub Scedilla by Scommaaccent;\012sub scedilla by scommaaccent;\012language MOL;\012sub Scedilla by Scommaaccent;\012sub scedilla by scommaaccent;\012language KAZ;\012sub i by i.loclTRK;\012language TAT;\012sub i by i.loclTRK;\012language TRK;\012sub i by i.loclTRK;\012sub i by i.loclTRK;\012language CRT;\012sub i by i.loclTRK;\012language AZE;\012sub i by i.loclTRK;\012";
name = locl;
},
{
automatic = 1;
code = "sub one by onesuperior;\012sub two by twosuperior;\012sub three by threesuperior;\012sub four by foursuperior;\012";
name = sups;
},
{
automatic = 1;
code = "sub one slash four by onequarter;\012sub one slash two by onehalf;\012sub three slash four by threequarters;\012";
name = frac;
},
{
automatic = 1;

glyphs = (
{
glyphname = A;
lastChange = "2016-08-22 09:31:58 +0000";
layers = (
{
layerId = "CAA31E91-2985-420A-82BA-6B4D8404D924";
paths = (
{
closed = 1;
nodes = (
"92 0 LINE",
"162 195 LINE",
"491 195 LINE",
"561 0 LINE",
"616 0 LINE",
"357 711 LINE",
"292 711 LINE",
"33 0 LINE"
);
},
{
closed = 1;
nodes = (
"326 667 LINE",
"478 231 LINE",
"175 231 LINE"
);
}
);
width = 649;
},
{
layerId = "5F288B98-6DDA-4BF8-A62B-164790BC7EB2";
paths = (
{
closed = 1;
nodes = (
"113 0 LINE",
"185 187 LINE",
"495 187 LINE",
"567 0 LINE",
"669 0 LINE",
"390 711 LINE",
"291 711 LINE",
"13 0 LINE"
);
},
{
closed = 1;
nodes = (
"339 618 LINE",
"463 268 LINE",
"214 268 LINE"
);
}
);
width = 682;
},
{
layerId = "197E4CC0-43FA-49AB-8E7D-89E0185E23DB";
paths = (
{
closed = 1;
nodes = (
"158 0 LINE",
"224 170 LINE",
"497 170 LINE",
"565 0 LINE",
"726 0 LINE",
"433 711 LINE",
"292 711 LINE",
"1 0 LINE"
);
},
{
closed = 1;
nodes = (
"359 538 LINE",
"439 301 LINE",
"277 301 LINE"
);
}
);
width = 729;
}
);
unicode = 0041;
},
{
glyphname = AE;
lastChange = "2016-08-22 09:31:58 +0000";
layers = (
{
layerId = "CAA31E91-2985-420A-82BA-6B4D8404D924";
paths = (
{
closed = 1;
nodes = (
"61 0 LINE",
"189 224 LINE",
"506 224 LINE",
"527 0 LINE",
"879 0 LINE",
"879 41 LINE",
"560 41 LINE",
"532 351 LINE",
"833 351 LINE",
"833 389 LINE",
"533 389 LINE",
"510 668 LINE",
"868 668 LINE",
"868 711 LINE",
"424 711 LINE",
"17 0 LINE"
);
},
{
closed = 1;
nodes = (
"437 668 LINE",
"469 668 LINE",
"501 262 LINE",
"206 262 LINE"
);
}
);
width = 908;
},
{
associatedMasterId = "CAA31E91-2985-420A-82BA-6B4D8404D924";
layerId = "346E36C5-B76A-4D87-84F7-7D8CE095F193";
name = b;
width = 1012;
},
{
layerId = "5F288B98-6DDA-4BF8-A62B-164790BC7EB2";
paths = (
{
closed = 1;
nodes = (
"13 0 LINE",
"424 711 LINE",
"921 711 LINE",
"921 631 LINE",
"584 631 LINE",
"604 404 LINE",
"905 404 LINE",
"905 328 LINE",
"611 328 LINE",
"634 79 LINE",
"933 79 LINE",
"933 0 LINE",
"546 0 LINE",
"529 196 LINE",
"230 196 LINE",
"118 0 LINE"
);
},
{
closed = 1;
nodes = (
"266 268 LINE",
"522 268 LINE",
"495 631 LINE",
"472 631 LINE"
);
}
);
width = 1006;
},
{
anchors = (
{
name = top;
position = "{677, 711}";
}
);
layerId = "197E4CC0-43FA-49AB-8E7D-89E0185E23DB";
paths = (
{
closed = 1;
nodes = (
"7 0 LINE",
"424 711 LINE",
"984 711 LINE",
"984 584 LINE",
"672 584 LINE",
"688 424 LINE",
"991 424 LINE",
"991 299 LINE",
"705 299 LINE",
"722 128 LINE",
"997 128 LINE",
"997 0 LINE",
"568 0 LINE",
"556 161 LINE",
"279 161 LINE",
"188 0 LINE"
);
},
{
closed = 1;
nodes = (
"338 275 LINE",
"546 275 LINE",
"525 584 LINE",
"513 584 LINE"
);
}
);
width = 1124;
}
);
unicode = 00C6;
userData = {
com.typemytype.robofont.layerData = {
b = {
anchors = (
);
components = (
);
contours = (
);
lib = {
};
name = AE;
unicodes = (
);
width = 2073.5500;
};
};
};
},
{
glyphname = B;
lastChange = "2016-08-22 09:32:13 +0000";
layers = (
{
layerId = "CAA31E91-2985-420A-82BA-6B4D8404D924";
paths = (
{
closed = 1;
nodes = (
"354 0 LINE SMOOTH",
"513 0 OFFCURVE",
"597 65 OFFCURVE",
"597 188 CURVE SMOOTH",
"597 299 OFFCURVE",
"530 361 OFFCURVE",
"423 370 CURVE",
"512 379 OFFCURVE",
"562 433 OFFCURVE",
"562 537 CURVE SMOOTH",
"562 651 OFFCURVE",
"479 711 OFFCURVE",
"311 711 CURVE SMOOTH",
"109 711 LINE",
"109 0 LINE"
);
},
{
closed = 1;
nodes = (
"162 346 LINE",
"333 346 LINE SMOOTH",
"488 346 OFFCURVE",
"543 292 OFFCURVE",
"543 188 CURVE SMOOTH",
"543 92 OFFCURVE",
"478 42 OFFCURVE",
"354 42 CURVE SMOOTH",
"162 42 LINE"
);
},
{
closed = 1;
nodes = (
"163 669 LINE",
"311 669 LINE SMOOTH",
"445 669 OFFCURVE",
"509 623 OFFCURVE",
"509 537 CURVE SMOOTH",
"509 439 OFFCURVE",
"463 388 OFFCURVE",
"333 388 CURVE SMOOTH",
"163 388 LINE"
);
}
);
width = 660;
},
{
associatedMasterId = "CAA31E91-2985-420A-82BA-6B4D8404D924";
layerId = "2853F613-54E3-4609-AD52-5094A6274C3D";
name = b;
width = 657;
},
{
layerId = "5F288B98-6DDA-4BF8-A62B-164790BC7EB2";
paths = (
{
closed = 1;
nodes = (
"345 0 LINE SMOOTH",
"514 0 OFFCURVE",
"598 87 OFFCURVE",
"598 196 CURVE SMOOTH",
"598 291 OFFCURVE",
"539 359 OFFCURVE",
"442 375 CURVE",
"525 396 OFFCURVE",
"564 460 OFFCURVE",
"564 535 CURVE SMOOTH",
"564 694 OFFCURVE",
"402 711 OFFCURVE",
"271 711 CURVE SMOOTH",
"92 711 LINE",
"92 0 LINE"
);
},
{
closed = 1;
nodes = (
"185 328 LINE",
"312 328 LINE SMOOTH",
"443 328 OFFCURVE",
"499 297 OFFCURVE",
"499 199 CURVE SMOOTH",
"499 117 OFFCURVE",
"439 80 OFFCURVE",
"327 80 CURVE SMOOTH",
"185 80 LINE"
);
},
{
closed = 1;
nodes = (
"185 631 LINE",
"291 631 LINE SMOOTH",
"394 631 OFFCURVE",
"467 612 OFFCURVE",
"467 522 CURVE SMOOTH",
"467 431 OFFCURVE",
"388 406 OFFCURVE",
"300 406 CURVE SMOOTH",
"185 406 LINE"
);
}
);
width = 656;
},
{
anchors = (
{
name = top;
position = "{325, 711}";
}
);
layerId = "197E4CC0-43FA-49AB-8E7D-89E0185E23DB";
paths = (
{
closed = 1;
nodes = (
"357 0 LINE SMOOTH",
"541 0 OFFCURVE",
"623 103 OFFCURVE",
"623 206 CURVE SMOOTH",
"623 282 OFFCURVE",
"595 354 OFFCURVE",
"512 380 CURVE",
"574 422 OFFCURVE",
"591 472 OFFCURVE",
"591 526 CURVE SMOOTH",
"591 701 OFFCURVE",
"419 711 OFFCURVE",
"302 711 CURVE SMOOTH",
"95 711 LINE",
"95 0 LINE"
);
},
{
closed = 1;
nodes = (
"237 310 LINE",
"336 310 LINE SMOOTH",
"440 310 OFFCURVE",
"471 289 OFFCURVE",
"471 213 CURVE SMOOTH",
"471 153 OFFCURVE",
"421 120 OFFCURVE",
"333 120 CURVE SMOOTH",
"237 120 LINE"
);
},
{
closed = 1;
nodes = (
"235 591 LINE",
"302 591 LINE SMOOTH",
"395 591 OFFCURVE",
"440 575 OFFCURVE",
"440 509 CURVE SMOOTH",
"440 442 OFFCURVE",
"384 424 OFFCURVE",
"336 424 CURVE SMOOTH",
"235 424 LINE"
);
}
);
width = 675;
}
);
unicode = 0042;
userData = {
com.typemytype.robofont.layerData = {
b = {
anchors = (
);
components = (
);
contours = (
);
lib = {
};
name = B;
unicodes = (
);
width = 1346.4500;
};
};
};
},
{
glyphname = C;
lastChange = "2016-08-22 09:31:58 +0000";
layers = (
{
layerId = "CAA31E91-2985-420A-82BA-6B4D8404D924";
paths = (
{
closed = 1;
nodes = (
"476 -11 OFFCURVE",
"554 12 OFFCURVE",
"622 56 CURVE",
"604 93 LINE",
"544 53 OFFCURVE",
"472 32 OFFCURVE",
"396 32 CURVE SMOOTH",
"220 32 OFFCURVE",
"107 153 OFFCURVE",
"107 342 CURVE SMOOTH",
"107 548 OFFCURVE",
"223 681 OFFCURVE",
"402 681 CURVE SMOOTH",
"473 681 OFFCURVE",
"536 661 OFFCURVE",
"585 622 CURVE",
"607 655 LINE",
"555 700 OFFCURVE",
"484 723 OFFCURVE",
"402 723 CURVE SMOOTH",
"190 723 OFFCURVE",
"54 574 OFFCURVE",
"54 342 CURVE SMOOTH",
"54 127 OFFCURVE",
"188 -11 OFFCURVE",
"396 -11 CURVE SMOOTH"
);
}
);
width = 678;
},
{
associatedMasterId = "CAA31E91-2985-420A-82BA-6B4D8404D924";
layerId = "0F2946F5-4512-4A06-8737-F9F6E75672AC";
name = b;
paths = (
{
closed = 1;
nodes = (
"383 -11 CURVE SMOOTH",
"169 -11 OFFCURVE",
"53 151 OFFCURVE",
"53 348 CURVE SMOOTH",
"53 549 OFFCURVE",
"181 724 OFFCURVE",
"397 724 CURVE SMOOTH",
"486 724 OFFCURVE",
"559 702 OFFCURVE",
"618 649 CURVE",
"586 595 LINE",
"537 632 OFFCURVE",
"473 651 OFFCURVE",
"407 651 CURVE SMOOTH",
"227 651 OFFCURVE",
"142 499 OFFCURVE",
"142 348 CURVE SMOOTH",
"142 194 OFFCURVE",
"221 61 OFFCURVE",
"396 61 CURVE SMOOTH",
"476 61 OFFCURVE",
"554 84 OFFCURVE",
"607 131 CURVE",
"635 62 LINE",
"575 14 OFFCURVE",
"486 -11 OFFCURVE"
);
}
);
width = 681;
},
{
layerId = "5F288B98-6DDA-4BF8-A62B-164790BC7EB2";
paths = (
{
closed = 1;
nodes = (
"488 -11 OFFCURVE",
"570 13 OFFCURVE",
"640 64 CURVE",
"608 140 LINE",
"542 91 OFFCURVE",
"475 69 OFFCURVE",
"407 69 CURVE SMOOTH",
"260 69 OFFCURVE",
"151 172 OFFCURVE",
"151 350 CURVE SMOOTH",
"151 504 OFFCURVE",
"241 644 OFFCURVE",
"407 644 CURVE SMOOTH",
"471 644 OFFCURVE",
"533 626 OFFCURVE",
"586 587 CURVE",
"623 651 LINE",
"559 703 OFFCURVE",
"485 724 OFFCURVE",
"398 724 CURVE SMOOTH",
"193 724 OFFCURVE",
"52 562 OFFCURVE",
"52 350 CURVE SMOOTH",
"52 108 OFFCURVE",
"223 -11 OFFCURVE",
"403 -11 CURVE SMOOTH"
);
}
);
width = 679;
},
{
layerId = "197E4CC0-43FA-49AB-8E7D-89E0185E23DB";
paths = (
{
closed = 1;
nodes = (
"496 -11 OFFCURVE",
"582 9 OFFCURVE",
"662 74 CURVE",
"614 183 LINE",
"546 126 OFFCURVE",
"480 110 OFFCURVE",
"421 110 CURVE SMOOTH",
"296 110 OFFCURVE",
"198 209 OFFCURVE",
"198 360 CURVE SMOOTH",
"198 528 OFFCURVE",
"314 603 OFFCURVE",
"409 603 CURVE SMOOTH",
"458 603 OFFCURVE",
"513 596 OFFCURVE",
"586 546 CURVE",
"642 645 LINE",
"560 708 OFFCURVE",
"476 724 OFFCURVE",
"398 724 CURVE SMOOTH",
"249 724 OFFCURVE",
"51 626 OFFCURVE",
"51 358 CURVE SMOOTH",
"51 124 OFFCURVE",
"223 -11 OFFCURVE",
"411 -11 CURVE SMOOTH"
);
}
);
width = 713;
}
);
unicode = 0043;
userData = {
com.typemytype.robofont.layerData = {
b = {
anchors = (
);
components = (
);
contours = (
{
points = (
{
segmentType = curve;
smooth = 1;
x = 785;
y = -23;
},
{
smooth = 0;
x = 346;
y = -23;
},
{
smooth = 0;
x = 108;
y = 309;
},
{
segmentType = curve;
smooth = 1;
x = 108;
y = 713;
},
{
smooth = 0;
x = 108;
y = 1125;
},
{
smooth = 0;
x = 371;
y = 1483;
},
{
segmentType = curve;
smooth = 1;
x = 814;
y = 1483;
},
{
smooth = 0;
x = 995;
y = 1483;
},
{
smooth = 0;
x = 1144;
y = 1437;
},
{
segmentType = curve;
smooth = 0;
x = 1265;
y = 1329;
},
{
segmentType = line;
smooth = 0;
x = 1200;
y = 1219;
},
{
smooth = 0;
x = 1099;
y = 1295;
},
{
smooth = 0;
x = 969;
y = 1334;
},
{
segmentType = curve;
smooth = 1;
x = 833;
y = 1334;
},
{
smooth = 0;
x = 464;
y = 1334;
},
{
smooth = 0;
x = 291;
y = 1022;
},
{
segmentType = curve;
smooth = 1;
x = 291;
y = 712;
},
{
smooth = 0;
x = 291;
y = 398;
},
{
smooth = 0;
x = 453;
y = 125;
},
{
segmentType = curve;
smooth = 1;
x = 811;
y = 125;
},
{
smooth = 0;
x = 974;
y = 125;
},
{
smooth = 0;
x = 1134;
y = 172;
},
{
segmentType = curve;
smooth = 0;
x = 1243;
y = 268;
},
{
segmentType = line;
smooth = 0;
x = 1301;
y = 127;
},
{
smooth = 0;
x = 1178;
y = 28;
},
{
smooth = 0;
x = 996;
y = -23;
}
);
}
);
lib = {
};
name = C;
unicodes = (
);
width = 1394.1500;
};
};
};
},
{
glyphname = D;
lastChange = "2016-08-22 09:31:58 +0000";
layers = (
{
layerId = "CAA31E91-2985-420A-82BA-6B4D8404D924";
paths = (
{
closed = 1;
nodes = (
"303 0 LINE SMOOTH",
"548 0 OFFCURVE",
"677 120 OFFCURVE",
"677 348 CURVE SMOOTH",
"677 585 OFFCURVE",
"544 711 OFFCURVE",
"292 711 CURVE SMOOTH",
"109 711 LINE",
"109 0 LINE"
);
},
{
closed = 1;
nodes = (
"162 669 LINE",
"292 669 LINE SMOOTH",
"509 669 OFFCURVE",
"624 558 OFFCURVE",
"624 348 CURVE SMOOTH",
"624 147 OFFCURVE",
"513 42 OFFCURVE",
"303 42 CURVE SMOOTH",
"162 42 LINE"
);
}
);
width = 744;
},
{
associatedMasterId = "CAA31E91-2985-420A-82BA-6B4D8404D924";
layerId = "5C114749-B01D-4908-8C8B-B2FD2C1A1759";
name = b;
width = 745;
},
{
layerId = "5F288B98-6DDA-4BF8-A62B-164790BC7EB2";
paths = (
{
closed = 1;
nodes = (
"298 0 LINE SMOOTH",
"552 0 OFFCURVE",
"690 135 OFFCURVE",
"690 355 CURVE SMOOTH",
"690 618 OFFCURVE",
"515 711 OFFCURVE",
"252 711 CURVE SMOOTH",
"92 711 LINE",
"92 0 LINE"
);
},
{
closed = 1;
nodes = (
"185 631 LINE",
"263 631 LINE SMOOTH",
"485 631 OFFCURVE",
"591 554 OFFCURVE",
"591 354 CURVE SMOOTH",
"591 190 OFFCURVE",
"502 80 OFFCURVE",
"304 80 CURVE SMOOTH",
"185 80 LINE"
);
}
);
width = 743;
},
{
layerId = "197E4CC0-43FA-49AB-8E7D-89E0185E23DB";
paths = (
{
closed = 1;
nodes = (
"320 0 LINE SMOOTH",
"588 0 OFFCURVE",
"730 120 OFFCURVE",
"730 363 CURVE SMOOTH",
"730 561 OFFCURVE",
"618 711 OFFCURVE",
"314 711 CURVE SMOOTH",
"95 711 LINE",
"95 0 LINE"
);
},
{
closed = 1;
nodes = (
"235 591 LINE",
"325 591 LINE SMOOTH",
"504 591 OFFCURVE",
"582 495 OFFCURVE",
"582 364 CURVE SMOOTH",
"582 194 OFFCURVE",
"482 120 OFFCURVE",
"327 120 CURVE SMOOTH",
"235 120 LINE"
);
}
);
width = 782;
}
);
unicode = 0044;
userData = {
com.typemytype.robofont.layerData = {
b = {
anchors = (
);
components = (
);
contours = (
);
lib = {
};
name = D;
unicodes = (
);
width = 1526.6000;
};
};
};
},
{
glyphname = Eth;
lastChange = "2016-08-22 09:22:14 +0000";
layers = (
{
components = (
{
name = D;
},
{
name = hyphen;
transform = "{1, 0, 0, 1, -1, 93}";
}
);
layerId = "CAA31E91-2985-420A-82BA-6B4D8404D924";
width = 744;
},
{
associatedMasterId = "CAA31E91-2985-420A-82BA-6B4D8404D924";
layerId = "CAC8145F-980B-4ED3-ADE7-DE9786D90232";
name = b;
width = 735;
},
{
components = (
{
name = D;
}
);
layerId = "5F288B98-6DDA-4BF8-A62B-164790BC7EB2";
paths = (
{
closed = 1;
nodes = (
"6 386 LINE",
"280 386 LINE",
"280 320 LINE",
"6 320 LINE"
);
}
);
width = 735;
},
{
components = (
{
name = D;
},
{
name = hyphen;
transform = "{1, 0, 0, 1, -16, 109}";
}
);
layerId = "197E4CC0-43FA-49AB-8E7D-89E0185E23DB";
width = 782;
}
);
unicode = 00D0;
userData = {
com.typemytype.robofont.layerData = {
b = {
anchors = (
);
components = (
);
contours = (
);
lib = {
};
name = Eth;
unicodes = (
);
width = 1505;
};
};
};
},
{
glyphname = E;
lastChange = "2016-08-22 09:31:58 +0000";
layers = (
{
layerId = "CAA31E91-2985-420A-82BA-6B4D8404D924";
paths = (
{
closed = 1;
nodes = (
"520 0 LINE",
"520 42 LINE",
"161 42 LINE",
"161 342 LINE",
"486 342 LINE",
"486 384 LINE",
"162 384 LINE",
"162 669 LINE",
"505 669 LINE",
"505 711 LINE",
"109 711 LINE",
"109 0 LINE"
);
}
);
width = 595;
},
{
layerId = "5F288B98-6DDA-4BF8-A62B-164790BC7EB2";
paths = (
{
closed = 1;
nodes = (
"92 0 LINE",
"92 711 LINE",
"517 711 LINE",
"517 631 LINE",
"185 631 LINE",
"185 402 LINE",
"499 402 LINE",
"499 322 LINE",
"185 322 LINE",
"185 80 LINE",
"532 80 LINE",
"532 0 LINE"
);
}
);
width = 570;
},
{
anchors = (
{
name = bot;
position = "{360, 0}";
},
{
name = ogonek;
position = "{401, 0}";
}
);
layerId = "197E4CC0-43FA-49AB-8E7D-89E0185E23DB";
paths = (
{
closed = 1;
nodes = (
"95 0 LINE",
"95 711 LINE",
"557 711 LINE",
"557 591 LINE",
"235 591 LINE",
"235 424 LINE",
"539 424 LINE",
"539 303 LINE",
"237 303 LINE",
"237 120 LINE",
"570 120 LINE",
"570 0 LINE"
);
}
);
width = 633;
}
);
unicode = 0045;
},
{
glyphname = F;
lastChange = "2016-08-22 09:31:58 +0000";
layers = (
{
layerId = "CAA31E91-2985-420A-82BA-6B4D8404D924";
paths = (
{
closed = 1;
nodes = (
"162 0 LINE",
"162 338 LINE",
"461 338 LINE",
"461 380 LINE",
"162 380 LINE",
"162 669 LINE",
"489 669 LINE",
"489 711 LINE",
"109 711 LINE",
"109 0 LINE"
);
}
);
width = 532;
},
{
layerId = "5F288B98-6DDA-4BF8-A62B-164790BC7EB2";
paths = (
{
closed = 1;
nodes = (
"92 0 LINE",
"92 711 LINE",
"502 711 LINE",
"502 631 LINE",
"185 631 LINE",
"185 399 LINE",
"480 399 LINE",
"480 319 LINE",
"185 319 LINE",
"185 0 LINE"
);
}
);
width = 539;
},
{
layerId = "197E4CC0-43FA-49AB-8E7D-89E0185E23DB";
paths = (
{
closed = 1;
nodes = (
"95 0 LINE",
"95 711 LINE",
"542 711 LINE",
"542 591 LINE",
"235 591 LINE",
"235 422 LINE",
"526 422 LINE",
"526 301 LINE",
"235 301 LINE",
"235 0 LINE"
);
}
);
width = 572;
}
);
unicode = 0046;
},
{
glyphname = G;
lastChange = "2016-08-22 09:31:58 +0000";
layers = (
{
layerId = "CAA31E91-2985-420A-82BA-6B4D8404D924";
paths = (
{
closed = 1;
nodes = (
"492 -10 OFFCURVE",
"586 5 OFFCURVE",
"657 39 CURVE",
"657 357 LINE",
"410 357 LINE",
"410 315 LINE",
"610 315 LINE",
"610 66 LINE",
"557 42 OFFCURVE",
"474 32 OFFCURVE",
"408 32 CURVE SMOOTH",
"222 32 OFFCURVE",
"107 155 OFFCURVE",
"107 345 CURVE SMOOTH",
"107 549 OFFCURVE",
"227 681 OFFCURVE",
"411 681 CURVE SMOOTH",
"452 681 OFFCURVE",
"525 675 OFFCURVE",
"617 614 CURVE",
"639 651 LINE",
"547 719 OFFCURVE",
"465 723 OFFCURVE",
"426 723 CURVE SMOOTH",
"411 723 LINE SMOOTH",
"193 723 OFFCURVE",
"54 575 OFFCURVE",
"54 345 CURVE SMOOTH",
"54 129 OFFCURVE",
"188 -10 OFFCURVE",
"407 -10 CURVE SMOOTH"
);
}
);
width = 739;
},
{
associatedMasterId = "CAA31E91-2985-420A-82BA-6B4D8404D924";
layerId = "026D46CA-7EF2-4CC2-B6B7-2AA9D070FE93";
name = b;
paths = (
{
closed = 1;
nodes = (
"411 -11 CURVE SMOOTH",
"176 -11 OFFCURVE",
"53 130 OFFCURVE",
"53 342 CURVE SMOOTH",
"53 551 OFFCURVE",
"187 724 OFFCURVE",
"416 724 CURVE SMOOTH",
"517 724 OFFCURVE",
"602 691 OFFCURVE",
"651 639 CURVE",
"616 584 LINE",
"568 630 OFFCURVE",
"505 651 OFFCURVE",
"414 651 CURVE SMOOTH",
"233 651 OFFCURVE",
"140 504 OFFCURVE",
"140 349 CURVE SMOOTH",
"140 178 OFFCURVE",
"230 61 OFFCURVE",
"417 61 CURVE SMOOTH",
"473 61 OFFCURVE",
"531 70 OFFCURVE",
"578 89 CURVE",
"578 297 LINE",
"396 297 LINE",
"396 370 LINE",
"662 370 LINE",
"662 40 LINE",
"583 3 OFFCURVE",
"494 -11 OFFCURVE"
);
}
);
width = 746;
},
{
layerId = "5F288B98-6DDA-4BF8-A62B-164790BC7EB2";
paths = (
{
closed = 1;
nodes = (
"412 -11 CURVE SMOOTH",
"176 -11 OFFCURVE",
"52 130 OFFCURVE",
"52 343 CURVE SMOOTH",
"52 570 OFFCURVE",
"214 724 OFFCURVE",
"419 724 CURVE SMOOTH",
"514 724 OFFCURVE",
"590 700 OFFCURVE",
"654 653 CURVE",
"616 588 LINE",
"559 627 OFFCURVE",
"496 644 OFFCURVE",
"422 644 CURVE SMOOTH",
"267 644 OFFCURVE",
"149 526 OFFCURVE",
"149 349 CURVE SMOOTH",
"149 184 OFFCURVE",
"232 69 OFFCURVE",
"415 69 CURVE SMOOTH",
"467 69 OFFCURVE",
"525 77 OFFCURVE",
"570 95 CURVE",
"570 294 LINE",
"392 294 LINE",
"392 374 LINE",
"664 374 LINE",
"664 41 LINE",
"583 4 OFFCURVE",
"495 -11 OFFCURVE"
);
}
);
width = 746;
},
{
layerId = "197E4CC0-43FA-49AB-8E7D-89E0185E23DB";
paths = (
{
closed = 1;
nodes = (
"418 -11 CURVE SMOOTH",
"177 -11 OFFCURVE",
"51 130 OFFCURVE",
"51 345 CURVE SMOOTH",
"51 535 OFFCURVE",
"167 724 OFFCURVE",
"434 724 CURVE SMOOTH",
"604 724 OFFCURVE",
"659 665 OFFCURVE",
"672 654 CURVE",
"616 555 LINE",
"600 567 OFFCURVE",
"547 603 OFFCURVE",
"433 603 CURVE SMOOTH",
"253 603 OFFCURVE",
"198 457 OFFCURVE",
"198 349 CURVE SMOOTH",
"198 210 OFFCURVE",
"276 109 OFFCURVE",
"425 109 CURVE SMOOTH",
"458 109 OFFCURVE",
"492 114 OFFCURVE",
"529 123 CURVE",
"529 274 LINE",
"369 274 LINE",
"369 395 LINE",
"672 395 LINE",
"672 43 LINE",
"578 2 OFFCURVE",
"499 -11 OFFCURVE"
);
}
);
width = 754;
}
);
unicode = 0047;
userData = {
com.typemytype.robofont.layerData = {
b = {
anchors = (
);
components = (
);
contours = (
{
points = (
{
segmentType = curve;
smooth = 1;
x = 841;
y = -23;
},
{
smooth = 0;
x = 361;
y = -23;
},
{
smooth = 0;
x = 108;
y = 267;
},
{
segmentType = curve;
smooth = 1;
x = 108;
y = 701;
},
{
smooth = 0;
x = 108;
y = 1129;
},
{
smooth = 0;
x = 382;
y = 1483;
},
{
segmentType = curve;
smooth = 1;
x = 852;
y = 1483;
},
{
smooth = 0;
x = 1059;
y = 1483;
},
{
smooth = 0;
x = 1233;
y = 1415;
},
{
segmentType = curve;
smooth = 0;
x = 1334;
y = 1308;
},
{
segmentType = line;
smooth = 0;
x = 1262;
y = 1196;
},
{
smooth = 0;
x = 1164;
y = 1291;
},
{
smooth = 0;
x = 1034;
y = 1334;
},
{
segmentType = curve;
smooth = 1;
x = 848;
y = 1334;
},
{
smooth = 0;
x = 477;
y = 1334;
},
{
smooth = 0;
x = 286;
y = 1033;
},
{
segmentType = curve;
smooth = 1;
x = 286;
y = 714;
},
{
smooth = 0;
x = 286;
y = 365;
},
{
smooth = 0;
x = 472;
y = 125;
},
{
segmentType = curve;
smooth = 1;
x = 855;
y = 125;
},
{
smooth = 0;
x = 968;
y = 125;
},
{
smooth = 0;
x = 1088;
y = 143;
},
{
segmentType = curve;
smooth = 0;
x = 1184;
y = 182;
},
{
segmentType = line;
smooth = 0;
x = 1184;
y = 608;
},
{
segmentType = line;
smooth = 0;
x = 811;
y = 608;
},
{
segmentType = line;
smooth = 0;
x = 811;
y = 757;
},
{
segmentType = line;
smooth = 0;
x = 1356;
y = 757;
},
{
segmentType = line;
smooth = 0;
x = 1356;
y = 81;
},
{
smooth = 0;
x = 1195;
y = 6;
},
{
smooth = 0;
x = 1012;
y = -23;
}
);
}
);
lib = {
};
name = G;
unicodes = (
);
width = 1528.2000;
};
};
};
},
{
glyphname = H;
lastChange = "2016-08-22 09:41:36 +0000";
layers = (
{
layerId = "CAA31E91-2985-420A-82BA-6B4D8404D924";
paths = (
{
closed = 1;
nodes = (
"162 0 LINE",
"162 342 LINE",
"599 342 LINE",
"599 0 LINE",
"651 0 LINE",
"651 711 LINE",
"601 711 LINE",
"601 384 LINE",
"164 384 LINE",
"164 711 LINE",
"109 711 LINE",
"109 0 LINE"
);
}
);
width = 761;
},
{
associatedMasterId = "CAA31E91-2985-420A-82BA-6B4D8404D924";
layerId = "7846BC22-B56F-4F1A-A7E6-04B37AA37E8F";
name = b;
width = 770;
},
{
layerId = "5F288B98-6DDA-4BF8-A62B-164790BC7EB2";
paths = (
{
closed = 1;
nodes = (
"197 0 LINE",
"197 325 LINE",
"575 325 LINE",
"575 0 LINE",
"668 0 LINE",
"668 711 LINE",
"575 711 LINE",
"575 404 LINE",
"197 404 LINE",
"197 711 LINE",
"103 711 LINE",
"103 0 LINE"
);
}
);
width = 772;
},
{
layerId = "197E4CC0-43FA-49AB-8E7D-89E0185E23DB";
paths = (
{
closed = 1;
nodes = (
"229 0 LINE",
"229 304 LINE",
"539 304 LINE",
"539 0 LINE",
"677 0 LINE",
"677 711 LINE",
"536 711 LINE",
"536 426 LINE",
"227 426 LINE",
"227 711 LINE",
"86 711 LINE",
"86 0 LINE"
);
}
);
width = 762;
}
);
unicode = 0048;
userData = {
com.typemytype.robofont.layerData = {
b = {
anchors = (
);
components = (
);
contours = (
);
lib = {
};
name = H;
unicodes = (
);
width = 1576.4500;
};
};
};
},
{
glyphname = Hbar;
lastChange = "2016-08-22 09:22:14 +0000";
layers = (
{
components = (
{
name = H;
}
);
layerId = "CAA31E91-2985-420A-82BA-6B4D8404D924";
paths = (
{
closed = 1;
nodes = (
"709 597 LINE",
"709 625 LINE",
"66 625 LINE",
"67 597 LINE"
);
}
);
width = 778;
},
{
associatedMasterId = "CAA31E91-2985-420A-82BA-6B4D8404D924";
layerId = "CEE04DD6-BEB8-48C4-8731-7AA9718EDDEE";
name = b;
width = 748;
},
{
components = (
{
name = H;
}
);
layerId = "5F288B98-6DDA-4BF8-A62B-164790BC7EB2";
paths = (
{
closed = 1;
nodes = (
"45 565 LINE",
"44 631 LINE",
"703 631 LINE",
"703 565 LINE"
);
}
);
width = 747;
},
{
components = (
{
name = H;
}
);
layerId = "197E4CC0-43FA-49AB-8E7D-89E0185E23DB";
paths = (
{
closed = 1;
nodes = (
"46 499 LINE",
"46 571 LINE",
"723 571 LINE",
"723 499 LINE"
);
}
);
width = 770;
}
);
unicode = 0126;
userData = {
com.typemytype.robofont.layerData = {
b = {
anchors = (
);
components = (
);
contours = (
);
lib = {
};
name = Hbar;
unicodes = (
);
width = 1532.5500;
};
};
};
},
{
glyphname = I;
lastChange = "2016-08-22 09:31:58 +0000";
layers = (
{
layerId = "CAA31E91-2985-420A-82BA-6B4D8404D924";
paths = (
{
closed = 1;
nodes = (
"171 0 LINE",
"171 711 LINE",
"118 711 LINE",
"118 0 LINE"
);
}
);
width = 289;
},
{
layerId = "5F288B98-6DDA-4BF8-A62B-164790BC7EB2";
paths = (
{
closed = 1;
nodes = (
"94 0 LINE",
"94 711 LINE",
"187 711 LINE",
"187 0 LINE"
);
}
);
width = 281;
},
{
layerId = "197E4CC0-43FA-49AB-8E7D-89E0185E23DB";
paths = (
{
closed = 1;
nodes = (
"78 0 LINE",
"78 711 LINE",
"218 711 LINE",
"218 0 LINE"
);
}
);
width = 295;
}
);
unicode = 0049;
},
{
glyphname = J;
lastChange = "2016-08-22 09:32:46 +0000";
layers = (
{
layerId = "CAA31E91-2985-420A-82BA-6B4D8404D924";
paths = (
{
closed = 1;
nodes = (
"161 -152 OFFCURVE",
"216 -122 OFFCURVE",
"216 64 CURVE SMOOTH",
"216 711 LINE",
"164 711 LINE",
"164 64 LINE SMOOTH",
"164 -83 OFFCURVE",
"139 -110 OFFCURVE",
"47 -110 CURVE SMOOTH",
"34 -110 OFFCURVE",
"18 -110 OFFCURVE",
"1 -109 CURVE",
"0 -151 LINE",
"16 -152 OFFCURVE",
"31 -152 OFFCURVE",
"45 -152 CURVE SMOOTH"
);
}
);
width = 326;
},
{
associatedMasterId = "CAA31E91-2985-420A-82BA-6B4D8404D924";
layerId = "2797A71C-F1E5-4983-9996-A786053E69CF";
name = b;
width = 357;
},
{
layerId = "5F288B98-6DDA-4BF8-A62B-164790BC7EB2";
paths = (
{
closed = 1;
nodes = (
"197 -161 OFFCURVE",
"252 -88 OFFCURVE",
"252 57 CURVE SMOOTH",
"252 711 LINE",
"158 711 LINE",
"158 59 LINE SMOOTH",
"158 -34 OFFCURVE",
"145 -81 OFFCURVE",
"76 -81 CURVE SMOOTH",
"33 -81 OFFCURVE",
"-4 -69 OFFCURVE",
"-19 -64 CURVE",
"-32 -139 LINE",
"-13 -146 OFFCURVE",
"36 -161 OFFCURVE",
"88 -161 CURVE SMOOTH"
);
}
);
width = 344;
},
{
layerId = "197E4CC0-43FA-49AB-8E7D-89E0185E23DB";
paths = (
{
closed = 1;
nodes = (
"403 -162 OFFCURVE",
"490 -82 OFFCURVE",
"490 61 CURVE SMOOTH",
"490 711 LINE",
"349 711 LINE",
"349 51 LINE SMOOTH",
"349 -1 OFFCURVE",
"318 -44 OFFCURVE",
"240 -44 CURVE SMOOTH",
"225 -44 OFFCURVE",
"190 -44 OFFCURVE",
"118 -21 CURVE",
"91 -126 LINE",
"180 -158 OFFCURVE",
"232 -162 OFFCURVE",
"268 -162 CURVE SMOOTH"
);
}
);
width = 583;
}
);
unicode = 004A;
userData = {
com.typemytype.robofont.layerData = {
b = {
anchors = (
);
components = (
);
contours = (
);
lib = {
};
name = J;
unicodes = (
);
width = 731.5500;
};
};
};
},
{
glyphname = K;
lastChange = "2016-08-22 09:31:58 +0000";
layers = (
{
layerId = "CAA31E91-2985-420A-82BA-6B4D8404D924";
paths = (
{
closed = 1;
nodes = (
"161 0 LINE",
"161 364 LINE",
"536 0 LINE",
"597 0 LINE",
"219 370 LINE",
"575 711 LINE",
"511 711 LINE",
"162 378 LINE",
"162 711 LINE",
"109 711 LINE",
"109 0 LINE"
);
}
);
width = 602;
},
{
associatedMasterId = "CAA31E91-2985-420A-82BA-6B4D8404D924";
layerId = "4852F34C-CD04-401B-BCF5-31D53DE7DF16";
name = b;
width = 630;
},
{
layerId = "5F288B98-6DDA-4BF8-A62B-164790BC7EB2";
paths = (
{
closed = 1;
nodes = (
"92 0 LINE",
"92 711 LINE",
"185 711 LINE",
"185 390 LINE",
"491 711 LINE",
"607 711 LINE",
"278 369 LINE",
"630 0 LINE",
"512 0 LINE",
"185 338 LINE",
"185 0 LINE"
);
}
);
width = 626;
},
{
layerId = "197E4CC0-43FA-49AB-8E7D-89E0185E23DB";
paths = (
{
closed = 1;
nodes = (
"95 0 LINE",
"95 711 LINE",
"235 711 LINE",
"235 406 LINE",
"492 711 LINE",
"667 711 LINE",
"371 367 LINE",
"692 0 LINE",
"507 0 LINE",
"237 306 LINE",
"237 0 LINE"
);
}
);
width = 680;
}
);
unicode = 004B;
userData = {
com.typemytype.robofont.layerData = {
b = {
anchors = (
);
components = (
);
contours = (
);
lib = {
};
name = K;
unicodes = (
);
width = 1289.9500;
};
};
};
},
{
glyphname = L;
lastChange = "2016-08-22 09:31:58 +0000";
layers = (
{
layerId = "CAA31E91-2985-420A-82BA-6B4D8404D924";
paths = (
{
closed = 1;
nodes = (
"495 0 LINE",
"495 42 LINE",
"162 42 LINE",
"162 711 LINE",
"109 711 LINE",
"109 0 LINE"
);
}
);
width = 510;
},
{
layerId = "5F288B98-6DDA-4BF8-A62B-164790BC7EB2";
paths = (
{
closed = 1;
nodes = (
"92 0 LINE",
"92 711 LINE",
"185 711 LINE",
"185 80 LINE",
"515 80 LINE",
"515 0 LINE"
);
}
);
width = 533;
},
{
layerId = "197E4CC0-43FA-49AB-8E7D-89E0185E23DB";
paths = (
{
closed = 1;
nodes = (
"95 0 LINE",
"95 711 LINE",
"235 711 LINE",
"235 120 LINE",
"563 120 LINE",
"563 0 LINE"
);
}
);
width = 596;
}
);
unicode = 004C;
},
{
glyphname = Lslash;
lastChange = "2016-08-22 09:22:14 +0000";
layers = (
{
components = (
{
name = L;
}
);
layerId = "CAA31E91-2985-420A-82BA-6B4D8404D924";
paths = (
{
closed = 1;
nodes = (
"301 426 LINE",
"301 462 LINE",
"31 299 LINE",
"31 262 LINE"
);
}
);
width = 530;
},
{
components = (
{
name = L;
}
);
layerId = "5F288B98-6DDA-4BF8-A62B-164790BC7EB2";
paths = (
{
closed = 1;
nodes = (
"319 432 LINE",
"11 231 LINE",
"11 308 LINE",
"319 509 LINE"
);
}
);
width = 552;
},
{
components = (
{
name = L;
}
);
layerId = "197E4CC0-43FA-49AB-8E7D-89E0185E23DB";
paths = (
{
closed = 1;
nodes = (
"305 422 LINE",
"27 192 LINE",
"27 320 LINE",
"305 550 LINE"
);
}
);
width = 579;
}
);
unicode = 0141;
},
{
glyphname = M;
lastChange = "2016-08-22 09:31:58 +0000";
layers = (
{
layerId = "CAA31E91-2985-420A-82BA-6B4D8404D924";
paths = (
{
closed = 1;
nodes = (
"160 0 LINE",
"160 645 LINE",
"193 554 LINE",
"435 0 LINE",
"466 0 LINE",
"716 554 LINE",
"743 625 LINE",
"743 0 LINE",
"793 0 LINE",
"793 711 LINE",
"736 711 LINE",
"496 175 LINE",
"451 69 LINE",
"408 175 LINE",
"177 711 LINE",
"109 711 LINE",
"109 0 LINE"
);
}
);
width = 903;
},
{
associatedMasterId = "CAA31E91-2985-420A-82BA-6B4D8404D924";
layerId = "33FD38EE-9E01-471E-8887-E4DE9E68EE40";
name = b;
width = 930;
},
{
layerId = "5F288B98-6DDA-4BF8-A62B-164790BC7EB2";
paths = (
{
closed = 1;
nodes = (
"92 0 LINE",
"92 711 LINE",
"206 711 LINE",
"419 225 LINE",
"463 121 LINE",
"508 226 LINE",
"721 711 LINE",
"833 711 LINE",
"833 0 LINE",
"745 0 LINE",
"745 560 LINE",
"714 490 LINE",
"497 0 LINE",
"428 0 LINE",
"215 482 LINE",
"182 564 LINE",
"182 0 LINE"
);
}
);
width = 925;
},
{
layerId = "197E4CC0-43FA-49AB-8E7D-89E0185E23DB";
paths = (
{
closed = 1;
nodes = (
"95 0 LINE",
"95 711 LINE",
"258 711 LINE",
"443 305 LINE",
"501 180 LINE",
"562 309 LINE",
"740 711 LINE",
"903 711 LINE",
"903 0 LINE",
"772 0 LINE",
"772 479 LINE",
"713 357 LINE",
"553 0 LINE",
"449 0 LINE",
"283 361 LINE",
"230 464 LINE",
"230 0 LINE"
);
}
);
width = 998;
}
);
unicode = 004D;
userData = {
com.typemytype.robofont.layerData = {
b = {
anchors = (
);
components = (
);
contours = (
);
lib = {
};
name = M;
unicodes = (
);
width = 1905.1000;
};
};
};
},
{
glyphname = N;
lastChange = "2016-08-22 09:31:58 +0000";
layers = (
{
layerId = "CAA31E91-2985-420A-82BA-6B4D8404D924";
paths = (
{
closed = 1;
nodes = (
"161 0 LINE",
"161 636 LINE",
"214 555 LINE",
"606 0 LINE",
"658 0 LINE",
"658 711 LINE",
"606 711 LINE",
"606 69 LINE",
"544 164 LINE",
"161 711 LINE",
"109 711 LINE",
"109 0 LINE"
);
}
);
width = 767;
},
{
associatedMasterId = "CAA31E91-2985-420A-82BA-6B4D8404D924";
layerId = "1BFCBF67-5138-4E1C-938C-455E59544E4F";
name = b;
width = 771;
},
{
layerId = "5F288B98-6DDA-4BF8-A62B-164790BC7EB2";
paths = (
{
closed = 1;
nodes = (
"92 0 LINE",
"92 711 LINE",
"193 711 LINE",
"543 196 LINE",
"587 130 LINE",
"587 711 LINE",
"675 711 LINE",
"675 0 LINE",
"574 0 LINE",
"221 513 LINE",
"179 578 LINE",
"179 0 LINE"
);
}
);
width = 767;
},
{
layerId = "197E4CC0-43FA-49AB-8E7D-89E0185E23DB";
paths = (
{
closed = 1;
nodes = (
"95 0 LINE",
"95 711 LINE",
"243 711 LINE",
"513 321 LINE",
"585 216 LINE",
"585 711 LINE",
"719 711 LINE",
"719 0 LINE",
"571 0 LINE",
"300 390 LINE",
"225 498 LINE",
"225 0 LINE"
);
}
);
width = 815;
}
);
unicode = 004E;
userData = {
com.typemytype.robofont.layerData = {
b = {
anchors = (
);
components = (
);
contours = (
);
lib = {
};
name = N;
unicodes = (
);
width = 1578.1500;
};
};
};
},
{
glyphname = Eng;
lastChange = "2016-08-22 09:22:14 +0000";
layers = (
{
layerId = "CAA31E91-2985-420A-82BA-6B4D8404D924";
paths = (
{
closed = 1;
nodes = (
"654 -209 OFFCURVE",
"666 -113 OFFCURVE",
"667 0 CURVE SMOOTH",
"667 711 LINE",
"615 711 LINE",
"615 69 LINE",
"553 164 LINE",
"170 711 LINE",
"118 711 LINE",
"118 0 LINE",
"170 0 LINE",
"170 636 LINE",
"223 555 LINE",
"615 0 LINE",
"615 -41 LINE SMOOTH",
"615 -127 OFFCURVE",
"571 -169 OFFCURVE",
"474 -169 CURVE SMOOTH",
"429 -169 OFFCURVE",
"364 -164 OFFCURVE",
"269 -139 CURVE",
"265 -182 LINE",
"352 -201 OFFCURVE",
"420 -209 OFFCURVE",
"474 -209 CURVE SMOOTH"
);
}
);
width = 734;
},
{
layerId = "5F288B98-6DDA-4BF8-A62B-164790BC7EB2";
paths = (
{
closed = 1;
nodes = (
"266 -179 CURVE",
"277 -105 LINE",
"341 -122 OFFCURVE",
"395 -131 OFFCURVE",
"438 -131 CURVE SMOOTH",
"533 -131 OFFCURVE",
"576 -91 OFFCURVE",
"581 0 CURVE SMOOTH",
"582 3 OFFCURVE",
"582 23 OFFCURVE",
"582 27 CURVE",
"225 517 LINE",
"183 582 LINE",
"183 0 LINE",
"92 0 LINE",
"92 711 LINE",
"196 711 LINE",
"539 229 LINE",
"583 163 LINE",
"583 711 LINE",
"674 711 LINE",
"674 51 LINE SMOOTH",
"674 -113 OFFCURVE",
"611 -202 OFFCURVE",
"441 -202 CURVE SMOOTH",
"392 -202 OFFCURVE",
"334 -195 OFFCURVE"
);
}
);
width = 767;
},
{
layerId = "197E4CC0-43FA-49AB-8E7D-89E0185E23DB";
paths = (
{
closed = 1;
nodes = (
"300 -230 CURVE",
"320 -123 LINE",
"347 -132 OFFCURVE",
"387 -140 OFFCURVE",
"428 -140 CURVE SMOOTH",
"495 -140 OFFCURVE",
"584 -142 OFFCURVE",
"580 -31 CURVE SMOOTH",
"580 59 LINE",
"297 433 LINE",
"221 541 LINE",
"221 0 LINE",
"95 0 LINE",
"95 711 LINE",
"240 711 LINE",
"506 356 LINE",
"579 251 LINE",
"579 711 LINE",
"709 711 LINE",
"709 -27 LINE SMOOTH",
"709 -199 OFFCURVE",
"582 -249 OFFCURVE",
"434 -249 CURVE SMOOTH",
"390 -249 OFFCURVE",
"345 -242 OFFCURVE"
);
}
);
width = 807;
}
);
unicode = 014A;
},
{
glyphname = O;
lastChange = "2016-08-22 09:33:10 +0000";
layers = (
{
guideLines = (
{
position = "{113, 355}";
},
{
angle = 90;
position = "{393, 612}";
}
);
layerId = "CAA31E91-2985-420A-82BA-6B4D8404D924";
paths = (
{
closed = 1;
nodes = (
"584 -10 OFFCURVE",
"714 132 OFFCURVE",
"714 353 CURVE SMOOTH",
"714 578 OFFCURVE",
"584 723 OFFCURVE",
"385 723 CURVE SMOOTH",
"182 723 OFFCURVE",
"54 578 OFFCURVE",
"54 353 CURVE SMOOTH",
"54 132 OFFCURVE",
"183 -10 OFFCURVE",
"385 -10 CURVE SMOOTH"
);
},
{
closed = 1;
nodes = (
"217 32 OFFCURVE",
"107 158 OFFCURVE",
"107 353 CURVE SMOOTH",
"107 553 OFFCURVE",
"216 681 OFFCURVE",
"385 681 CURVE SMOOTH",
"552 681 OFFCURVE",
"660 553 OFFCURVE",
"660 353 CURVE SMOOTH",
"660 158 OFFCURVE",
"553 32 OFFCURVE",
"385 32 CURVE SMOOTH"
);
}
);
width = 768;
},
{
associatedMasterId = "CAA31E91-2985-420A-82BA-6B4D8404D924";
layerId = "2721D7FD-3E32-44CF-984E-FF7F37A71730";
name = b;
width = 796;
},
{
layerId = "5F288B98-6DDA-4BF8-A62B-164790BC7EB2";
paths = (
{
closed = 1;
nodes = (
"615 -11 OFFCURVE",
"742 133 OFFCURVE",
"742 356 CURVE SMOOTH",
"742 571 OFFCURVE",
"611 724 OFFCURVE",
"399 724 CURVE SMOOTH",
"179 724 OFFCURVE",
"52 571 OFFCURVE",
"52 356 CURVE SMOOTH",
"52 132 OFFCURVE",
"180 -11 OFFCURVE",
"399 -11 CURVE SMOOTH"
);
},
{
closed = 1;
nodes = (
"233 69 OFFCURVE",
"153 185 OFFCURVE",
"153 356 CURVE SMOOTH",
"153 517 OFFCURVE",
"234 644 OFFCURVE",
"398 644 CURVE SMOOTH",
"567 644 OFFCURVE",
"640 517 OFFCURVE",
"640 356 CURVE SMOOTH",
"640 185 OFFCURVE",
"567 69 OFFCURVE",
"398 69 CURVE SMOOTH"
);
}
);
width = 794;
},
{
layerId = "197E4CC0-43FA-49AB-8E7D-89E0185E23DB";
paths = (
{
closed = 1;
nodes = (
"643 -11 OFFCURVE",
"775 135 OFFCURVE",
"775 360 CURVE SMOOTH",
"775 583 OFFCURVE",
"638 724 OFFCURVE",
"419 724 CURVE SMOOTH",
"191 724 OFFCURVE",
"51 581 OFFCURVE",
"51 360 CURVE SMOOTH",
"51 135 OFFCURVE",
"190 -11 OFFCURVE",
"417 -11 CURVE SMOOTH"
);
},
{
closed = 1;
nodes = (
"274 109 OFFCURVE",
"204 195 OFFCURVE",
"204 360 CURVE SMOOTH",
"204 523 OFFCURVE",
"280 604 OFFCURVE",
"415 604 CURVE SMOOTH",
"546 604 OFFCURVE",
"624 523 OFFCURVE",
"624 360 CURVE SMOOTH",
"624 195 OFFCURVE",
"546 109 OFFCURVE",
"412 109 CURVE SMOOTH"
);
}
);
width = 827;
}
);
unicode = 004F;
userData = {
com.typemytype.robofont.guides = (
{
angle = 0;
isGlobal = 0;
magnetic = 5;
x = 231;
y = 727;
},
{
angle = 90;
isGlobal = 0;
magnetic = 5;
x = 804;
y = 1254;
}
);
com.typemytype.robofont.layerData = {
b = {
anchors = (
);
components = (
);
contours = (
);
lib = {
};
name = O;
unicodes = (
);
width = 1630.8000;
};
};
};
},
{
glyphname = Oslash;
lastChange = "2016-08-22 09:22:14 +0000";
layers = (
{
components = (
{
name = O;
}
);
layerId = "CAA31E91-2985-420A-82BA-6B4D8404D924";
paths = (
{
closed = 1;
nodes = (
"637 768 LINE",
"608 784 LINE",
"145 -59 LINE",
"176 -76 LINE"
);
}
);
width = 768;
},
{
associatedMasterId = "CAA31E91-2985-420A-82BA-6B4D8404D924";
layerId = "EC5A473B-6288-4BCB-B2C1-556A09CC89DD";
name = b;
width = 812;
},
{
components = (
{
name = O;
}
);
layerId = "5F288B98-6DDA-4BF8-A62B-164790BC7EB2";
paths = (
{
closed = 1;
nodes = (
"211 -61 LINE",
"166 -36 LINE",
"587 761 LINE",
"633 736 LINE"
);
}
);
width = 812;
},
{
components = (
{
name = O;
}
);
layerId = "197E4CC0-43FA-49AB-8E7D-89E0185E23DB";
paths = (
{
closed = 1;
nodes = (
"226 -63 LINE",
"164 -38 LINE",
"601 773 LINE",
"663 748 LINE"
);
}
);
width = 812;
}
);
unicode = 00D8;
userData = {
com.typemytype.robofont.layerData = {
b = {
anchors = (
);
components = (
);
contours = (
);
lib = {
};
name = Oslash;
unicodes = (
);
width = 1663;
};
};
};
},
{
glyphname = OE;
lastChange = "2016-08-22 09:22:14 +0000";
layers = (
{
layerId = "CAA31E91-2985-420A-82BA-6B4D8404D924";
paths = (
{
closed = 1;
nodes = (
"477 -10 OFFCURVE",
"546 22 OFFCURVE",
"583 66 CURVE",
"583 0 LINE",
"978 0 LINE",
"978 48 LINE",
"635 48 LINE",
"635 341 LINE",
"943 341 LINE",
"943 389 LINE",
"636 389 LINE",
"636 663 LINE",
"962 663 LINE",
"962 711 LINE",
"583 711 LINE",
"583 656 LINE",
"526 710 OFFCURVE",
"449 723 OFFCURVE",
"403 723 CURVE SMOOTH",
"176 723 OFFCURVE",
"54 558 OFFCURVE",
"54 354 CURVE SMOOTH",
"54 158 OFFCURVE",
"156 -10 OFFCURVE",
"397 -10 CURVE SMOOTH"
);
},
{
closed = 1;
nodes = (
"176 32 OFFCURVE",
"107 200 OFFCURVE",
"107 354 CURVE SMOOTH",
"107 491 OFFCURVE",
"184 681 OFFCURVE",
"403 681 CURVE SMOOTH",
"486 681 OFFCURVE",
"548 645 OFFCURVE",
"583 605 CURVE",
"583 116 LINE",
"543 63 OFFCURVE",
"479 32 OFFCURVE",
"403 32 CURVE SMOOTH"
);
}
);
width = 995;
},
{
associatedMasterId = "CAA31E91-2985-420A-82BA-6B4D8404D924";
layerId = "FC399C78-2446-4AC8-BB92-3F8248E41D11";
name = b;
width = 1001;
},
{
layerId = "5F288B98-6DDA-4BF8-A62B-164790BC7EB2";
paths = (
{
closed = 1;
nodes = (
"393 -11 CURVE SMOOTH",
"183 -17 OFFCURVE",
"52 124 OFFCURVE",
"52 356 CURVE SMOOTH",
"52 573 OFFCURVE",
"188 726 OFFCURVE",
"393 724 CURVE",
"475 724 OFFCURVE",
"530 697 OFFCURVE",
"552 676 CURVE",
"552 711 LINE",
"948 711 LINE",
"948 631 LINE",
"645 631 LINE",
"645 404 LINE",
"929 404 LINE",
"929 324 LINE",
"646 324 LINE",
"646 80 LINE",
"962 80 LINE",
"962 0 LINE",
"552 0 LINE",
"552 46 LINE",
"524 19 OFFCURVE",
"470 -9 OFFCURVE"
);
},
{
closed = 1;
nodes = (
"397 67 CURVE SMOOTH",
"478 68 OFFCURVE",
"525 98 OFFCURVE",
"552 128 CURVE",
"552 592 LINE",
"524 620 OFFCURVE",
"473 646 OFFCURVE",
"393 644 CURVE",
"241 641 OFFCURVE",
"153 519 OFFCURVE",
"153 354 CURVE SMOOTH",
"153 187 OFFCURVE",
"236 64 OFFCURVE"
);
}
);
width = 1000;
},
{
layerId = "197E4CC0-43FA-49AB-8E7D-89E0185E23DB";
paths = (
{
closed = 1;
nodes = (
"403 -12 CURVE SMOOTH",
"229 -18 OFFCURVE",
"51 83 OFFCURVE",
"51 358 CURVE SMOOTH",
"51 593 OFFCURVE",
"205 711 OFFCURVE",
"358 724 CURVE",
"506 731 OFFCURVE",
"535 667 OFFCURVE",
"515 687 CURVE",
"515 711 LINE",
"930 711 LINE",
"930 591 LINE",
"656 591 LINE",
"656 424 LINE",
"913 424 LINE",
"913 303 LINE",
"658 303 LINE",
"658 120 LINE",
"944 120 LINE",
"944 0 LINE",
"515 0 LINE",
"515 22 LINE",
"544 47 OFFCURVE",
"499 -9 OFFCURVE"
);
},
{
closed = 1;
nodes = (
"403 95 CURVE SMOOTH",
"517 94 OFFCURVE",
"538 147 OFFCURVE",
"515 120 CURVE",
"515 576 LINE",
"496 589 OFFCURVE",
"458 615 OFFCURVE",
"375 603 CURVE",
"310 588 OFFCURVE",
"204 553 OFFCURVE",
"204 354 CURVE SMOOTH",
"204 171 OFFCURVE",
"292 98 OFFCURVE"
);
}
);
width = 1006;
}
);
unicode = 0152;
userData = {
com.typemytype.robofont.layerData = {
b = {
anchors = (
);
components = (
);
contours = (
);
lib = {
};
name = OE;
unicodes = (
);
width = 2049.1499;
};
};
};
},
{
glyphname = P;
lastChange = "2016-08-22 09:31:58 +0000";
layers = (
{
layerId = "CAA31E91-2985-420A-82BA-6B4D8404D924";
paths = (
{
closed = 1;
nodes = (
"162 0 LINE",
"162 342 LINE",
"320 342 LINE SMOOTH",
"488 342 OFFCURVE",
"560 397 OFFCURVE",
"560 527 CURVE SMOOTH",
"560 656 OFFCURVE",
"488 711 OFFCURVE",
"320 711 CURVE SMOOTH",
"109 711 LINE",
"109 0 LINE"
);
},
{
closed = 1;
nodes = (
"162 669 LINE",
"320 669 LINE",
"327 669 OFFCURVE",
"333 669 OFFCURVE",
"339 669 CURVE SMOOTH",
"458 669 OFFCURVE",
"510 626 OFFCURVE",
"510 527 CURVE SMOOTH",
"510 427 OFFCURVE",
"462 384 OFFCURVE",
"320 384 CURVE SMOOTH",
"162 384 LINE"
);
}
);
width = 595;
},
{
associatedMasterId = "CAA31E91-2985-420A-82BA-6B4D8404D924";
layerId = "EFE4A549-A99D-4559-B2F1-71454594C96A";
name = b;
paths = (
{
closed = 1;
nodes = (
"176 404 LINE",
"283 404 LINE SMOOTH",
"378 404 OFFCURVE",
"475 430 OFFCURVE",
"475 526 CURVE SMOOTH",
"475 621 OFFCURVE",
"394 639 OFFCURVE",
"289 639 CURVE SMOOTH",
"176 639 LINE"
);
},
{
closed = 1;
nodes = (
"176 72 LINE",
"326 72 LINE SMOOTH",
"442 72 OFFCURVE",
"508 112 OFFCURVE",
"508 198 CURVE SMOOTH",
"508 301 OFFCURVE",
"434 332 OFFCURVE",
"298 332 CURVE SMOOTH",
"176 332 LINE"
);
},
{
closed = 1;
nodes = (
"92 0 LINE",
"92 711 LINE",
"245 711 LINE SMOOTH",
"374 711 OFFCURVE",
"563 705 OFFCURVE",
"563 540 CURVE SMOOTH",
"563 461 OFFCURVE",
"510 397 OFFCURVE",
"434 375 CURVE",
"530 358 OFFCURVE",
"597 295 OFFCURVE",
"597 197 CURVE SMOOTH",
"597 92 OFFCURVE",
"517 0 OFFCURVE",
"361 0 CURVE SMOOTH"
);
}
);
width = 612;
},
{
layerId = "5F288B98-6DDA-4BF8-A62B-164790BC7EB2";
paths = (
{
closed = 1;
nodes = (
"92 0 LINE",
"92 711 LINE",
"295 711 LINE SMOOTH",
"462 711 OFFCURVE",
"575 681 OFFCURVE",
"575 517 CURVE SMOOTH",
"575 368 OFFCURVE",
"470 323 OFFCURVE",
"317 323 CURVE SMOOTH",
"185 323 LINE",
"185 0 LINE"
);
},
{
closed = 1;
nodes = (
"185 403 LINE",
"316 403 LINE SMOOTH",
"419 403 OFFCURVE",
"480 424 OFFCURVE",
"480 516 CURVE SMOOTH",
"480 615 OFFCURVE",
"416 630 OFFCURVE",
"298 630 CURVE SMOOTH",
"185 630 LINE"
);
}
);
width = 609;
},
{
layerId = "197E4CC0-43FA-49AB-8E7D-89E0185E23DB";
paths = (
{
closed = 1;
nodes = (
"95 0 LINE",
"95 711 LINE",
"296 711 LINE SMOOTH",
"465 711 OFFCURVE",
"617 704 OFFCURVE",
"617 503 CURVE SMOOTH",
"617 346 OFFCURVE",
"515 298 OFFCURVE",
"332 298 CURVE SMOOTH",
"235 298 LINE",
"235 0 LINE"
);
},
{
closed = 1;
nodes = (
"235 418 LINE",
"329 418 LINE SMOOTH",
"409 418 OFFCURVE",
"467 431 OFFCURVE",
"467 502 CURVE SMOOTH",
"467 596 OFFCURVE",
"396 589 OFFCURVE",
"303 589 CURVE SMOOTH",
"235 589 LINE"
);
}
);
width = 650;
}
);
unicode = 0050;
userData = {
com.typemytype.robofont.layerData = {
b = {
anchors = (
);
components = (
);
contours = (
{
points = (
{
segmentType = line;
smooth = 0;
x = 360;
y = 828;
},
{
segmentType = line;
smooth = 1;
x = 580;
y = 828;
},
{
smooth = 0;
x = 775;
y = 828;
},
{
smooth = 0;
x = 973;
y = 881;
},
{
segmentType = curve;
smooth = 1;
x = 973;
y = 1077;
},
{
smooth = 0;
x = 973;
y = 1272;
},
{
smooth = 0;
x = 807;
y = 1308;
},
{
segmentType = curve;
smooth = 1;
x = 592;
y = 1308;
},
{
segmentType = line;
smooth = 0;
x = 360;
y = 1308;
}
);
},
{
points = (
{
segmentType = line;
smooth = 0;
x = 360;
y = 148;
},
{
segmentType = line;
smooth = 1;
x = 667;
y = 148;
},
{
smooth = 0;
x = 906;
y = 148;
},
{
smooth = 0;
x = 1041;
y = 230;
},
{
segmentType = curve;
smooth = 1;
x = 1041;
y = 406;
},
{
smooth = 0;
x = 1041;
y = 617;
},
{
smooth = 0;
x = 889;
y = 680;
},
{
segmentType = curve;
smooth = 1;
x = 610;
y = 680;
},
{
segmentType = line;
smooth = 0;
x = 360;
y = 680;
}
);
},
{
points = (
{
segmentType = line;
smooth = 0;
x = 188;
y = 0;
},
{
segmentType = line;
smooth = 0;
x = 188;
y = 1456;
},
{
segmentType = line;
smooth = 1;
x = 502;
y = 1456;
},
{
smooth = 0;
x = 765;
y = 1456;
},
{
smooth = 0;
x = 1154;
y = 1443;
},
{
segmentType = curve;
smooth = 1;
x = 1154;
y = 1105;
},
{
smooth = 0;
x = 1154;
y = 944;
},
{
smooth = 0;
x = 1045;
y = 814;
},
{
segmentType = curve;
smooth = 0;
x = 889;
y = 769;
},
{
smooth = 0;
x = 1086;
y = 734;
},
{
smooth = 0;
x = 1223;
y = 605;
},
{
segmentType = curve;
smooth = 1;
x = 1223;
y = 403;
},
{
smooth = 0;
x = 1223;
y = 189;
},
{
smooth = 0;
x = 1059;
y = 0;
},
{
segmentType = curve;
smooth = 1;
x = 739;
y = 0;
}
);
}
);
lib = {
};
name = P;
unicodes = (
);
width = 1252.6500;
};
};
};
},
{
glyphname = Thorn;
lastChange = "2016-08-22 09:22:14 +0000";
layers = (
{
layerId = "CAA31E91-2985-420A-82BA-6B4D8404D924";
paths = (
{
closed = 1;
nodes = (
"159 0 LINE",
"159 175 LINE",
"314 175 LINE SMOOTH",
"469 175 OFFCURVE",
"578 237 OFFCURVE",
"578 382 CURVE SMOOTH",
"578 553 OFFCURVE",
"440 591 OFFCURVE",
"275 591 CURVE SMOOTH",
"158 591 LINE",
"158 711 LINE",
"104 711 LINE",
"104 0 LINE"
);
},
{
closed = 1;
nodes = (
"159 542 LINE",
"283 542 LINE SMOOTH",
"424 542 OFFCURVE",
"521 509 OFFCURVE",
"521 380 CURVE SMOOTH",
"521 272 OFFCURVE",
"431 225 OFFCURVE",
"308 225 CURVE SMOOTH",
"159 225 LINE"
);
}
);
width = 613;
},
{
layerId = "5F288B98-6DDA-4BF8-A62B-164790BC7EB2";
paths = (
{
closed = 1;
nodes = (
"98 0 LINE",
"98 711 LINE",
"191 711 LINE",
"191 594 LINE",
"287 594 LINE SMOOTH",
"453 594 OFFCURVE",
"588 557 OFFCURVE",
"588 380 CURVE SMOOTH",
"588 230 OFFCURVE",
"464 167 OFFCURVE",
"309 167 CURVE SMOOTH",
"191 167 LINE",
"191 0 LINE"
);
},
{
closed = 1;
nodes = (
"191 248 LINE",
"317 248 LINE SMOOTH",
"419 248 OFFCURVE",
"488 287 OFFCURVE",
"488 379 CURVE SMOOTH",
"488 488 OFFCURVE",
"412 514 OFFCURVE",
"293 514 CURVE SMOOTH",
"191 514 LINE"
);
}
);
width = 625;
},
{
layerId = "197E4CC0-43FA-49AB-8E7D-89E0185E23DB";
paths = (
{
closed = 1;
nodes = (
"90 0 LINE",
"90 711 LINE",
"230 711 LINE",
"230 598 LINE",
"301 598 LINE SMOOTH",
"469 598 OFFCURVE",
"601 561 OFFCURVE",
"601 376 CURVE SMOOTH",
"601 221 OFFCURVE",
"458 157 OFFCURVE",
"303 157 CURVE SMOOTH",
"228 157 LINE",
"228 0 LINE"
);
},
{
closed = 1;
nodes = (
"228 276 LINE",
"327 276 LINE SMOOTH",
"405 276 OFFCURVE",
"449 306 OFFCURVE",
"449 377 CURVE SMOOTH",
"449 461 OFFCURVE",
"397 479 OFFCURVE",
"306 479 CURVE SMOOTH",
"228 479 LINE"
);
}
);
width = 641;
}
);
unicode = 00DE;
},
{
glyphname = Q;
lastChange = "2016-08-22 09:22:14 +0000";
layers = (
{
components = (
{
name = O;
}
);
layerId = "CAA31E91-2985-420A-82BA-6B4D8404D924";
paths = (
{
closed = 1;
nodes = (
"602 -169 LINE",
"602 -169 OFFCURVE",
"509 -76 OFFCURVE",
"462 19 CURVE",
"422 10 LINE",
"465 -88 OFFCURVE",
"572 -198 OFFCURVE",
"572 -198 CURVE"
);
}
);
width = 768;
},
{
associatedMasterId = "CAA31E91-2985-420A-82BA-6B4D8404D924";
layerId = "2B5B712E-0042-41EF-B449-18DF102E4C5A";
name = b;
width = 795;
},
{
components = (
{
name = O;
}
);
layerId = "5F288B98-6DDA-4BF8-A62B-164790BC7EB2";
paths = (
{
closed = 1;
nodes = (
"597 -209 LINE",
"597 -209 OFFCURVE",
"500 -117 OFFCURVE",
"445 -4 CURVE",
"532 12 LINE",
"575 -75 OFFCURVE",
"655 -148 OFFCURVE",
"655 -148 CURVE"
);
}
);
width = 793;
},
{
components = (
{
name = O;
}
);
layerId = "197E4CC0-43FA-49AB-8E7D-89E0185E23DB";
paths = (
{
closed = 1;
nodes = (
"627 -223 LINE",
"627 -223 OFFCURVE",
"524 -136 OFFCURVE",
"456 -4 CURVE",
"575 22 LINE",
"612 -57 OFFCURVE",
"700 -144 OFFCURVE",
"700 -144 CURVE"
);
}
);
width = 829;
}
);
unicode = 0051;
userData = {
com.typemytype.robofont.layerData = {
b = {
anchors = (
);
components = (
);
contours = (
);
lib = {
};
name = Q;
unicodes = (
);
width = 1628.2000;
};
};
};
},
{
glyphname = R;
lastChange = "2016-08-22 09:31:58 +0000";
layers = (
{
layerId = "CAA31E91-2985-420A-82BA-6B4D8404D924";
paths = (
{
closed = 1;
nodes = (
"162 0 LINE",
"162 328 LINE",
"351 328 LINE SMOOTH",
"440 328 OFFCURVE",
"455 302 OFFCURVE",
"492 199 CURVE SMOOTH",
"562 0 LINE",
"611 0 LINE",
"538 210 LINE SMOOTH",
"504 306 OFFCURVE",
"493 335 OFFCURVE",
"412 349 CURVE",
"510 357 OFFCURVE",
"557 430 OFFCURVE",
"557 526 CURVE SMOOTH",
"557 655 OFFCURVE",
"486 711 OFFCURVE",
"322 711 CURVE SMOOTH",
"109 711 LINE",
"109 0 LINE"
);
},
{
closed = 1;
nodes = (
"164 669 LINE",
"322 669 LINE",
"328 669 OFFCURVE",
"335 669 OFFCURVE",
"341 669 CURVE SMOOTH",
"455 669 OFFCURVE",
"507 626 OFFCURVE",
"507 526 CURVE SMOOTH",
"507 424 OFFCURVE",
"455 370 OFFCURVE",
"336 370 CURVE SMOOTH",
"164 370 LINE"
);
}
);
width = 670;
},
{
associatedMasterId = "CAA31E91-2985-420A-82BA-6B4D8404D924";
layerId = "CED216FD-A509-470E-8DD3-008F9E4686E6";
name = b;
paths = (
{
closed = 1;
nodes = (
"176 390 LINE",
"300 390 LINE SMOOTH",
"388 390 OFFCURVE",
"455 417 OFFCURVE",
"455 517 CURVE SMOOTH",
"455 615 OFFCURVE",
"407 639 OFFCURVE",
"306 639 CURVE SMOOTH",
"176 639 LINE"
);
},
{
closed = 1;
nodes = (
"92 0 LINE",
"92 711 LINE",
"260 711 LINE SMOOTH",
"376 711 OFFCURVE",
"544 709 OFFCURVE",
"544 524 CURVE SMOOTH",
"544 435 OFFCURVE",
"505 372 OFFCURVE",
"414 349 CURVE",
"414 349 LINE",
"494 323 OFFCURVE",
"507 249 OFFCURVE",
"566 104 CURVE SMOOTH",
"608 0 LINE",
"518 0 LINE",
"438 205 LINE SMOOTH",
"403 293 OFFCURVE",
"389 318 OFFCURVE",
"302 318 CURVE SMOOTH",
"176 318 LINE",
"176 0 LINE"
);
}
);
width = 655;
},
{
layerId = "5F288B98-6DDA-4BF8-A62B-164790BC7EB2";
paths = (
{
closed = 1;
nodes = (
"92 0 LINE",
"92 711 LINE",
"311 711 LINE SMOOTH",
"434 711 OFFCURVE",
"556 685 OFFCURVE",
"556 522 CURVE SMOOTH",
"556 436 OFFCURVE",
"517 371 OFFCURVE",
"423 348 CURVE",
"484 329 OFFCURVE",
"509 266 OFFCURVE",
"535 201 CURVE SMOOTH",
"617 0 LINE",
"516 0 LINE",
"437 206 LINE SMOOTH",
"405 290 OFFCURVE",
"386 314 OFFCURVE",
"305 314 CURVE SMOOTH",
"185 314 LINE",
"185 0 LINE"
);
},
{
closed = 1;
nodes = (
"185 393 LINE",
"308 393 LINE SMOOTH",
"392 393 OFFCURVE",
"457 419 OFFCURVE",
"457 514 CURVE SMOOTH",
"457 608 OFFCURVE",
"411 631 OFFCURVE",
"315 631 CURVE SMOOTH",
"185 631 LINE"
);
}
);
width = 652;
},
{
layerId = "197E4CC0-43FA-49AB-8E7D-89E0185E23DB";
paths = (
{
closed = 1;
nodes = (
"95 0 LINE",
"95 711 LINE",
"371 711 LINE SMOOTH",
"531 711 OFFCURVE",
"622 667 OFFCURVE",
"622 512 CURVE SMOOTH",
"622 444 OFFCURVE",
"578 370 OFFCURVE",
"473 347 CURVE",
"495 326 OFFCURVE",
"534 313 OFFCURVE",
"558 255 CURVE SMOOTH",
"662 0 LINE",
"509 0 LINE",
"427 215 LINE SMOOTH",
"403 276 OFFCURVE",
"376 294 OFFCURVE",
"322 294 CURVE SMOOTH",
"235 294 LINE",
"235 0 LINE"
);
},
{
closed = 1;
nodes = (
"233 414 LINE",
"350 414 LINE SMOOTH",
"416 414 OFFCURVE",
"473 434 OFFCURVE",
"473 506 CURVE SMOOTH",
"473 576 OFFCURVE",
"438 591 OFFCURVE",
"367 591 CURVE SMOOTH",
"233 591 LINE"
);
}
);
width = 693;
}
);
unicode = 0052;
userData = {
com.typemytype.robofont.layerData = {
b = {
anchors = (
);
components = (
);
contours = (
{
points = (
{
segmentType = line;
smooth = 0;
x = 360;
y = 799;
},
{
segmentType = line;
smooth = 1;
x = 615;
y = 799;
},
{
smooth = 0;
x = 795;
y = 799;
},
{
smooth = 0;
x = 932;
y = 854;
},
{
segmentType = curve;
smooth = 1;
x = 932;
y = 1058;
},
{
smooth = 0;
x = 932;
y = 1259;
},
{
smooth = 0;
x = 833;
y = 1308;
},
{
segmentType = curve;
smooth = 1;
x = 626;
y = 1308;
},
{
segmentType = line;
smooth = 0;
x = 360;
y = 1308;
}
);
},
{
points = (
{
segmentType = line;
smooth = 0;
x = 188;
y = 0;
},
{
segmentType = line;
smooth = 0;
x = 188;
y = 1456;
},
{
segmentType = line;
smooth = 1;
x = 533;
y = 1456;
},
{
smooth = 0;
x = 771;
y = 1456;
},
{
smooth = 0;
x = 1114;
y = 1452;
},
{
segmentType = curve;
smooth = 1;
x = 1114;
y = 1074;
},
{
smooth = 0;
x = 1114;
y = 890;
},
{
smooth = 0;
x = 1035;
y = 762;
},
{
segmentType = curve;
smooth = 0;
x = 847;
y = 715;
},
{
segmentType = line;
smooth = 0;
x = 848;
y = 715;
},
{
smooth = 0;
x = 1012;
y = 662;
},
{
smooth = 0;
x = 1039;
y = 510;
},
{
segmentType = curve;
smooth = 1;
x = 1159;
y = 214;
},
{
segmentType = line;
smooth = 0;
x = 1246;
y = 0;
},
{
segmentType = line;
smooth = 0;
x = 1061;
y = 0;
},
{
segmentType = line;
smooth = 1;
x = 896;
y = 419;
},
{
smooth = 0;
x = 825;
y = 600;
},
{
smooth = 0;
x = 797;
y = 652;
},
{
segmentType = curve;
smooth = 1;
x = 619;
y = 652;
},
{
segmentType = line;
smooth = 0;
x = 360;
y = 652;
},
{
segmentType = line;
smooth = 0;
x = 360;
y = 0;
}
);
}
);
lib = {
};
name = R;
unicodes = (
);
width = 1341;
};
};
};
},
{
glyphname = S;
lastChange = "2016-08-22 09:31:58 +0000";
layers = (
{
layerId = "CAA31E91-2985-420A-82BA-6B4D8404D924";
paths = (
{
closed = 1;
nodes = (
"423 -10 OFFCURVE",
"504 65 OFFCURVE",
"508 177 CURVE SMOOTH",
"511 286 OFFCURVE",
"479 341 OFFCURVE",
"315 383 CURVE SMOOTH",
"243 401 LINE SMOOTH",
"143 427 OFFCURVE",
"115 459 OFFCURVE",
"115 543 CURVE SMOOTH",
"115 630 OFFCURVE",
"177 681 OFFCURVE",
"283 681 CURVE SMOOTH",
"386 681 OFFCURVE",
"437 639 OFFCURVE",
"452 624 CURVE",
"475 660 LINE",
"462 669 OFFCURVE",
"414 723 OFFCURVE",
"283 723 CURVE SMOOTH",
"145 723 OFFCURVE",
"63 655 OFFCURVE",
"63 543 CURVE SMOOTH",
"63 432 OFFCURVE",
"122 386 OFFCURVE",
"231 357 CURVE SMOOTH",
"304 338 LINE SMOOTH",
"430 305 OFFCURVE",
"462 271 OFFCURVE",
"458 176 CURVE SMOOTH",
"456 91 OFFCURVE",
"391 32 OFFCURVE",
"286 32 CURVE SMOOTH",
"173 32 OFFCURVE",
"117 85 OFFCURVE",
"94 105 CURVE",
"69 69 LINE",
"87 56 OFFCURVE",
"149 -10 OFFCURVE",
"286 -10 CURVE SMOOTH"
);
}
);
width = 552;
},
{
associatedMasterId = "CAA31E91-2985-420A-82BA-6B4D8404D924";
layerId = "44A5A423-D311-4731-B878-C00D886C35E7";
name = b;
paths = (
{
closed = 1;
nodes = (
"291 -11 CURVE SMOOTH",
"157 -11 OFFCURVE",
"77 59 OFFCURVE",
"68 69 CURVE",
"107 132 LINE",
"125 119 OFFCURVE",
"192 61 OFFCURVE",
"291 61 CURVE SMOOTH",
"389 61 OFFCURVE",
"438 100 OFFCURVE",
"438 176 CURVE SMOOTH",
"438 262 OFFCURVE",
"346 293 OFFCURVE",
"254 333 CURVE SMOOTH",
"163 372 OFFCURVE",
"71 418 OFFCURVE",
"71 535 CURVE SMOOTH",
"71 659 OFFCURVE",
"174 724 OFFCURVE",
"303 724 CURVE SMOOTH",
"435 724 OFFCURVE",
"493 665 OFFCURVE",
"505 652 CURVE",
"464 594 LINE",
"450 606 OFFCURVE",
"400 651 OFFCURVE",
"313 651 CURVE SMOOTH",
"233 651 OFFCURVE",
"160 620 OFFCURVE",
"160 540 CURVE SMOOTH",
"160 456 OFFCURVE",
"251 424 OFFCURVE",
"343 383 CURVE SMOOTH",
"435 343 OFFCURVE",
"526 294 OFFCURVE",
"526 178 CURVE SMOOTH",
"526 38 OFFCURVE",
"424 -11 OFFCURVE"
);
}
);
width = 591;
},
{
layerId = "5F288B98-6DDA-4BF8-A62B-164790BC7EB2";
paths = (
{
closed = 1;
nodes = (
"294 -11 CURVE SMOOTH",
"169 -11 OFFCURVE",
"81 49 OFFCURVE",
"62 69 CURVE",
"103 137 LINE",
"128 118 OFFCURVE",
"204 69 OFFCURVE",
"292 69 CURVE SMOOTH",
"388 69 OFFCURVE",
"439 110 OFFCURVE",
"439 183 CURVE SMOOTH",
"439 259 OFFCURVE",
"410 288 OFFCURVE",
"261 330 CURVE SMOOTH",
"135 367 OFFCURVE",
"60 419 OFFCURVE",
"60 536 CURVE SMOOTH",
"60 662 OFFCURVE",
"172 724 OFFCURVE",
"302 724 CURVE SMOOTH",
"434 724 OFFCURVE",
"494 673 OFFCURVE",
"518 650 CURVE",
"472 586 LINE",
"448 607 OFFCURVE",
"392 644 OFFCURVE",
"314 644 CURVE SMOOTH",
"229 644 OFFCURVE",
"159 612 OFFCURVE",
"159 539 CURVE SMOOTH",
"159 462 OFFCURVE",
"195 442 OFFCURVE",
"323 403 CURVE SMOOTH",
"489 354 OFFCURVE",
"536 295 OFFCURVE",
"536 184 CURVE SMOOTH",
"536 51 OFFCURVE",
"426 -11 OFFCURVE"
);
}
);
width = 587;
},
{
layerId = "197E4CC0-43FA-49AB-8E7D-89E0185E23DB";
paths = (
{
closed = 1;
nodes = (
"311 -11 CURVE SMOOTH",
"232 -11 OFFCURVE",
"126 1 OFFCURVE",
"54 71 CURVE",
"113 171 LINE",
"173 124 OFFCURVE",
"265 109 OFFCURVE",
"300 109 CURVE SMOOTH",
"383 109 OFFCURVE",
"418 138 OFFCURVE",
"418 200 CURVE SMOOTH",
"418 242 OFFCURVE",
"415 260 OFFCURVE",
"288 303 CURVE SMOOTH",
"127 355 OFFCURVE",
"58 402 OFFCURVE",
"58 528 CURVE SMOOTH",
"58 658 OFFCURVE",
"161 724 OFFCURVE",
"303 724 CURVE SMOOTH",
"434 724 OFFCURVE",
"489 714 OFFCURVE",
"569 638 CURVE",
"496 545 LINE",
"428 612 OFFCURVE",
"356 603 OFFCURVE",
"325 603 CURVE SMOOTH",
"260 603 OFFCURVE",
"208 583 OFFCURVE",
"208 535 CURVE SMOOTH",
"208 490 OFFCURVE",
"212 469 OFFCURVE",
"344 426 CURVE SMOOTH",
"512 372 OFFCURVE",
"569 328 OFFCURVE",
"569 196 CURVE SMOOTH",
"569 39 OFFCURVE",
"439 -11 OFFCURVE"
);
}
);
width = 630;
}
);
unicode = 0053;
userData = {
com.typemytype.robofont.layerData = {
b = {
anchors = (
);
components = (
);
contours = (
{
points = (
{
segmentType = curve;
smooth = 1;
x = 596;
y = -23;
},
{
smooth = 0;
x = 321;
y = -23;
},
{
smooth = 0;
x = 158;
y = 120;
},
{
segmentType = curve;
smooth = 0;
x = 140;
y = 141;
},
{
segmentType = line;
smooth = 0;
x = 219;
y = 271;
},
{
smooth = 0;
x = 256;
y = 243;
},
{
smooth = 0;
x = 393;
y = 125;
},
{
segmentType = curve;
smooth = 1;
x = 595;
y = 125;
},
{
smooth = 0;
x = 797;
y = 125;
},
{
smooth = 0;
x = 898;
y = 204;
},
{
segmentType = curve;
smooth = 1;
x = 898;
y = 360;
},
{
smooth = 0;
x = 898;
y = 536;
},
{
smooth = 0;
x = 709;
y = 601;
},
{
segmentType = curve;
smooth = 1;
x = 521;
y = 681;
},
{
smooth = 0;
x = 333;
y = 761;
},
{
smooth = 0;
x = 145;
y = 857;
},
{
segmentType = curve;
smooth = 1;
x = 145;
y = 1095;
},
{
smooth = 0;
x = 145;
y = 1350;
},
{
smooth = 0;
x = 357;
y = 1483;
},
{
segmentType = curve;
smooth = 1;
x = 620;
y = 1483;
},
{
smooth = 0;
x = 891;
y = 1483;
},
{
smooth = 0;
x = 1009;
y = 1362;
},
{
segmentType = curve;
smooth = 0;
x = 1034;
y = 1335;
},
{
segmentType = line;
smooth = 0;
x = 951;
y = 1217;
},
{
smooth = 0;
x = 921;
y = 1242;
},
{
smooth = 0;
x = 819;
y = 1334;
},
{
segmentType = curve;
smooth = 1;
x = 640;
y = 1334;
},
{
smooth = 0;
x = 478;
y = 1334;
},
{
smooth = 0;
x = 328;
y = 1270;
},
{
segmentType = curve;
smooth = 1;
x = 328;
y = 1105;
},
{
smooth = 0;
x = 328;
y = 934;
},
{
smooth = 0;
x = 515;
y = 868;
},
{
segmentType = curve;
smooth = 1;
x = 703;
y = 785;
},
{
smooth = 0;
x = 891;
y = 702;
},
{
smooth = 0;
x = 1078;
y = 602;
},
{
segmentType = curve;
smooth = 1;
x = 1078;
y = 364;
},
{
smooth = 0;
x = 1078;
y = 78;
},
{
smooth = 0;
x = 868;
y = -23;
}
);
}
);
lib = {
};
name = S;
unicodes = (
);
width = 1211;
};
};
};
},
{
glyphname = T;
lastChange = "2016-08-22 09:31:58 +0000";
layers = (
{
layerId = "CAA31E91-2985-420A-82BA-6B4D8404D924";
paths = (
{
closed = 1;
nodes = (
"294 0 LINE",
"294 669 LINE",
"531 669 LINE",
"531 711 LINE",
"4 711 LINE",
"4 669 LINE",
"241 669 LINE",
"241 0 LINE"
);
}
);
width = 536;
},
{
layerId = "5F288B98-6DDA-4BF8-A62B-164790BC7EB2";
paths = (
{
closed = 1;
nodes = (
"232 0 LINE",
"232 631 LINE",
"5 631 LINE",
"5 711 LINE",
"554 711 LINE",
"554 631 LINE",
"325 631 LINE",
"325 0 LINE"
);
}
);
width = 559;
},
{
layerId = "197E4CC0-43FA-49AB-8E7D-89E0185E23DB";
paths = (
{
closed = 1;
nodes = (
"221 0 LINE",
"221 591 LINE",
"5 591 LINE",
"5 711 LINE",
"581 711 LINE",
"581 591 LINE",
"362 591 LINE",
"362 0 LINE"
);
}
);
width = 587;
}
);
unicode = 0054;
},
{
glyphname = Tbar;
lastChange = "2016-08-22 09:22:14 +0000";
layers = (
{
components = (
{
name = T;
},
{
name = macron;
transform = "{1, 0, 0, 1, 108, -245}";
}
);
layerId = "CAA31E91-2985-420A-82BA-6B4D8404D924";
width = 536;
},
{
components = (
{
name = T;
}
);
layerId = "5F288B98-6DDA-4BF8-A62B-164790BC7EB2";
paths = (
{
closed = 1;
nodes = (
"80 300 LINE",
"80 372 LINE",
"471 372 LINE",
"471 300 LINE"
);
}
);
width = 559;
},
{
components = (
{
name = T;
}
);
layerId = "197E4CC0-43FA-49AB-8E7D-89E0185E23DB";
paths = (
{
closed = 1;
nodes = (
"178 315 LINE",
"178 409 LINE",
"397 409 LINE",
"397 315 LINE"
);
}
);
width = 587;
}
);
unicode = 0166;
},
{
glyphname = U;
lastChange = "2016-08-22 09:31:58 +0000";
layers = (
{
layerId = "CAA31E91-2985-420A-82BA-6B4D8404D924";
paths = (
{
closed = 1;
nodes = (
"534 -10 OFFCURVE",
"627 80 OFFCURVE",
"629 251 CURVE SMOOTH",
"629 711 LINE",
"576 711 LINE",
"576 247 LINE SMOOTH",
"576 106 OFFCURVE",
"500 32 OFFCURVE",
"357 32 CURVE SMOOTH",
"214 32 OFFCURVE",
"139 106 OFFCURVE",
"139 247 CURVE SMOOTH",
"139 711 LINE",
"86 711 LINE",
"86 251 LINE SMOOTH",
"86 80 OFFCURVE",
"180 -10 OFFCURVE",
"357 -10 CURVE SMOOTH"
);
}
);
width = 723;
},
{
associatedMasterId = "CAA31E91-2985-420A-82BA-6B4D8404D924";
layerId = "4F4F4805-2179-41B7-8688-94677D588AD1";
name = b;
width = 731;
},
{
layerId = "5F288B98-6DDA-4BF8-A62B-164790BC7EB2";
paths = (
{
closed = 1;
nodes = (
"362 -11 CURVE SMOOTH",
"151 -11 OFFCURVE",
"83 110 OFFCURVE",
"83 272 CURVE SMOOTH",
"83 711 LINE",
"177 711 LINE",
"177 273 LINE SMOOTH",
"177 136 OFFCURVE",
"234 69 OFFCURVE",
"365 69 CURVE SMOOTH",
"488 69 OFFCURVE",
"553 134 OFFCURVE",
"553 269 CURVE SMOOTH",
"553 711 LINE",
"647 711 LINE",
"647 274 LINE",
"646 102 OFFCURVE",
"562 -11 OFFCURVE"
);
}
);
width = 730;
},
{
layerId = "197E4CC0-43FA-49AB-8E7D-89E0185E23DB";
paths = (
{
closed = 1;
nodes = (
"373 -11 CURVE SMOOTH",
"124 -11 OFFCURVE",
"78 143 OFFCURVE",
"78 303 CURVE SMOOTH",
"78 711 LINE",
"218 711 LINE",
"218 295 LINE SMOOTH",
"218 138 OFFCURVE",
"301 109 OFFCURVE",
"371 109 CURVE SMOOTH",
"448 109 OFFCURVE",
"521 139 OFFCURVE",
"521 298 CURVE SMOOTH",
"521 711 LINE",
"663 711 LINE",
"663 301 LINE SMOOTH",
"664 150 OFFCURVE",
"632 -11 OFFCURVE"
);
}
);
width = 740;
}
);
unicode = 0055;
userData = {
com.typemytype.robofont.layerData = {
b = {
anchors = (
);
components = (
);
contours = (
);
lib = {
};
name = U;
unicodes = (
);
width = 1496.9000;
};
};
};
},
{
glyphname = V;
lastChange = "2016-08-22 09:22:14 +0000";
layers = (
{
layerId = "CAA31E91-2985-420A-82BA-6B4D8404D924";
paths = (
{
closed = 1;
nodes = (
"370 0 LINE",
"628 711 LINE",
"574 711 LINE",
"395 211 LINE",
"338 44 LINE",
"279 212 LINE",
"100 711 LINE",
"46 711 LINE",
"307 0 LINE"
);
}
);
width = 674;
},
{
associatedMasterId = "CAA31E91-2985-420A-82BA-6B4D8404D924";
layerId = "8847275B-BD82-4E93-976E-DCAACE5B25F7";
name = b;
width = 645;
},
{
layerId = "5F288B98-6DDA-4BF8-A62B-164790BC7EB2";
paths = (
{
closed = 1;
nodes = (
"272 0 LINE",
"6 711 LINE",
"111 711 LINE",
"294 193 LINE",
"323 110 LINE",
"353 193 LINE",
"537 711 LINE",
"635 711 LINE",
"370 0 LINE"
);
}
);
width = 641;
},
{
layerId = "197E4CC0-43FA-49AB-8E7D-89E0185E23DB";
paths = (
{
closed = 1;
nodes = (
"283 0 LINE",
"9 711 LINE",
"168 711 LINE",
"367 137 LINE",
"367 137 OFFCURVE",
"333 137 OFFCURVE",
"333 137 CURVE",
"543 711 LINE",
"692 711 LINE",
"419 0 LINE"
);
}
);
width = 702;
}
);
unicode = 0056;
userData = {
com.typemytype.robofont.layerData = {
b = {
anchors = (
);
components = (
);
contours = (
);
lib = {
};
name = V;
unicodes = (
);
width = 1320.1500;
};
};
};
},
{
glyphname = W;
lastChange = "2016-08-22 09:31:58 +0000";
layers = (
{
layerId = "CAA31E91-2985-420A-82BA-6B4D8404D924";
paths = (
{
closed = 1;
nodes = (
"313 0 LINE",
"502 645 LINE",
"688 0 LINE",
"750 0 LINE",
"927 711 LINE",
"874 711 LINE",
"730 104 LINE",
"718 57 LINE",
"706 104 LINE",
"528 711 LINE",
"475 711 LINE",
"297 104 LINE",
"284 50 LINE",
"275 104 LINE",
"123 711 LINE",
"67 711 LINE",
"251 0 LINE"
);
}
);
width = 995;
},
{
associatedMasterId = "CAA31E91-2985-420A-82BA-6B4D8404D924";
layerId = "DE43BF46-C8CD-4BE6-8A6A-1FECF08BBA5B";
name = b;
width = 971;
},
{
layerId = "5F288B98-6DDA-4BF8-A62B-164790BC7EB2";
paths = (
{
closed = 1;
nodes = (
"205 0 LINE",
"10 711 LINE",
"111 711 LINE",
"237 215 LINE",
"262 105 LINE",
"290 211 LINE",
"440 711 LINE",
"534 711 LINE",
"684 211 LINE",
"713 107 LINE",
"736 207 LINE",
"860 711 LINE",
"956 711 LINE",
"767 0 LINE",
"658 0 LINE",
"485 586 LINE",
"313 0 LINE"
);
}
);
width = 966;
},
{
layerId = "197E4CC0-43FA-49AB-8E7D-89E0185E23DB";
paths = (
{
closed = 1;
nodes = (
"211 0 LINE",
"4 711 LINE",
"152 711 LINE",
"312 118 LINE",
"312 118 OFFCURVE",
"278 118 OFFCURVE",
"278 118 CURVE",
"464 711 LINE",
"596 711 LINE",
"788 118 LINE",
"788 118 OFFCURVE",
"754 117 OFFCURVE",
"754 117 CURVE",
"905 711 LINE",
"1052 711 LINE",
"849 0 LINE",
"688 0 LINE",
"526 513 LINE",
"370 0 LINE"
);
}
);
width = 1056;
}
);
unicode = 0057;
userData = {
com.typemytype.robofont.layerData = {
b = {
anchors = (
);
components = (
);
contours = (
);
lib = {
};
name = W;
unicodes = (
);
width = 1988.8500;
};
};
};
},
{
glyphname = X;
lastChange = "2016-08-22 09:22:14 +0000";
layers = (
{
layerId = "CAA31E91-2985-420A-82BA-6B4D8404D924";
paths = (
{
closed = 1;
nodes = (
"114 0 LINE",
"329 324 LINE",
"531 0 LINE",
"584 0 LINE",
"356 363 LINE",
"576 711 LINE",
"521 711 LINE",
"326 397 LINE",
"123 711 LINE",
"64 711 LINE",
"298 361 LINE",
"59 0 LINE"
);
}
);
width = 643;
},
{
associatedMasterId = "CAA31E91-2985-420A-82BA-6B4D8404D924";
layerId = "96B1E437-93FA-46B1-8ADA-088FE09DE3C3";
name = b;
width = 614;
},
{
layerId = "5F288B98-6DDA-4BF8-A62B-164790BC7EB2";
paths = (
{
closed = 1;
nodes = (
"495 0 LINE",
"302 288 LINE",
"110 0 LINE",
"2 0 LINE",
"249 362 LINE",
"10 711 LINE",
"123 711 LINE",
"305 439 LINE",
"489 711 LINE",
"594 711 LINE",
"358 366 LINE",
"605 0 LINE"
);
}
);
width = 607;
},
{
layerId = "197E4CC0-43FA-49AB-8E7D-89E0185E23DB";
paths = (
{
closed = 1;
nodes = (
"534 0 LINE",
"366 245 LINE",
"188 0 LINE",
"17 0 LINE",
"286 358 LINE",
"41 711 LINE",
"219 711 LINE",
"376 479 LINE",
"546 711 LINE",
"711 711 LINE",
"457 364 LINE",
"712 0 LINE"
);
}
);
width = 731;
}
);
unicode = 0058;
userData = {
com.typemytype.robofont.layerData = {
b = {
anchors = (
);
components = (
);
contours = (
);
lib = {
};
name = X;
unicodes = (
);
width = 1257.7000;
};
};
};
},
{
glyphname = Y;
lastChange = "2016-08-22 09:31:58 +0000";
layers = (
{
layerId = "CAA31E91-2985-420A-82BA-6B4D8404D924";
paths = (
{
closed = 1;
nodes = (
"326 0 LINE",
"326 290 LINE",
"564 711 LINE",
"513 711 LINE",
"301 333 LINE",
"92 711 LINE",
"39 711 LINE",
"273 289 LINE",
"273 0 LINE"
);
}
);
width = 603;
},
{
associatedMasterId = "CAA31E91-2985-420A-82BA-6B4D8404D924";
layerId = "6683307B-0407-4D7B-807F-E7F7AC49C9A0";
name = b;
width = 598;
},
{
layerId = "5F288B98-6DDA-4BF8-A62B-164790BC7EB2";
paths = (
{
closed = 1;
nodes = (
"249 0 LINE",
"249 281 LINE",
"4 711 LINE",
"107 711 LINE",
"297 362 LINE",
"488 711 LINE",
"592 711 LINE",
"342 282 LINE",
"342 0 LINE"
);
}
);
width = 596;
},
{
layerId = "197E4CC0-43FA-49AB-8E7D-89E0185E23DB";
paths = (
{
closed = 1;
nodes = (
"247 0 LINE",
"247 271 LINE",
"-11 711 LINE",
"150 711 LINE",
"319 397 LINE",
"486 711 LINE",
"652 711 LINE",
"387 272 LINE",
"387 0 LINE"
);
}
);
width = 642;
}
);
unicode = 0059;
userData = {
com.typemytype.robofont.layerData = {
b = {
anchors = (
);
components = (
);
contours = (
);
lib = {
};
name = Y;
unicodes = (
);
width = 1225.4500;
};
};
};
},
{
glyphname = Z;
lastChange = "2016-08-22 09:31:58 +0000";
layers = (
{
layerId = "CAA31E91-2985-420A-82BA-6B4D8404D924";
paths = (
{
closed = 1;
nodes = (
"521 0 LINE",
"521 42 LINE",
"127 42 LINE",
"522 683 LINE",
"522 711 LINE",
"83 711 LINE",
"83 669 LINE",
"459 669 LINE",
"65 30 LINE",
"65 0 LINE"
);
}
);
width = 577;
},
{
associatedMasterId = "CAA31E91-2985-420A-82BA-6B4D8404D924";
layerId = "59285BDD-4C1E-43F6-8360-5080A139E845";
name = b;
width = 576;
},
{
layerId = "5F288B98-6DDA-4BF8-A62B-164790BC7EB2";
paths = (
{
closed = 1;
nodes = (
"45 0 LINE",
"45 50 LINE",
"405 631 LINE",
"60 631 LINE",
"60 711 LINE",
"532 711 LINE",
"532 663 LINE",
"170 80 LINE",
"529 80 LINE",
"529 0 LINE"
);
}
);
width = 575;
},
{
layerId = "197E4CC0-43FA-49AB-8E7D-89E0185E23DB";
paths = (
{
closed = 1;
nodes = (
"30 0 LINE",
"30 76 LINE",
"353 591 LINE",
"42 591 LINE",
"42 711 LINE",
"548 711 LINE",
"548 637 LINE",
"223 120 LINE",
"549 120 LINE",
"549 0 LINE"
);
}
);
width = 593;
}
);
unicode = 005A;
userData = {
com.typemytype.robofont.layerData = {
b = {
anchors = (
);
components = (
);
contours = (
);
lib = {
};
name = Z;
unicodes = (
);
width = 1179.4500;
};
};
};
},
{
glyphname = a;
lastChange = "2016-08-22 09:31:58 +0000";
layers = (
{
layerId = "CAA31E91-2985-420A-82BA-6B4D8404D924";
paths = (
{
closed = 1;
nodes = (
"372 -10 OFFCURVE",
"433 38 OFFCURVE",
"462 105 CURVE",
"462 0 LINE",
"510 0 LINE",
"510 501 LINE",
"462 501 LINE",
"462 403 LINE",
"435 467 OFFCURVE",
"370 514 OFFCURVE",
"284 514 CURVE SMOOTH",
"140 514 OFFCURVE",
"47 413 OFFCURVE",
"47 256 CURVE SMOOTH",
"47 94 OFFCURVE",
"139 -10 OFFCURVE",
"282 -10 CURVE SMOOTH"
);
},
{
closed = 1;
nodes = (
"169 30 OFFCURVE",
"96 118 OFFCURVE",
"96 256 CURVE SMOOTH",
"96 388 OFFCURVE",
"169 474 OFFCURVE",
"284 474 CURVE SMOOTH",
"393 474 OFFCURVE",
"462 388 OFFCURVE",
"462 256 CURVE SMOOTH",
"462 118 OFFCURVE",
"397 30 OFFCURVE",
"284 30 CURVE SMOOTH"
);
}
);
width = 612;
},
{
associatedMasterId = "CAA31E91-2985-420A-82BA-6B4D8404D924";
layerId = "7EADF223-CEC2-4E8E-8EC9-D1149CDC82AF";
name = b;
paths = (
{
closed = 1;
nodes = (
"291 -11 CURVE SMOOTH",
"128 -11 OFFCURVE",
"49 108 OFFCURVE",
"49 253 CURVE SMOOTH",
"49 402 OFFCURVE",
"140 514 OFFCURVE",
"294 514 CURVE SMOOTH",
"398 514 OFFCURVE",
"442 441 OFFCURVE",
"453 414 CURVE",
"453 501 LINE",
"533 501 LINE",
"533 0 LINE",
"453 0 LINE",
"453 90 LINE",
"430 40 OFFCURVE",
"375 -11 OFFCURVE"
);
},
{
closed = 1;
nodes = (
"297 448 CURVE SMOOTH",
"175 448 OFFCURVE",
"132 354 OFFCURVE",
"132 252 CURVE SMOOTH",
"132 150 OFFCURVE",
"178 55 OFFCURVE",
"297 55 CURVE SMOOTH",
"397 55 OFFCURVE",
"456 135 OFFCURVE",
"456 257 CURVE SMOOTH",
"456 358 OFFCURVE",
"403 448 OFFCURVE"
);
}
);
width = 619;
},
{
layerId = "5F288B98-6DDA-4BF8-A62B-164790BC7EB2";
paths = (
{
closed = 1;
nodes = (
"379 -11 OFFCURVE",
"438 41 OFFCURVE",
"465 110 CURVE",
"451 116 LINE",
"451 0 LINE",
"541 0 LINE",
"541 501 LINE",
"451 501 LINE",
"451 400 LINE",
"467 407 LINE",
"441 449 OFFCURVE",
"398 514 OFFCURVE",
"299 514 CURVE SMOOTH",
"138 514 OFFCURVE",
"50 397 OFFCURVE",
"50 251 CURVE SMOOTH",
"50 110 OFFCURVE",
"128 -11 OFFCURVE",
"294 -11 CURVE SMOOTH"
);
},
{
closed = 1;
nodes = (
"188 62 OFFCURVE",
"142 152 OFFCURVE",
"142 252 CURVE SMOOTH",
"142 353 OFFCURVE",
"186 441 OFFCURVE",
"301 441 CURVE SMOOTH",
"404 441 OFFCURVE",
"455 356 OFFCURVE",
"455 255 CURVE SMOOTH",
"455 141 OFFCURVE",
"401 62 OFFCURVE",
"302 62 CURVE SMOOTH"
);
}
);
width = 622;
},
{
layerId = "197E4CC0-43FA-49AB-8E7D-89E0185E23DB";
paths = (
{
closed = 1;
nodes = (
"403 -11 OFFCURVE",
"452 63 OFFCURVE",
"459 122 CURVE",
"438 122 LINE",
"438 0 LINE",
"577 0 LINE",
"577 501 LINE",
"443 501 LINE",
"443 389 LINE",
"468 389 LINE",
"452 470 OFFCURVE",
"381 514 OFFCURVE",
"306 514 CURVE SMOOTH",
"134 514 OFFCURVE",
"56 371 OFFCURVE",
"56 241 CURVE SMOOTH",
"56 123 OFFCURVE",
"135 -11 OFFCURVE",
"302 -11 CURVE SMOOTH"
);
},
{
closed = 1;
nodes = (
"236 100 OFFCURVE",
"191 158 OFFCURVE",
"191 251 CURVE SMOOTH",
"191 348 OFFCURVE",
"239 402 OFFCURVE",
"319 402 CURVE SMOOTH",
"409 402 OFFCURVE",
"447 344 OFFCURVE",
"447 248 CURVE SMOOTH",
"447 168 OFFCURVE",
"422 100 OFFCURVE",
"322 100 CURVE SMOOTH"
);
}
);
width = 636;
}
);
unicode = 0061;
userData = {
com.typemytype.robofont.layerData = {
b = {
anchors = (
);
components = (
);
contours = (
{
points = (
{
segmentType = curve;
smooth = 1;
x = 595;
y = -22;
},
{
smooth = 0;
x = 262;
y = -22;
},
{
smooth = 0;
x = 100;
y = 221;
},
{
segmentType = curve;
smooth = 1;
x = 100;
y = 518;
},
{
smooth = 0;
x = 100;
y = 824;
},
{
smooth = 0;
x = 287;
y = 1052;
},
{
segmentType = curve;
smooth = 1;
x = 603;
y = 1052;
},
{
smooth = 0;
x = 816;
y = 1052;
},
{
smooth = 0;
x = 905;
y = 903;
},
{
segmentType = curve;
smooth = 0;
x = 928;
y = 847;
},
{
segmentType = line;
smooth = 0;
x = 928;
y = 1026;
},
{
segmentType = line;
smooth = 0;
x = 1092;
y = 1026;
},
{
segmentType = line;
smooth = 0;
x = 1092;
y = 0;
},
{
segmentType = line;
smooth = 0;
x = 928;
y = 0;
},
{
segmentType = line;
smooth = 0;
x = 928;
y = 185;
},
{
smooth = 0;
x = 881;
y = 82;
},
{
smooth = 0;
x = 769;
y = -22;
}
);
},
{
points = (
{
segmentType = curve;
smooth = 1;
x = 608;
y = 918;
},
{
smooth = 0;
x = 359;
y = 918;
},
{
smooth = 0;
x = 270;
y = 725;
},
{
segmentType = curve;
smooth = 1;
x = 270;
y = 516;
},
{
smooth = 0;
x = 270;
y = 308;
},
{
smooth = 0;
x = 364;
y = 112;
},
{
segmentType = curve;
smooth = 1;
x = 609;
y = 112;
},
{
smooth = 0;
x = 813;
y = 112;
},
{
smooth = 0;
x = 934;
y = 277;
},
{
segmentType = curve;
smooth = 1;
x = 934;
y = 526;
},
{
smooth = 0;
x = 934;
y = 734;
},
{
smooth = 0;
x = 826;
y = 918;
}
);
}
);
lib = {
};
name = a;
unicodes = (
);
width = 1268;
};
};
};
},
{
glyphname = ae;
lastChange = "2016-08-22 09:31:58 +0000";
layers = (
{
layerId = "CAA31E91-2985-420A-82BA-6B4D8404D924";
paths = (
{
closed = 1;
nodes = (
"358 -10 OFFCURVE",
"422 67 OFFCURVE",
"441 136 CURVE",
"467 51 OFFCURVE",
"541 -10 OFFCURVE",
"641 -10 CURVE SMOOTH",
"753 -10 OFFCURVE",
"819 53 OFFCURVE",
"819 53 CURVE",
"802 86 LINE",
"802 86 OFFCURVE",
"740 30 OFFCURVE",
"641 30 CURVE SMOOTH",
"518 30 OFFCURVE",
"470 132 OFFCURVE",
"470 231 CURVE SMOOTH",
"470 249 LINE",
"843 249 LINE",
"843 257 LINE SMOOTH",
"843 426 OFFCURVE",
"758 514 OFFCURVE",
"638 514 CURVE SMOOTH",
"546 514 OFFCURVE",
"473 456 OFFCURVE",
"443 375 CURVE",
"426 459 OFFCURVE",
"356 514 OFFCURVE",
"259 514 CURVE SMOOTH",
"148 514 OFFCURVE",
"87 479 OFFCURVE",
"70 471 CURVE",
"87 432 LINE",
"111 445 OFFCURVE",
"167 474 OFFCURVE",
"259 474 CURVE SMOOTH",
"358 474 OFFCURVE",
"413 391 OFFCURVE",
"413 282 CURVE",
"314 282 LINE SMOOTH",
"142 282 OFFCURVE",
"49 263 OFFCURVE",
"49 134 CURVE SMOOTH",
"49 44 OFFCURVE",
"123 -10 OFFCURVE",
"230 -10 CURVE SMOOTH"
);
},
{
closed = 1;
nodes = (
"159 30 OFFCURVE",
"96 60 OFFCURVE",
"96 137 CURVE SMOOTH",
"96 230 OFFCURVE",
"149 248 OFFCURVE",
"306 248 CURVE SMOOTH",
"415 248 LINE",
"416 122 OFFCURVE",
"356 30 OFFCURVE",
"230 30 CURVE SMOOTH"
);
},
{
closed = 1;
nodes = (
"470 371 OFFCURVE",
"533 474 OFFCURVE",
"638 474 CURVE SMOOTH",
"753 474 OFFCURVE",
"798 372 OFFCURVE",
"800 297 CURVE SMOOTH",
"801 282 LINE",
"470 282 LINE"
);
}
);
width = 884;
},
{
associatedMasterId = "CAA31E91-2985-420A-82BA-6B4D8404D924";
components = (
{
name = e;
transform = "{1, 0, 0, 1, 313, 0}";
}
);
layerId = "95A7A284-84A8-4A1D-B823-99B91ED243F3";
name = b;
width = 874;
},
{
layerId = "5F288B98-6DDA-4BF8-A62B-164790BC7EB2";
paths = (
{
closed = 1;
nodes = (
"221 -13 CURVE SMOOTH",
"321 -13 OFFCURVE",
"391 40 OFFCURVE",
"427 108 CURVE",
"460 39 OFFCURVE",
"531 -8 OFFCURVE",
"612 -11 CURVE SMOOTH",
"742 -15 OFFCURVE",
"808 50 OFFCURVE",
"808 50 CURVE",
"781 116 LINE",
"781 116 OFFCURVE",
"714 56 OFFCURVE",
"615 63 CURVE SMOOTH",
"517 70 OFFCURVE",
"476 135 OFFCURVE",
"474 224 CURVE",
"474 237 LINE",
"824 237 LINE",
"824 237 OFFCURVE",
"824 252 OFFCURVE",
"824 255 CURVE SMOOTH",
"824 409 OFFCURVE",
"749 518 OFFCURVE",
"605 514 CURVE SMOOTH",
"533 512 OFFCURVE",
"472 474 OFFCURVE",
"437 411 CURVE",
"411 480 OFFCURVE",
"336 514 OFFCURVE",
"270 514 CURVE SMOOTH",
"163 514 OFFCURVE",
"79 469 OFFCURVE",
"73 465 CURVE",
"100 401 LINE",
"116 408 OFFCURVE",
"192 441 OFFCURVE",
"260 441 CURVE SMOOTH",
"341 441 OFFCURVE",
"383 384 OFFCURVE",
"383 301 CURVE",
"367 301 LINE SMOOTH",
"183 301 OFFCURVE",
"39 286 OFFCURVE",
"39 139 CURVE SMOOTH",
"39 44 OFFCURVE",
"115 -13 OFFCURVE"
);
},
{
closed = 1;
nodes = (
"233 61 CURVE SMOOTH",
"178 61 OFFCURVE",
"129 84 OFFCURVE",
"129 143 CURVE SMOOTH",
"129 218 OFFCURVE",
"217 237 OFFCURVE",
"309 237 CURVE SMOOTH",
"384 237 LINE",
"383 149 OFFCURVE",
"341 61 OFFCURVE"
);
},
{
closed = 1;
nodes = (
"475 300 LINE",
"484 375 OFFCURVE",
"528 441 OFFCURVE",
"613 441 CURVE SMOOTH",
"690 441 OFFCURVE",
"735 388 OFFCURVE",
"744 307 CURVE SMOOTH",
"745 300 LINE"
);
}
);
width = 875;
},
{
layerId = "197E4CC0-43FA-49AB-8E7D-89E0185E23DB";
paths = (
{
closed = 1;
nodes = (
"239 -9 CURVE SMOOTH",
"292 -9 OFFCURVE",
"379 17 OFFCURVE",
"415 91 CURVE",
"455 21 OFFCURVE",
"521 -13 OFFCURVE",
"616 -11 CURVE SMOOTH",
"711 -7 OFFCURVE",
"802 54 OFFCURVE",
"802 54 CURVE",
"765 155 LINE",
"765 155 OFFCURVE",
"688 106 OFFCURVE",
"619 100 CURVE SMOOTH",
"550 93 OFFCURVE",
"493 114 OFFCURVE",
"480 216 CURVE",
"480 223 LINE",
"799 223 LINE",
"799 223 OFFCURVE",
"804 235 OFFCURVE",
"804 253 CURVE SMOOTH",
"804 388 OFFCURVE",
"741 510 OFFCURVE",
"588 514 CURVE SMOOTH",
"515 516 OFFCURVE",
"470 488 OFFCURVE",
"428 448 CURVE",
"393 496 OFFCURVE",
"319 514 OFFCURVE",
"280 514 CURVE SMOOTH",
"163 514 OFFCURVE",
"109 477 OFFCURVE",
"77 457 CURVE",
"116 368 LINE",
"213 415 OFFCURVE",
"234 407 OFFCURVE",
"244 407 CURVE SMOOTH",
"311 407 OFFCURVE",
"348 367 OFFCURVE",
"348 317 CURVE",
"326 317 LINE SMOOTH",
"105 317 OFFCURVE",
"34 268 OFFCURVE",
"34 146 CURVE SMOOTH",
"34 42 OFFCURVE",
"114 -9 OFFCURVE"
);
},
{
closed = 1;
nodes = (
"238 100 CURVE SMOOTH",
"200 100 OFFCURVE",
"166 114 OFFCURVE",
"166 151 CURVE SMOOTH",
"166 204 OFFCURVE",
"239 223 OFFCURVE",
"313 223 CURVE SMOOTH",
"347 223 LINE",
"345 169 OFFCURVE",
"321 100 OFFCURVE"
);
},
{
closed = 1;
nodes = (
"481 314 LINE",
"501 372 OFFCURVE",
"536 409 OFFCURVE",
"592 409 CURVE SMOOTH",
"623 409 OFFCURVE",
"675 382 OFFCURVE",
"683 315 CURVE SMOOTH",
"683 314 LINE"
);
}
);
width = 864;
}
);
unicode = 00E6;
userData = {
com.typemytype.robofont.layerData = {
b = {
anchors = (
);
components = (
{
baseGlyph = e;
transformation = (
1,
0,
0,
1,
642,
0
);
}
);
contours = (
);
lib = {
};
name = ae;
unicodes = (
);
width = 1790.0500;
};
};
};
},
{
glyphname = b;
lastChange = "2016-08-22 09:31:58 +0000";
layers = (
{
layerId = "CAA31E91-2985-420A-82BA-6B4D8404D924";
paths = (
{
closed = 1;
nodes = (
"478 -10 OFFCURVE",
"566 93 OFFCURVE",
"566 254 CURVE SMOOTH",
"566 412 OFFCURVE",
"478 514 OFFCURVE",
"340 514 CURVE SMOOTH",
"251 514 OFFCURVE",
"174 465 OFFCURVE",
"144 390 CURVE",
"144 740 LINE",
"96 740 LINE",
"96 131 LINE SMOOTH",
"96 79 OFFCURVE",
"92 1 OFFCURVE",
"92 0 CURVE",
"141 0 LINE",
"143 117 LINE",
"171 40 OFFCURVE",
"248 -10 OFFCURVE",
"340 -10 CURVE SMOOTH"
);
},
{
closed = 1;
nodes = (
"220 30 OFFCURVE",
"144 118 OFFCURVE",
"144 254 CURVE SMOOTH",
"144 388 OFFCURVE",
"220 474 OFFCURVE",
"340 474 CURVE SMOOTH",
"454 474 OFFCURVE",
"519 388 OFFCURVE",
"519 254 CURVE SMOOTH",
"519 118 OFFCURVE",
"454 30 OFFCURVE",
"340 30 CURVE SMOOTH"
);
}
);
width = 615;
},
{
associatedMasterId = "CAA31E91-2985-420A-82BA-6B4D8404D924";
layerId = "438286EF-29C0-40A1-9022-26F308C812BE";
name = b;
width = 620;
},
{
layerId = "5F288B98-6DDA-4BF8-A62B-164790BC7EB2";
paths = (
{
closed = 1;
nodes = (
"346 -11 CURVE SMOOTH",
"258 -11 OFFCURVE",
"198 36 OFFCURVE",
"174 85 CURVE",
"173 0 LINE",
"82 0 LINE",
"83 29 OFFCURVE",
"85 117 OFFCURVE",
"85 132 CURVE SMOOTH",
"85 725 LINE",
"175 725 LINE",
"175 418 LINE",
"200 467 OFFCURVE",
"260 514 OFFCURVE",
"346 514 CURVE SMOOTH",
"482 514 OFFCURVE",
"572 416 OFFCURVE",
"572 260 CURVE SMOOTH",
"572 92 OFFCURVE",
"478 -11 OFFCURVE"
);
},
{
closed = 1;
nodes = (
"335 62 CURVE SMOOTH",
"429 62 OFFCURVE",
"479 137 OFFCURVE",
"479 260 CURVE SMOOTH",
"479 366 OFFCURVE",
"423 441 OFFCURVE",
"331 441 CURVE SMOOTH",
"234 441 OFFCURVE",
"173 365 OFFCURVE",
"173 251 CURVE SMOOTH",
"173 137 OFFCURVE",
"235 62 OFFCURVE"
);
}
);
width = 619;
},
{
layerId = "197E4CC0-43FA-49AB-8E7D-89E0185E23DB";
paths = (
{
closed = 1;
nodes = (
"342 -11 CURVE SMOOTH",
"271 -11 OFFCURVE",
"221 24 OFFCURVE",
"203 64 CURVE",
"204 0 LINE",
"62 0 LINE",
"65 134 LINE",
"65 705 LINE",
"204 705 LINE",
"204 429 LINE",
"208 439 OFFCURVE",
"248 514 OFFCURVE",
"365 514 CURVE SMOOTH",
"502 514 OFFCURVE",
"581 397 OFFCURVE",
"581 250 CURVE SMOOTH",
"581 98 OFFCURVE",
"466 -11 OFFCURVE"
);
},
{
closed = 1;
nodes = (
"314 100 CURVE SMOOTH",
"406 100 OFFCURVE",
"436 182 OFFCURVE",
"436 244 CURVE SMOOTH",
"436 327 OFFCURVE",
"403 402 OFFCURVE",
"321 402 CURVE SMOOTH",
"238 402 OFFCURVE",
"193 342 OFFCURVE",
"193 251 CURVE SMOOTH",
"193 167 OFFCURVE",
"228 100 OFFCURVE"
);
}
);
width = 636;
}
);
unicode = 0062;
userData = {
com.typemytype.robofont.layerData = {
b = {
anchors = (
);
components = (
);
contours = (
);
lib = {
};
name = b;
unicodes = (
);
width = 1270.1000;
};
};
};
},
{
glyphname = c;
lastChange = "2016-08-22 09:31:58 +0000";
layers = (
{
layerId = "CAA31E91-2985-420A-82BA-6B4D8404D924";
paths = (
{
closed = 1;
nodes = (
"367 -10 OFFCURVE",
"434 13 OFFCURVE",
"471 49 CURVE",
"454 82 LINE",
"414 50 OFFCURVE",
"362 30 OFFCURVE",
"299 30 CURVE SMOOTH",
"175 30 OFFCURVE",
"96 114 OFFCURVE",
"96 245 CURVE SMOOTH",
"96 384 OFFCURVE",
"177 474 OFFCURVE",
"304 474 CURVE SMOOTH",
"360 474 OFFCURVE",
"408 458 OFFCURVE",
"439 430 CURVE",
"456 465 LINE",
"421 495 OFFCURVE",
"362 514 OFFCURVE",
"304 514 CURVE SMOOTH",
"147 514 OFFCURVE",
"47 409 OFFCURVE",
"47 245 CURVE SMOOTH",
"47 90 OFFCURVE",
"146 -10 OFFCURVE",
"299 -10 CURVE SMOOTH"
);
}
);
width = 499;
},
{
associatedMasterId = "CAA31E91-2985-420A-82BA-6B4D8404D924";
layerId = "425BC51E-2191-48D1-92AB-224905AB6200";
name = b;
paths = (
{
closed = 1;
nodes = (
"295 -11 CURVE SMOOTH",
"147 -11 OFFCURVE",
"48 88 OFFCURVE",
"48 246 CURVE SMOOTH",
"48 410 OFFCURVE",
"147 514 OFFCURVE",
"305 514 CURVE SMOOTH",
"366 514 OFFCURVE",
"425 489 OFFCURVE",
"458 450 CURVE",
"435 393 LINE",
"403 427 OFFCURVE",
"352 448 OFFCURVE",
"302 448 CURVE SMOOTH",
"198 448 OFFCURVE",
"131 369 OFFCURVE",
"131 247 CURVE SMOOTH",
"131 127 OFFCURVE",
"199 55 OFFCURVE",
"298 55 CURVE SMOOTH",
"350 55 OFFCURVE",
"404 71 OFFCURVE",
"440 99 CURVE",
"465 42 LINE",
"426 9 OFFCURVE",
"365 -11 OFFCURVE"
);
}
);
width = 506;
},
{
layerId = "5F288B98-6DDA-4BF8-A62B-164790BC7EB2";
paths = (
{
closed = 1;
nodes = (
"371 -11 OFFCURVE",
"427 9 OFFCURVE",
"471 43 CURVE",
"443 107 LINE",
"411 83 OFFCURVE",
"362 62 OFFCURVE",
"307 62 CURVE SMOOTH",
"206 62 OFFCURVE",
"142 133 OFFCURVE",
"142 248 CURVE SMOOTH",
"142 382 OFFCURVE",
"221 440 OFFCURVE",
"310 440 CURVE SMOOTH",
"360 440 OFFCURVE",
"405 421 OFFCURVE",
"435 395 CURVE",
"466 454 LINE",
"427 493 OFFCURVE",
"370 514 OFFCURVE",
"305 514 CURVE SMOOTH",
"153 514 OFFCURVE",
"49 407 OFFCURVE",
"49 247 CURVE SMOOTH",
"49 94 OFFCURVE",
"149 -11 OFFCURVE",
"302 -11 CURVE SMOOTH"
);
}
);
width = 503;
},
{
layerId = "197E4CC0-43FA-49AB-8E7D-89E0185E23DB";
paths = (
{
closed = 1;
nodes = (
"391 -11 OFFCURVE",
"443 5 OFFCURVE",
"504 45 CURVE",
"462 148 LINE",
"451 141 OFFCURVE",
"417 100 OFFCURVE",
"343 100 CURVE SMOOTH",
"251 100 OFFCURVE",
"200 165 OFFCURVE",
"200 252 CURVE SMOOTH",
"200 329 OFFCURVE",
"232 403 OFFCURVE",
"335 403 CURVE SMOOTH",
"396 403 OFFCURVE",
"434 378 OFFCURVE",
"462 354 CURVE",
"511 442 LINE",
"467 490 OFFCURVE",
"404 514 OFFCURVE",
"318 514 CURVE SMOOTH",
"148 514 OFFCURVE",
"56 394 OFFCURVE",
"56 253 CURVE SMOOTH",
"56 125 OFFCURVE",
"145 -11 OFFCURVE",
"322 -11 CURVE SMOOTH"
);
}
);
width = 543;
}
);
unicode = 0063;
userData = {
com.typemytype.robofont.layerData = {
b = {
anchors = (
);
components = (
);
contours = (
{
points = (
{
segmentType = curve;
smooth = 1;
x = 605;
y = -22;
},
{
smooth = 0;
x = 302;
y = -22;
},
{
smooth = 0;
x = 98;
y = 180;
},
{
segmentType = curve;
smooth = 1;
x = 98;
y = 503;
},
{
smooth = 0;
x = 98;
y = 840;
},
{
smooth = 0;
x = 301;
y = 1052;
},
{
segmentType = curve;
smooth = 1;
x = 624;
y = 1052;
},
{
smooth = 0;
x = 750;
y = 1052;
},
{
smooth = 0;
x = 871;
y = 1001;
},
{
segmentType = curve;
smooth = 0;
x = 938;
y = 922;
},
{
segmentType = line;
smooth = 0;
x = 890;
y = 805;
},
{
smooth = 0;
x = 825;
y = 874;
},
{
smooth = 0;
x = 721;
y = 918;
},
{
segmentType = curve;
smooth = 1;
x = 619;
y = 918;
},
{
smooth = 0;
x = 406;
y = 918;
},
{
smooth = 0;
x = 268;
y = 756;
},
{
segmentType = curve;
smooth = 1;
x = 268;
y = 505;
},
{
smooth = 0;
x = 268;
y = 260;
},
{
smooth = 0;
x = 407;
y = 112;
},
{
segmentType = curve;
smooth = 1;
x = 611;
y = 112;
},
{
smooth = 0;
x = 716;
y = 112;
},
{
smooth = 0;
x = 827;
y = 145;
},
{
segmentType = curve;
smooth = 0;
x = 901;
y = 202;
},
{
segmentType = line;
smooth = 0;
x = 953;
y = 87;
},
{
smooth = 0;
x = 873;
y = 19;
},
{
smooth = 0;
x = 747;
y = -22;
}
);
}
);
lib = {
};
name = c;
unicodes = (
);
width = 1035.5500;
};
};
};
},
{
glyphname = d;
lastChange = "2016-08-22 09:31:58 +0000";
layers = (
{
layerId = "CAA31E91-2985-420A-82BA-6B4D8404D924";
paths = (
{
closed = 1;
nodes = (
"365 -10 OFFCURVE",
"442 40 OFFCURVE",
"470 117 CURVE",
"473 0 LINE",
"521 0 LINE",
"521 1 OFFCURVE",
"518 79 OFFCURVE",
"518 131 CURVE SMOOTH",
"518 740 LINE",
"470 740 LINE",
"470 390 LINE",
"439 465 OFFCURVE",
"362 514 OFFCURVE",
"273 514 CURVE SMOOTH",
"136 514 OFFCURVE",
"47 412 OFFCURVE",
"47 254 CURVE SMOOTH",
"47 93 OFFCURVE",
"136 -10 OFFCURVE",
"273 -10 CURVE SMOOTH"
);
},
{
closed = 1;
nodes = (
"159 30 OFFCURVE",
"95 118 OFFCURVE",
"95 254 CURVE SMOOTH",
"95 388 OFFCURVE",
"159 474 OFFCURVE",
"273 474 CURVE SMOOTH",
"393 474 OFFCURVE",
"470 388 OFFCURVE",
"470 254 CURVE SMOOTH",
"470 118 OFFCURVE",
"393 30 OFFCURVE",
"273 30 CURVE SMOOTH"
);
}
);
width = 613;
},
{
associatedMasterId = "CAA31E91-2985-420A-82BA-6B4D8404D924";
layerId = "D34D050D-9A8B-4730-974A-D93BCF3F5F6F";
name = b;
width = 618;
},
{
layerId = "5F288B98-6DDA-4BF8-A62B-164790BC7EB2";
paths = (
{
closed = 1;
nodes = (
"280 -11 CURVE SMOOTH",
"146 -11 OFFCURVE",
"49 88 OFFCURVE",
"49 247 CURVE SMOOTH",
"49 405 OFFCURVE",
"138 514 OFFCURVE",
"284 514 CURVE SMOOTH",
"366 514 OFFCURVE",
"424 471 OFFCURVE",
"444 427 CURVE",
"444 725 LINE",
"533 725 LINE",
"533 127 LINE SMOOTH",
"533 95 OFFCURVE",
"534 56 OFFCURVE",
"536 0 CURVE",
"445 0 LINE",
"443 83 LINE",
"424 37 OFFCURVE",
"370 -11 OFFCURVE"
);
},
{
closed = 1;
nodes = (
"292 62 CURVE SMOOTH",
"389 62 OFFCURVE",
"445 137 OFFCURVE",
"445 257 CURVE SMOOTH",
"445 363 OFFCURVE",
"390 441 OFFCURVE",
"295 441 CURVE SMOOTH",
"200 441 OFFCURVE",
"142 364 OFFCURVE",
"142 249 CURVE SMOOTH",
"142 137 OFFCURVE",
"197 62 OFFCURVE"
);
}
);
width = 617;
},
{
layerId = "197E4CC0-43FA-49AB-8E7D-89E0185E23DB";
paths = (
{
closed = 1;
nodes = (
"281 -11 CURVE SMOOTH",
"159 -11 OFFCURVE",
"55 90 OFFCURVE",
"55 249 CURVE SMOOTH",
"55 379 OFFCURVE",
"127 514 OFFCURVE",
"294 514 CURVE SMOOTH",
"370 514 OFFCURVE",
"409 471 OFFCURVE",
"419 460 CURVE",
"419 705 LINE",
"557 705 LINE",
"557 138 LINE SMOOTH",
"557 140 OFFCURVE",
"557 150 OFFCURVE",
"561 0 CURVE",
"419 0 LINE",
"419 53 LINE",
"414 39 OFFCURVE",
"375 -11 OFFCURVE"
);
},
{
closed = 1;
nodes = (
"314 100 CURVE SMOOTH",
"403 100 OFFCURVE",
"424 182 OFFCURVE",
"424 247 CURVE SMOOTH",
"424 329 OFFCURVE",
"397 402 OFFCURVE",
"311 402 CURVE SMOOTH",
"226 402 OFFCURVE",
"200 329 OFFCURVE",
"200 254 CURVE SMOOTH",
"200 182 OFFCURVE",
"223 100 OFFCURVE"
);
}
);
width = 620;
}
);
unicode = 0064;
userData = {
com.typemytype.robofont.layerData = {
b = {
anchors = (
);
components = (
);
contours = (
);
lib = {
};
name = d;
unicodes = (
);
width = 1265.0500;
};
};
};
},
{
glyphname = eth;
lastChange = "2016-08-22 09:22:14 +0000";
layers = (
{
layerId = "CAA31E91-2985-420A-82BA-6B4D8404D924";
paths = (
{
closed = 1;
nodes = (
"457 -11 OFFCURVE",
"537 103 OFFCURVE",
"537 294 CURVE SMOOTH",
"537 468 OFFCURVE",
"474 581 OFFCURVE",
"372 656 CURVE",
"442 710 LINE",
"417 742 LINE",
"336 680 LINE",
"285 712 OFFCURVE",
"226 737 OFFCURVE",
"161 756 CURVE",
"140 719 LINE",
"202 699 OFFCURVE",
"255 677 OFFCURVE",
"299 651 CURVE",
"233 601 LINE",
"257 568 LINE",
"336 628 LINE",
"444 554 OFFCURVE",
"488 457 OFFCURVE",
"495 330 CURVE",
"466 380 OFFCURVE",
"401 435 OFFCURVE",
"294 435 CURVE SMOOTH",
"147 435 OFFCURVE",
"61 347 OFFCURVE",
"61 210 CURVE SMOOTH",
"61 76 OFFCURVE",
"152 -11 OFFCURVE",
"302 -11 CURVE SMOOTH"
);
},
{
closed = 1;
nodes = (
"182 29 OFFCURVE",
"110 100 OFFCURVE",
"110 210 CURVE SMOOTH",
"110 323 OFFCURVE",
"177 395 OFFCURVE",
"294 395 CURVE SMOOTH",
"406 395 OFFCURVE",
"485 330 OFFCURVE",
"485 237 CURVE SMOOTH",
"485 111 OFFCURVE",
"421 29 OFFCURVE",
"302 29 CURVE SMOOTH"
);
}
);
width = 601;
},
{
associatedMasterId = "CAA31E91-2985-420A-82BA-6B4D8404D924";
layerId = "1B991844-E672-470A-B671-BC7AB4D04705";
name = b;
width = 597;
},
{
layerId = "5F288B98-6DDA-4BF8-A62B-164790BC7EB2";
paths = (
{
closed = 1;
nodes = (
"291 -11 CURVE SMOOTH",
"450 -11 OFFCURVE",
"541 113 OFFCURVE",
"541 307 CURVE SMOOTH",
"541 511 OFFCURVE",
"411 672 OFFCURVE",
"172 727 CURVE",
"133 666 LINE",
"237 643 OFFCURVE",
"445 559 OFFCURVE",
"448 368 CURVE",
"449 365 OFFCURVE",
"450 359 OFFCURVE",
"450 357 CURVE",
"421 399 OFFCURVE",
"369 439 OFFCURVE",
"284 439 CURVE SMOOTH",
"148 439 OFFCURVE",
"51 349 OFFCURVE",
"51 221 CURVE SMOOTH",
"51 91 OFFCURVE",
"144 -11 OFFCURVE"
);
},
{
closed = 1;
nodes = (
"290 64 CURVE SMOOTH",
"207 64 OFFCURVE",
"146 126 OFFCURVE",
"146 217 CURVE SMOOTH",
"146 304 OFFCURVE",
"204 363 OFFCURVE",
"292 363 CURVE SMOOTH",
"366 363 OFFCURVE",
"440 309 OFFCURVE",
"440 230 CURVE SMOOTH",
"440 138 OFFCURVE",
"391 64 OFFCURVE"
);
},
{
closed = 1;
nodes = (
"243 518 LINE",
"475 685 LINE",
"441 733 LINE",
"208 566 LINE"
);
}
);
width = 597;
},
{
layerId = "197E4CC0-43FA-49AB-8E7D-89E0185E23DB";
paths = (
{
closed = 1;
nodes = (
"281 -12 CURVE SMOOTH",
"438 -12 OFFCURVE",
"535 56 OFFCURVE",
"535 301 CURVE SMOOTH",
"535 726 OFFCURVE",
"106 721 OFFCURVE",
"186 688 CURVE",
"148 600 LINE",
"540 510 OFFCURVE",
"386 332 OFFCURVE",
"406 419 CURVE",
"411 400 OFFCURVE",
"415 387 OFFCURVE",
"415 375 CURVE",
"353 438 OFFCURVE",
"288 443 OFFCURVE",
"251 443 CURVE SMOOTH",
"116 443 OFFCURVE",
"47 364 OFFCURVE",
"47 235 CURVE SMOOTH",
"47 106 OFFCURVE",
"136 -12 OFFCURVE"
);
},
{
closed = 1;
nodes = (
"296 98 CURVE SMOOTH",
"250 98 OFFCURVE",
"187 127 OFFCURVE",
"187 223 CURVE SMOOTH",
"187 309 OFFCURVE",
"245 328 OFFCURVE",
"282 328 CURVE SMOOTH",
"334 328 OFFCURVE",
"393 289 OFFCURVE",
"393 211 CURVE SMOOTH",
"393 123 OFFCURVE",
"320 98 OFFCURVE"
);
},
{
closed = 1;
nodes = (
"178 465 LINE",
"530 613 LINE",
"498 688 LINE",
"146 540 LINE"
);
}
);
width = 593;
}
);
unicode = 00F0;
userData = {
com.typemytype.robofont.layerData = {
b = {
anchors = (
);
components = (
);
contours = (
);
lib = {
};
name = eth;
unicodes = (
);
width = 1222.5500;
};
};
};
},
{
glyphname = dcroat;
lastChange = "2016-08-22 09:22:14 +0000";
layers = (
{
components = (
{
name = d;
},
{
name = macron;
transform = "{1, 0, 0, 1, 325, -6}";
}
);
layerId = "CAA31E91-2985-420A-82BA-6B4D8404D924";
width = 613;
},
{
associatedMasterId = "CAA31E91-2985-420A-82BA-6B4D8404D924";
layerId = "3AE87247-364D-4237-83C0-C1EC236B18A1";
name = b;
width = 614;
},
{
components = (
{
name = d;
}
);
layerId = "5F288B98-6DDA-4BF8-A62B-164790BC7EB2";
paths = (
{
closed = 1;
nodes = (
"287 594 LINE",
"287 663 LINE",
"585 663 LINE",
"585 594 LINE"
);
}
);
width = 614;
},
{
components = (
{
name = d;
}
);
layerId = "197E4CC0-43FA-49AB-8E7D-89E0185E23DB";
paths = (
{
closed = 1;
nodes = (
"297 557 LINE",
"297 635 LINE",
"600 635 LINE",
"600 557 LINE"
);
}
);
width = 608;
}
);
unicode = 0111;
userData = {
com.typemytype.robofont.layerData = {
b = {
anchors = (
);
components = (
);
contours = (
);
lib = {
};
name = dcroat;
unicodes = (
);
width = 1258.1500;
};
};
};
},
{
glyphname = e;
lastChange = "2016-08-22 09:31:58 +0000";
layers = (
{
layerId = "CAA31E91-2985-420A-82BA-6B4D8404D924";
paths = (
{
closed = 1;
nodes = (
"368 -10 OFFCURVE",
"441 14 OFFCURVE",
"487 53 CURVE",
"470 86 LINE",
"425 52 OFFCURVE",
"364 30 OFFCURVE",
"301 30 CURVE SMOOTH",
"174 30 OFFCURVE",
"94 115 OFFCURVE",
"96 248 CURVE",
"510 248 LINE",
"510 276 LINE SMOOTH",
"510 420 OFFCURVE",
"424 514 OFFCURVE",
"289 514 CURVE SMOOTH",
"142 514 OFFCURVE",
"47 410 OFFCURVE",
"47 248 CURVE SMOOTH",
"47 91 OFFCURVE",
"146 -10 OFFCURVE",
"301 -10 CURVE SMOOTH"
);
},
{
closed = 1;
nodes = (
"108 399 OFFCURVE",
"183 474 OFFCURVE",
"289 474 CURVE SMOOTH",
"393 474 OFFCURVE",
"464 399 OFFCURVE",
"470 282 CURVE",
"99 282 LINE"
);
}
);
width = 553;
},
{
associatedMasterId = "CAA31E91-2985-420A-82BA-6B4D8404D924";
layerId = "46877AF2-C347-448E-9B43-7269000124F2";
name = b;
width = 571;
},
{
layerId = "5F288B98-6DDA-4BF8-A62B-164790BC7EB2";
paths = (
{
closed = 1;
nodes = (
"314 -11 CURVE SMOOTH",
"152 -11 OFFCURVE",
"49 91 OFFCURVE",
"49 249 CURVE SMOOTH",
"49 404 OFFCURVE",
"148 514 OFFCURVE",
"299 514 CURVE SMOOTH",
"442 514 OFFCURVE",
"521 409 OFFCURVE",
"521 262 CURVE SMOOTH",
"521 261 OFFCURVE",
"521 253 OFFCURVE",
"520 238 CURVE",
"143 238 LINE",
"145 123 OFFCURVE",
"217 62 OFFCURVE",
"317 62 CURVE SMOOTH",
"378 62 OFFCURVE",
"432 81 OFFCURVE",
"477 119 CURVE",
"504 52 LINE",
"453 10 OFFCURVE",
"388 -11 OFFCURVE"
);
},
{
closed = 1;
nodes = (
"145 300 CURVE",
"442 300 LINE",
"433 394 OFFCURVE",
"376 442 OFFCURVE",
"300 442 CURVE SMOOTH",
"219 442 OFFCURVE",
"158 391 OFFCURVE"
);
}
);
width = 570;
},
{
layerId = "197E4CC0-43FA-49AB-8E7D-89E0185E23DB";
paths = (
{
closed = 1;
nodes = (
"331 -11 CURVE SMOOTH",
"155 -11 OFFCURVE",
"56 101 OFFCURVE",
"56 251 CURVE SMOOTH",
"56 381 OFFCURVE",
"146 514 OFFCURVE",
"316 514 CURVE SMOOTH",
"491 514 OFFCURVE",
"540 388 OFFCURVE",
"540 246 CURVE SMOOTH",
"540 236 OFFCURVE",
"540 227 OFFCURVE",
"537 226 CURVE",
"202 226 LINE",
"208 131 OFFCURVE",
"267 100 OFFCURVE",
"347 100 CURVE SMOOTH",
"397 100 OFFCURVE",
"447 117 OFFCURVE",
"502 153 CURVE",
"538 52 LINE",
"471 8 OFFCURVE",
"412 -11 OFFCURVE"
);
},
{
closed = 1;
nodes = (
"203 316 CURVE",
"420 316 LINE",
"409 377 OFFCURVE",
"375 409 OFFCURVE",
"326 409 CURVE SMOOTH",
"261 409 OFFCURVE",
"220 370 OFFCURVE"
);
}
);
width = 600;
}
);
unicode = 0065;
userData = {
com.typemytype.robofont.guides = (
);
com.typemytype.robofont.layerData = {
b = {
anchors = (
);
components = (
);
contours = (
);
lib = {
};
name = e;
unicodes = (
);
width = 1169.75;
};
};
};
},
{
glyphname = f;
lastChange = "2016-08-22 09:31:58 +0000";
layers = (
{
layerId = "CAA31E91-2985-420A-82BA-6B4D8404D924";
paths = (
{
closed = 1;
nodes = (
"166 0 LINE",
"166 469 LINE",
"294 469 LINE",
"294 501 LINE",
"166 501 LINE",
"166 590 LINE SMOOTH",
"166 665 OFFCURVE",
"170 691 OFFCURVE",
"301 691 CURVE",
"301 732 LINE",
"284 732 LINE SMOOTH",
"144 732 OFFCURVE",
"118 687 OFFCURVE",
"118 578 CURVE SMOOTH",
"118 501 LINE",
"33 501 LINE",
"33 469 LINE",
"118 469 LINE",
"118 0 LINE"
);
}
);
width = 295;
},
{
associatedMasterId = "CAA31E91-2985-420A-82BA-6B4D8404D924";
layerId = "E5FB3131-8C60-4215-882F-D8EAB777BCA2";
name = b;
width = 358;
},
{
layerId = "5F288B98-6DDA-4BF8-A62B-164790BC7EB2";
paths = (
{
closed = 1;
nodes = (
"123 0 LINE",
"123 442 LINE",
"33 442 LINE",
"33 501 LINE",
"123 501 LINE",
"123 543 LINE SMOOTH",
"123 670 OFFCURVE",
"144 727 OFFCURVE",
"315 727 CURVE SMOOTH",
"338 727 LINE",
"337 657 LINE",
"222 657 OFFCURVE",
"213 635 OFFCURVE",
"213 552 CURVE SMOOTH",
"213 501 LINE",
"332 501 LINE",
"332 442 LINE",
"213 442 LINE",
"213 0 LINE"
);
}
);
width = 354;
},
{
layerId = "197E4CC0-43FA-49AB-8E7D-89E0185E23DB";
paths = (
{
closed = 1;
nodes = (
"129 0 LINE",
"129 407 LINE",
"35 407 LINE",
"35 501 LINE",
"129 501 LINE",
"129 506 LINE SMOOTH",
"129 658 OFFCURVE",
"144 722 OFFCURVE",
"352 722 CURVE SMOOTH",
"379 722 LINE",
"372 615 LINE",
"277 615 OFFCURVE",
"268 610 OFFCURVE",
"268 504 CURVE SMOOTH",
"268 501 LINE",
"377 501 LINE",
"377 407 LINE",
"268 407 LINE",
"268 0 LINE"
);
}
);
width = 426;
}
);
unicode = 0066;
userData = {
com.typemytype.robofont.layerData = {
b = {
anchors = (
);
components = (
);
contours = (
);
lib = {
};
name = f;
unicodes = (
);
width = 733.1000;
};
};
};
},
{
glyphname = g;
lastChange = "2016-08-22 09:31:58 +0000";
layers = (
{
layerId = "CAA31E91-2985-420A-82BA-6B4D8404D924";
paths = (
{
closed = 1;
nodes = (
"411 -216 OFFCURVE",
"520 -136 OFFCURVE",
"520 56 CURVE SMOOTH",
"520 409 LINE",
"523 501 LINE",
"477 501 LINE",
"472 399 LINE",
"442 465 OFFCURVE",
"371 514 OFFCURVE",
"283 514 CURVE SMOOTH",
"139 514 OFFCURVE",
"47 411 OFFCURVE",
"47 251 CURVE SMOOTH",
"47 93 OFFCURVE",
"136 -8 OFFCURVE",
"275 -8 CURVE SMOOTH",
"365 -8 OFFCURVE",
"441 35 OFFCURVE",
"472 115 CURVE",
"472 56 LINE SMOOTH",
"472 -112 OFFCURVE",
"388 -175 OFFCURVE",
"271 -175 CURVE SMOOTH",
"222 -175 OFFCURVE",
"163 -165 OFFCURVE",
"107 -142 CURVE",
"101 -184 LINE",
"157 -207 OFFCURVE",
"217 -216 OFFCURVE",
"271 -216 CURVE SMOOTH"
);
},
{
closed = 1;
nodes = (
"166 32 OFFCURVE",
"96 118 OFFCURVE",
"96 251 CURVE SMOOTH",
"96 387 OFFCURVE",
"169 474 OFFCURVE",
"283 474 CURVE SMOOTH",
"398 474 OFFCURVE",
"472 387 OFFCURVE",
"472 251 CURVE SMOOTH",
"472 118 OFFCURVE",
"395 32 OFFCURVE",
"275 32 CURVE SMOOTH"
);
}
);
width = 619;
},
{
associatedMasterId = "CAA31E91-2985-420A-82BA-6B4D8404D924";
layerId = "8B017DD5-0CB6-46BD-BEEE-D7FBE155BC1E";
name = b;
paths = (
{
closed = 1;
nodes = (
"283 65 CURVE SMOOTH",
"390 65 OFFCURVE",
"449 144 OFFCURVE",
"449 269 CURVE SMOOTH",
"449 378 OFFCURVE",
"389 448 OFFCURVE",
"293 448 CURVE SMOOTH",
"195 448 OFFCURVE",
"131 372 OFFCURVE",
"131 251 CURVE SMOOTH",
"131 138 OFFCURVE",
"190 65 OFFCURVE"
);
},
{
closed = 1;
nodes = (
"261 -205 CURVE SMOOTH",
"199 -205 OFFCURVE",
"141 -186 OFFCURVE",
"92 -162 CURVE",
"105 -91 LINE",
"146 -116 OFFCURVE",
"203 -138 OFFCURVE",
"258 -138 CURVE SMOOTH",
"386 -138 OFFCURVE",
"449 -89 OFFCURVE",
"449 24 CURVE SMOOTH",
"449 133 LINE",
"463 124 LINE",
"442 68 OFFCURVE",
"392 0 OFFCURVE",
"283 0 CURVE SMOOTH",
"146 0 OFFCURVE",
"48 98 OFFCURVE",
"48 250 CURVE SMOOTH",
"48 412 OFFCURVE",
"139 514 OFFCURVE",
"283 514 CURVE SMOOTH",
"400 514 OFFCURVE",
"441 439 OFFCURVE",
"468 390 CURVE",
"449 384 LINE",
"452 501 LINE",
"532 501 LINE",
"532 501 OFFCURVE",
"529 418 OFFCURVE",
"529 377 CURVE SMOOTH",
"529 70 LINE SMOOTH",
"529 -125 OFFCURVE",
"441 -205 OFFCURVE"
);
}
);
width = 612;
},
{
layerId = "5F288B98-6DDA-4BF8-A62B-164790BC7EB2";
paths = (
{
closed = 1;
nodes = (
"288 70 CURVE SMOOTH",
"394 70 OFFCURVE",
"444 151 OFFCURVE",
"444 264 CURVE SMOOTH",
"444 370 OFFCURVE",
"389 441 OFFCURVE",
"296 441 CURVE SMOOTH",
"201 441 OFFCURVE",
"142 363 OFFCURVE",
"142 251 CURVE SMOOTH",
"142 142 OFFCURVE",
"196 70 OFFCURVE"
);
},
{
closed = 1;
nodes = (
"458 114 LINE",
"440 69 OFFCURVE",
"395 -2 OFFCURVE",
"287 -2 CURVE SMOOTH",
"146 -2 OFFCURVE",
"49 97 OFFCURVE",
"49 250 CURVE SMOOTH",
"49 406 OFFCURVE",
"135 514 OFFCURVE",
"284 514 CURVE SMOOTH",
"394 514 OFFCURVE",
"438 444 OFFCURVE",
"461 394 CURVE",
"443 387 LINE",
"445 501 LINE",
"537 501 LINE",
"537 501 OFFCURVE",
"532 420 OFFCURVE",
"532 367 CURVE SMOOTH",
"532 67 LINE SMOOTH",
"532 -95 OFFCURVE",
"451 -205 OFFCURVE",
"281 -205 CURVE SMOOTH",
"212 -205 OFFCURVE",
"152 -191 OFFCURVE",
"92 -161 CURVE",
"106 -82 LINE",
"165 -116 OFFCURVE",
"212 -129 OFFCURVE",
"278 -129 CURVE SMOOTH",
"384 -129 OFFCURVE",
"443 -74 OFFCURVE",
"443 44 CURVE SMOOTH",
"443 125 LINE"
);
}
);
width = 611;
},
{
layerId = "197E4CC0-43FA-49AB-8E7D-89E0185E23DB";
paths = (
{
closed = 1;
nodes = (
"315 107 CURVE SMOOTH",
"410 107 OFFCURVE",
"420 190 OFFCURVE",
"420 246 CURVE SMOOTH",
"420 331 OFFCURVE",
"394 402 OFFCURVE",
"313 402 CURVE SMOOTH",
"229 402 OFFCURVE",
"200 323 OFFCURVE",
"200 252 CURVE SMOOTH",
"200 163 OFFCURVE",
"229 107 OFFCURVE"
);
},
{
closed = 1;
nodes = (
"434 84 LINE",
"430 88 OFFCURVE",
"408 5 OFFCURVE",
"302 5 CURVE SMOOTH",
"153 5 OFFCURVE",
"55 98 OFFCURVE",
"55 252 CURVE SMOOTH",
"55 378 OFFCURVE",
"119 514 OFFCURVE",
"290 514 CURVE SMOOTH",
"365 514 OFFCURVE",
"425 467 OFFCURVE",
"428 417 CURVE",
"413 399 LINE",
"411 501 LINE",
"560 501 LINE",
"560 501 OFFCURVE",
"547 431 OFFCURVE",
"547 314 CURVE SMOOTH",
"547 76 LINE SMOOTH",
"547 -19 OFFCURVE",
"541 -202 OFFCURVE",
"282 -202 CURVE SMOOTH",
"218 -202 OFFCURVE",
"154 -188 OFFCURVE",
"92 -156 CURVE",
"116 -37 LINE",
"179 -81 OFFCURVE",
"239 -90 OFFCURVE",
"271 -90 CURVE SMOOTH",
"352 -90 OFFCURVE",
"412 -60 OFFCURVE",
"412 3 CURVE SMOOTH",
"412 100 LINE"
);
}
);
width = 604;
}
);
unicode = 0067;
userData = {
com.typemytype.robofont.layerData = {
b = {
anchors = (
);
components = (
);
contours = (
{
points = (
{
segmentType = curve;
smooth = 1;
x = 580;
y = 134;
},
{
smooth = 0;
x = 799;
y = 134;
},
{
smooth = 0;
x = 920;
y = 295;
},
{
segmentType = curve;
smooth = 1;
x = 920;
y = 550;
},
{
smooth = 0;
x = 920;
y = 775;
},
{
smooth = 0;
x = 796;
y = 918;
},
{
segmentType = curve;
smooth = 1;
x = 600;
y = 918;
},
{
smooth = 0;
x = 399;
y = 918;
},
{
smooth = 0;
x = 268;
y = 762;
},
{
segmentType = curve;
smooth = 1;
x = 268;
y = 515;
},
{
smooth = 0;
x = 268;
y = 282;
},
{
smooth = 0;
x = 389;
y = 134;
}
);
},
{
points = (
{
segmentType = curve;
smooth = 1;
x = 534;
y = -420;
},
{
smooth = 0;
x = 408;
y = -420;
},
{
smooth = 0;
x = 289;
y = -381;
},
{
segmentType = curve;
smooth = 0;
x = 189;
y = -331;
},
{
segmentType = line;
smooth = 0;
x = 216;
y = -187;
},
{
smooth = 0;
x = 300;
y = -238;
},
{
smooth = 0;
x = 416;
y = -282;
},
{
segmentType = curve;
smooth = 1;
x = 528;
y = -282;
},
{
smooth = 0;
x = 790;
y = -282;
},
{
smooth = 0;
x = 920;
y = -183;
},
{
segmentType = curve;
smooth = 1;
x = 920;
y = 49;
},
{
segmentType = line;
smooth = 0;
x = 920;
y = 273;
},
{
segmentType = line;
smooth = 0;
x = 948;
y = 253;
},
{
smooth = 0;
x = 905;
y = 139;
},
{
smooth = 0;
x = 802;
y = 0;
},
{
segmentType = curve;
smooth = 1;
x = 579;
y = 0;
},
{
smooth = 0;
x = 298;
y = 0;
},
{
smooth = 0;
x = 98;
y = 201;
},
{
segmentType = curve;
smooth = 1;
x = 98;
y = 511;
},
{
smooth = 0;
x = 98;
y = 843;
},
{
smooth = 0;
x = 284;
y = 1052;
},
{
segmentType = curve;
smooth = 1;
x = 579;
y = 1052;
},
{
smooth = 0;
x = 820;
y = 1052;
},
{
smooth = 0;
x = 903;
y = 900;
},
{
segmentType = curve;
smooth = 0;
x = 958;
y = 798;
},
{
segmentType = line;
smooth = 0;
x = 919;
y = 787;
},
{
segmentType = line;
smooth = 0;
x = 926;
y = 1026;
},
{
segmentType = line;
smooth = 0;
x = 1090;
y = 1026;
},
{
smooth = 0;
x = 1090;
y = 1026;
},
{
smooth = 0;
x = 1084;
y = 857;
},
{
segmentType = curve;
smooth = 1;
x = 1084;
y = 773;
},
{
segmentType = line;
smooth = 1;
x = 1084;
y = 143;
},
{
smooth = 0;
x = 1084;
y = -255;
},
{
smooth = 0;
x = 903;
y = -420;
}
);
}
);
lib = {
};
name = g;
unicodes = (
);
width = 1254;
};
};
};
},
{
glyphname = h;
lastChange = "2016-08-22 09:31:58 +0000";
layers = (
{
layerId = "CAA31E91-2985-420A-82BA-6B4D8404D924";
paths = (
{
closed = 1;
nodes = (
"144 0 LINE",
"144 307 LINE SMOOTH",
"144 392 OFFCURVE",
"236 474 OFFCURVE",
"342 474 CURVE SMOOTH",
"439 474 OFFCURVE",
"472 420 OFFCURVE",
"472 322 CURVE SMOOTH",
"472 0 LINE",
"520 0 LINE",
"520 333 LINE SMOOTH",
"520 481 OFFCURVE",
"418 514 OFFCURVE",
"342 514 CURVE SMOOTH",
"245 514 OFFCURVE",
"179 466 OFFCURVE",
"144 404 CURVE",
"144 740 LINE",
"96 740 LINE",
"96 0 LINE"
);
}
);
width = 613;
},
{
associatedMasterId = "CAA31E91-2985-420A-82BA-6B4D8404D924";
layerId = "DB9A769B-C5E8-469C-8D43-9687FF59CD08";
name = b;
paths = (
{
closed = 1;
nodes = (
"87 0 LINE",
"87 380 LINE SMOOTH",
"87 440 OFFCURVE",
"84 501 OFFCURVE",
"84 501 CURVE",
"166 501 LINE",
"167 422 LINE",
"207 477 OFFCURVE",
"268 513 OFFCURVE",
"342 513 CURVE SMOOTH",
"488 513 OFFCURVE",
"528 412 OFFCURVE",
"528 269 CURVE SMOOTH",
"528 0 LINE",
"448 0 LINE",
"448 259 LINE SMOOTH",
"448 373 OFFCURVE",
"433 448 OFFCURVE",
"327 448 CURVE SMOOTH",
"230 448 OFFCURVE",
"168 362 OFFCURVE",
"167 318 CURVE",
"167 0 LINE"
);
}
);
width = 604;
},
{
layerId = "5F288B98-6DDA-4BF8-A62B-164790BC7EB2";
paths = (
{
closed = 1;
nodes = (
"83 0 LINE",
"83 725 LINE",
"173 725 LINE",
"173 423 LINE",
"203 478 OFFCURVE",
"272 514 OFFCURVE",
"344 514 CURVE SMOOTH",
"471 514 OFFCURVE",
"529 420 OFFCURVE",
"529 303 CURVE SMOOTH",
"529 0 LINE",
"439 0 LINE",
"439 300 LINE SMOOTH",
"439 398 OFFCURVE",
"406 441 OFFCURVE",
"329 441 CURVE SMOOTH",
"249 441 OFFCURVE",
"173 376 OFFCURVE",
"173 304 CURVE SMOOTH",
"173 0 LINE"
);
}
);
width = 605;
},
{
layerId = "197E4CC0-43FA-49AB-8E7D-89E0185E23DB";
paths = (
{
closed = 1;
nodes = (
"63 0 LINE",
"63 705 LINE",
"201 705 LINE",
"201 443 LINE",
"225 488 OFFCURVE",
"302 514 OFFCURVE",
"339 514 CURVE SMOOTH",
"530 514 OFFCURVE",
"533 343 OFFCURVE",
"533 266 CURVE SMOOTH",
"533 0 LINE",
"394 0 LINE",
"394 273 LINE SMOOTH",
"394 371 OFFCURVE",
"364 402 OFFCURVE",
"319 402 CURVE SMOOTH",
"262 402 OFFCURVE",
"201 355 OFFCURVE",
"201 300 CURVE SMOOTH",
"201 0 LINE"
);
}
);
width = 590;
}
);
unicode = 0068;
userData = {
com.typemytype.robofont.layerData = {
b = {
anchors = (
);
components = (
);
contours = (
{
points = (
{
segmentType = line;
smooth = 0;
x = 178;
y = 0;
},
{
segmentType = line;
smooth = 1;
x = 178;
y = 779;
},
{
smooth = 0;
x = 178;
y = 902;
},
{
smooth = 0;
x = 172;
y = 1026;
},
{
segmentType = curve;
smooth = 0;
x = 172;
y = 1026;
},
{
segmentType = line;
smooth = 0;
x = 339;
y = 1026;
},
{
segmentType = line;
smooth = 0;
x = 343;
y = 864;
},
{
smooth = 0;
x = 423;
y = 976;
},
{
smooth = 0;
x = 548;
y = 1051;
},
{
segmentType = curve;
smooth = 1;
x = 700;
y = 1051;
},
{
smooth = 0;
x = 999;
y = 1051;
},
{
smooth = 0;
x = 1082;
y = 844;
},
{
segmentType = curve;
smooth = 1;
x = 1082;
y = 550;
},
{
segmentType = line;
smooth = 0;
x = 1082;
y = 0;
},
{
segmentType = line;
smooth = 0;
x = 917;
y = 0;
},
{
segmentType = line;
smooth = 1;
x = 917;
y = 531;
},
{
smooth = 0;
x = 917;
y = 764;
},
{
smooth = 0;
x = 886;
y = 917;
},
{
segmentType = curve;
smooth = 1;
x = 670;
y = 917;
},
{
smooth = 0;
x = 471;
y = 917;
},
{
smooth = 0;
x = 344;
y = 742;
},
{
segmentType = curve;
smooth = 0;
x = 343;
y = 652;
},
{
segmentType = line;
smooth = 0;
x = 343;
y = 0;
}
);
}
);
lib = {
};
name = h;
unicodes = (
);
width = 1237.9500;
};
};
};
},
{
glyphname = hbar;
lastChange = "2016-08-22 09:22:14 +0000";
layers = (
{
components = (
{
name = h;
},
{
name = macron;
transform = "{1, 0, 0, 1, -40, -8}";
}
);
layerId = "CAA31E91-2985-420A-82BA-6B4D8404D924";
width = 613;
},
{
associatedMasterId = "CAA31E91-2985-420A-82BA-6B4D8404D924";
layerId = "506510B4-BB1D-4A89-8751-290A2A77C623";
name = b;
width = 589;
},
{
components = (
{
name = h;
}
);
layerId = "5F288B98-6DDA-4BF8-A62B-164790BC7EB2";
paths = (
{
closed = 1;
nodes = (
"-4 577 LINE",
"-4 645 LINE",
"281 645 LINE",
"281 577 LINE"
);
}
);
width = 590;
},
{
components = (
{
name = h;
}
);
layerId = "197E4CC0-43FA-49AB-8E7D-89E0185E23DB";
paths = (
{
closed = 1;
nodes = (
"-24 573 LINE",
"-24 652 LINE",
"292 652 LINE",
"292 573 LINE"
);
}
);
width = 569;
}
);
unicode = 0127;
userData = {
com.typemytype.robofont.layerData = {
b = {
anchors = (
);
components = (
);
contours = (
);
lib = {
};
name = hbar;
unicodes = (
);
width = 1205.8000;
};
};
};
},
{
glyphname = i;
lastChange = "2016-08-22 09:22:14 +0000";
layers = (
{
layerId = "CAA31E91-2985-420A-82BA-6B4D8404D924";
paths = (
{
closed = 1;
nodes = (
"141 0 LINE",
"141 501 LINE",
"93 501 LINE",
"93 0 LINE"
);
},
{
closed = 1;
nodes = (
"141 657 LINE",
"141 711 LINE",
"93 711 LINE",
"93 657 LINE"
);
}
);
width = 240;
},
{
associatedMasterId = "CAA31E91-2985-420A-82BA-6B4D8404D924";
layerId = "803BFE36-4E42-4B37-838F-D2ABD04B6541";
name = b;
width = 254;
},
{
layerId = "5F288B98-6DDA-4BF8-A62B-164790BC7EB2";
paths = (
{
closed = 1;
nodes = (
"80 0 LINE",
"80 501 LINE",
"168 501 LINE",
"168 0 LINE"
);
},
{
closed = 1;
nodes = (
"79 628 LINE",
"79 711 LINE",
"168 711 LINE",
"168 628 LINE"
);
}
);
width = 249;
},
{
layerId = "197E4CC0-43FA-49AB-8E7D-89E0185E23DB";
paths = (
{
closed = 1;
nodes = (
"85 0 LINE",
"85 501 LINE",
"212 501 LINE",
"212 0 LINE"
);
},
{
closed = 1;
nodes = (
"84 598 LINE",
"84 718 LINE",
"217 718 LINE",
"217 598 LINE"
);
}
);
width = 278;
}
);
unicode = 0069;
userData = {
com.typemytype.robofont.layerData = {
b = {
anchors = (
);
components = (
);
contours = (
);
lib = {
};
name = i;
unicodes = (
);
width = 521.1000;
};
};
};
},
{
glyphname = idotless;
lastChange = "2016-08-22 14:15:06 +0000";
layers = (
{
layerId = "CAA31E91-2985-420A-82BA-6B4D8404D924";
paths = (
{
closed = 1;
nodes = (
"141 0 LINE",
"140 501 LINE",
"90 501 LINE",
"91 0 LINE"
);
}
);
width = 231;
},
{
layerId = "5F288B98-6DDA-4BF8-A62B-164790BC7EB2";
paths = (
{
closed = 1;
nodes = (
"71 0 LINE",
"71 501 LINE",
"161 501 LINE",
"161 0 LINE"
);
}
);
width = 238;
},
{
layerId = "197E4CC0-43FA-49AB-8E7D-89E0185E23DB";
paths = (
{
closed = 1;
nodes = (
"45 0 LINE",
"45 501 LINE",
"185 501 LINE",
"185 0 LINE"
);
}
);
width = 246;
}
);
unicode = 0131;
},
{
glyphname = j;
lastChange = "2016-08-22 14:15:06 +0000";
layers = (
{
components = (
{
name = jdotless;
}
);
layerId = "CAA31E91-2985-420A-82BA-6B4D8404D924";
paths = (
{
closed = 1;
nodes = (
"151 657 LINE",
"151 711 LINE",
"104 711 LINE",
"104 657 LINE"
);
}
);
width = 246;
},
{
associatedMasterId = "CAA31E91-2985-420A-82BA-6B4D8404D924";
layerId = "F105B777-E535-41F0-9003-66834D79DB6D";
name = b;
paths = (
{
closed = 1;
nodes = (
"32 -200 CURVE SMOOTH",
"-12 -200 OFFCURVE",
"-57 -190 OFFCURVE",
"-57 -190 CURVE",
"-50 -130 LINE",
"-50 -130 OFFCURVE",
"-21 -137 OFFCURVE",
"9 -137 CURVE SMOOTH",
"75 -137 OFFCURVE",
"86 -102 OFFCURVE",
"86 -1 CURVE SMOOTH",
"86 501 LINE",
"167 501 LINE",
"167 -3 LINE SMOOTH",
"167 -134 OFFCURVE",
"120 -200 OFFCURVE"
);
},
{
closed = 1;
nodes = (
"86 638 LINE",
"86 714 LINE",
"167 714 LINE",
"167 638 LINE"
);
}
);
width = 262;
},
{
layerId = "5F288B98-6DDA-4BF8-A62B-164790BC7EB2";
paths = (
{
closed = 1;
nodes = (
"25 -196 CURVE SMOOTH",
"134 -196 OFFCURVE",
"177 -143 OFFCURVE",
"177 -4 CURVE SMOOTH",
"177 501 LINE",
"87 501 LINE",
"87 1 LINE SMOOTH",
"87 -97 OFFCURVE",
"73 -128 OFFCURVE",
"13 -128 CURVE SMOOTH",
"-18 -128 OFFCURVE",
"-48 -118 OFFCURVE",
"-48 -118 CURVE",
"-56 -185 LINE",
"-39 -189 OFFCURVE",
"-5 -196 OFFCURVE"
);
},
{
closed = 1;
nodes = (
"87 628 LINE",
"177 628 LINE",
"177 711 LINE",
"87 711 LINE"
);
}
);
width = 256;
},
{
layerId = "197E4CC0-43FA-49AB-8E7D-89E0185E23DB";
paths = (
{
closed = 1;
nodes = (
"91 -153 CURVE SMOOTH",
"235 -153 OFFCURVE",
"292 -177 OFFCURVE",
"292 -63 CURVE SMOOTH",
"292 501 LINE",
"154 501 LINE",
"154 -13 LINE SMOOTH",
"154 -98 OFFCURVE",
"139 -75 OFFCURVE",
"99 -75 CURVE SMOOTH",
"21 -75 OFFCURVE",
"-42 -53 OFFCURVE",
"13 -64 CURVE",
"-16 -135 LINE",
"-74 -124 OFFCURVE",
"-17 -153 OFFCURVE"
);
},
{
closed = 1;
nodes = (
"159 598 LINE",
"301 598 LINE",
"301 718 LINE",
"159 718 LINE"
);
}
);
width = 347;
}
);
unicode = 006A;
userData = {
com.typemytype.robofont.layerData = {
b = {
anchors = (
);
components = (
);
contours = (
{
points = (
{
segmentType = curve;
smooth = 1;
x = 65;
y = -410;
},
{
smooth = 0;
x = -24;
y = -410;
},
{
smooth = 0;
x = -117;
y = -390;
},
{
segmentType = curve;
smooth = 0;
x = -117;
y = -390;
},
{
segmentType = line;
smooth = 0;
x = -102;
y = -267;
},
{
smooth = 0;
x = -102;
y = -267;
},
{
smooth = 0;
x = -44;
y = -280;
},
{
segmentType = curve;
smooth = 1;
x = 19;
y = -280;
},
{
smooth = 0;
x = 153;
y = -280;
},
{
smooth = 0;
x = 177;
y = -208;
},
{
segmentType = curve;
smooth = 1;
x = 177;
y = -2;
},
{
segmentType = line;
smooth = 0;
x = 177;
y = 1026;
},
{
segmentType = line;
smooth = 0;
x = 341;
y = 1026;
},
{
segmentType = line;
smooth = 1;
x = 341;
y = -6;
},
{
smooth = 0;
x = 341;
y = -274;
},
{
smooth = 0;
x = 246;
y = -410;
}
);
},
{
points = (
{
segmentType = line;
smooth = 0;
x = 177;
y = 1307;
},
{
segmentType = line;
smooth = 0;
x = 177;
y = 1462;
},
{
segmentType = line;
smooth = 0;
x = 341;
y = 1462;
},
{
segmentType = line;
smooth = 0;
x = 341;
y = 1307;
}
);
}
);
lib = {
};
name = j;
unicodes = (
);
width = 536.9000;
};
};
};
},
{
glyphname = jdotless;
lastChange = "2016-08-22 14:15:06 +0000";
layers = (
{
layerId = "CAA31E91-2985-420A-82BA-6B4D8404D924";
paths = (
{
closed = 1;
nodes = (
"148 -217 OFFCURVE",
"158 -61 OFFCURVE",
"158 55 CURVE SMOOTH",
"158 501 LINE",
"102 501 LINE",
"102 5 LINE SMOOTH",
"102 -113 OFFCURVE",
"70 -165 OFFCURVE",
"-9 -165 CURVE SMOOTH",
"-20 -165 OFFCURVE",
"-32 -164 OFFCURVE",
"-39 -163 CURVE",
"-38 -214 LINE",
"-24 -217 OFFCURVE",
"-7 -217 OFFCURVE",
"9 -217 CURVE SMOOTH"
);
}
);
width = 246;
},
{
layerId = "5F288B98-6DDA-4BF8-A62B-164790BC7EB2";
paths = (
{
closed = 1;
nodes = (
"11 -204 CURVE SMOOTH",
"-8 -204 OFFCURVE",
"-30 -203 OFFCURVE",
"-55 -197 CURVE",
"-55 -118 LINE",
"-33 -123 OFFCURVE",
"-19 -124 OFFCURVE",
"-9 -124 CURVE SMOOTH",
"47 -124 OFFCURVE",
"77 -79 OFFCURVE",
"77 20 CURVE SMOOTH",
"77 501 LINE",
"170 501 LINE",
"170 50 LINE SMOOTH",
"170 -62 OFFCURVE",
"154 -204 OFFCURVE"
);
}
);
width = 246;
},
{
layerId = "197E4CC0-43FA-49AB-8E7D-89E0185E23DB";
paths = (
{
closed = 1;
nodes = (
"12 -200 CURVE SMOOTH",
"-8 -200 OFFCURVE",
"-31 -198 OFFCURVE",
"-60 -192 CURVE",
"-60 -104 LINE",
"-33 -110 OFFCURVE",
"-18 -112 OFFCURVE",
"-8 -112 CURVE SMOOTH",
"41 -112 OFFCURVE",
"70 -69 OFFCURVE",
"70 25 CURVE SMOOTH",
"70 501 LINE",
"173 501 LINE",
"173 48 LINE SMOOTH",
"173 -63 OFFCURVE",
"156 -200 OFFCURVE"
);
}
);
width = 246;
}
);
unicode = 0237;
},
{
glyphname = k;
lastChange = "2016-08-22 09:31:58 +0000";
layers = (
{
layerId = "CAA31E91-2985-420A-82BA-6B4D8404D924";
paths = (
{
closed = 1;
nodes = (
"144 0 LINE",
"144 261 LINE",
"432 0 LINE",
"495 0 LINE",
"202 265 LINE",
"474 501 LINE",
"411 501 LINE",
"144 268 LINE",
"144 740 LINE",
"96 740 LINE",
"96 0 LINE"
);
}
);
width = 510;
},
{
associatedMasterId = "CAA31E91-2985-420A-82BA-6B4D8404D924";
layerId = "F05B6B06-D3DE-469F-A688-307EC2F60944";
name = b;
width = 527;
},
{
layerId = "5F288B98-6DDA-4BF8-A62B-164790BC7EB2";
paths = (
{
closed = 1;
nodes = (
"83 0 LINE",
"83 725 LINE",
"173 725 LINE",
"173 289 LINE",
"390 501 LINE",
"513 501 LINE",
"259 263 LINE",
"531 0 LINE",
"411 0 LINE",
"173 238 LINE",
"173 0 LINE"
);
}
);
width = 526;
},
{
layerId = "197E4CC0-43FA-49AB-8E7D-89E0185E23DB";
paths = (
{
closed = 1;
nodes = (
"63 0 LINE",
"63 705 LINE",
"201 705 LINE",
"201 301 LINE",
"363 501 LINE",
"554 501 LINE",
"324 257 LINE",
"568 0 LINE",
"385 0 LINE",
"201 205 LINE",
"201 0 LINE"
);
}
);
width = 540;
}
);
unicode = 006B;
userData = {
com.typemytype.robofont.layerData = {
b = {
anchors = (
);
components = (
);
contours = (
);
lib = {
};
name = k;
unicodes = (
);
width = 1078.6500;
};
};
};
},
{
glyphname = kgreenlandic;
lastChange = "2016-08-22 09:22:14 +0000";
layers = (
{
layerId = "CAA31E91-2985-420A-82BA-6B4D8404D924";
paths = (
{
closed = 1;
nodes = (
"149 0 LINE",
"149 250 LINE",
"440 0 LINE",
"506 0 LINE",
"211 251 LINE",
"486 501 LINE",
"418 501 LINE",
"149 257 LINE",
"149 501 LINE",
"99 501 LINE",
"99 0 LINE"
);
}
);
width = 528;
},
{
layerId = "5F288B98-6DDA-4BF8-A62B-164790BC7EB2";
paths = (
{
closed = 1;
nodes = (
"83 0 LINE",
"83 501 LINE",
"173 501 LINE",
"173 280 LINE",
"388 501 LINE",
"511 501 LINE",
"254 250 LINE",
"364 149 OFFCURVE",
"415 103 OFFCURVE",
"529 0 CURVE",
"409 0 LINE",
"173 220 LINE",
"173 0 LINE"
);
}
);
width = 528;
},
{
layerId = "197E4CC0-43FA-49AB-8E7D-89E0185E23DB";
paths = (
{
closed = 1;
nodes = (
"64 0 LINE",
"64 501 LINE",
"202 501 LINE",
"202 321 LINE",
"353 501 LINE",
"540 501 LINE",
"293 248 LINE",
"496 61 OFFCURVE",
"330 206 OFFCURVE",
"556 0 CURVE",
"373 0 LINE",
"202 171 LINE",
"202 0 LINE"
);
}
);
width = 528;
}
);
unicode = 0138;
},
{
glyphname = l;
lastChange = "2016-08-22 09:31:58 +0000";
layers = (
{
layerId = "CAA31E91-2985-420A-82BA-6B4D8404D924";
paths = (
{
closed = 1;
nodes = (
"148 0 LINE",
"148 740 LINE",
"100 740 LINE",
"100 0 LINE"
);
}
);
width = 249;
},
{
associatedMasterId = "CAA31E91-2985-420A-82BA-6B4D8404D924";
layerId = "5ACE659C-C149-4594-9D86-E3D5AFF8D0AB";
name = b;
width = 255;
},
{
layerId = "5F288B98-6DDA-4BF8-A62B-164790BC7EB2";
paths = (
{
closed = 1;
nodes = (
"83 0 LINE",
"83 725 LINE",
"172 725 LINE",
"172 0 LINE"
);
}
);
width = 253;
},
{
layerId = "197E4CC0-43FA-49AB-8E7D-89E0185E23DB";
paths = (
{
closed = 1;
nodes = (
"64 0 LINE",
"64 705 LINE",
"201 705 LINE",
"201 0 LINE"
);
}
);
width = 260;
}
);
unicode = 006C;
userData = {
com.typemytype.robofont.layerData = {
b = {
anchors = (
);
components = (
);
contours = (
);
lib = {
};
name = l;
unicodes = (
);
width = 521.8000;
};
};
};
},
{
glyphname = lslash;
lastChange = "2016-08-22 09:22:14 +0000";
layers = (
{
layerId = "CAA31E91-2985-420A-82BA-6B4D8404D924";
paths = (
{
closed = 1;
nodes = (
"150 0 LINE",
"150 345 LINE",
"259 396 LINE",
"259 432 LINE",
"150 381 LINE",
"150 740 LINE",
"101 740 LINE",
"101 362 LINE",
"-2 313 LINE",
"-2 275 LINE",
"101 324 LINE",
"101 0 LINE"
);
}
);
width = 246;
},
{
layerId = "5F288B98-6DDA-4BF8-A62B-164790BC7EB2";
paths = (
{
closed = 1;
nodes = (
"76 0 LINE",
"76 341 LINE",
"1 292 LINE",
"1 368 LINE",
"76 417 LINE",
"76 725 LINE",
"166 725 LINE",
"166 475 LINE",
"242 524 LINE",
"242 448 LINE",
"167 398 LINE",
"167 0 LINE"
);
}
);
width = 246;
},
{
layerId = "197E4CC0-43FA-49AB-8E7D-89E0185E23DB";
paths = (
{
closed = 1;
nodes = (
"47 0 LINE",
"47 363 LINE",
"5 314 LINE",
"5 438 LINE",
"46 486 LINE",
"46 705 LINE",
"185 705 LINE",
"185 594 LINE",
"221 639 LINE",
"221 513 LINE",
"187 465 LINE",
"187 0 LINE"
);
}
);
width = 246;
}
);
unicode = 0142;
},
{
glyphname = m;
lastChange = "2016-08-22 09:31:58 +0000";
layers = (
{
layerId = "CAA31E91-2985-420A-82BA-6B4D8404D924";
paths = (
{
closed = 1;
nodes = (
"147 0 LINE",
"147 331 LINE",
"173 424 OFFCURVE",
"237 474 OFFCURVE",
"333 474 CURVE SMOOTH",
"413 474 OFFCURVE",
"455 415 OFFCURVE",
"455 304 CURVE SMOOTH",
"455 0 LINE",
"502 0 LINE",
"502 304 LINE",
"522 415 OFFCURVE",
"584 474 OFFCURVE",
"688 474 CURVE SMOOTH",
"768 474 OFFCURVE",
"810 415 OFFCURVE",
"810 304 CURVE SMOOTH",
"810 0 LINE",
"857 0 LINE",
"857 304 LINE SMOOTH",
"857 441 OFFCURVE",
"799 514 OFFCURVE",
"688 514 CURVE SMOOTH",
"605 514 OFFCURVE",
"529 474 OFFCURVE",
"494 385 CURVE",
"474 470 OFFCURVE",
"419 514 OFFCURVE",
"333 514 CURVE SMOOTH",
"244 514 OFFCURVE",
"179 475 OFFCURVE",
"145 400 CURVE",
"140 501 LINE",
"97 501 LINE SMOOTH",
"97 501 OFFCURVE",
"100 448 OFFCURVE",
"100 430 CURVE SMOOTH",
"100 0 LINE"
);
}
);
width = 950;
},
{
associatedMasterId = "CAA31E91-2985-420A-82BA-6B4D8404D924";
layerId = "EF217A8C-6D0B-4B5B-93BF-825B7284FB52";
name = b;
width = 915;
},
{
layerId = "5F288B98-6DDA-4BF8-A62B-164790BC7EB2";
paths = (
{
closed = 1;
nodes = (
"87 0 LINE",
"87 364 LINE SMOOTH",
"87 416 OFFCURVE",
"84 464 OFFCURVE",
"83 501 CURVE",
"176 501 LINE",
"176 419 LINE",
"203 481 OFFCURVE",
"274 514 OFFCURVE",
"338 514 CURVE SMOOTH",
"407 514 OFFCURVE",
"464 473 OFFCURVE",
"488 404 CURVE",
"524 471 OFFCURVE",
"589 514 OFFCURVE",
"670 514 CURVE SMOOTH",
"782 514 OFFCURVE",
"841 435 OFFCURVE",
"841 307 CURVE SMOOTH",
"841 0 LINE",
"751 0 LINE",
"751 298 LINE SMOOTH",
"751 391 OFFCURVE",
"723 441 OFFCURVE",
"659 441 CURVE SMOOTH",
"585 441 OFFCURVE",
"511 374 OFFCURVE",
"511 286 CURVE SMOOTH",
"511 0 LINE",
"421 0 LINE",
"421 309 LINE SMOOTH",
"421 384 OFFCURVE",
"393 441 OFFCURVE",
"321 441 CURVE SMOOTH",
"240 441 OFFCURVE",
"177 371 OFFCURVE",
"177 296 CURVE SMOOTH",
"177 0 LINE"
);
}
);
width = 917;
},
{
layerId = "197E4CC0-43FA-49AB-8E7D-89E0185E23DB";
paths = (
{
closed = 1;
nodes = (
"73 0 LINE",
"73 327 LINE SMOOTH",
"73 431 OFFCURVE",
"62 467 OFFCURVE",
"61 501 CURVE",
"207 501 LINE",
"207 445 LINE",
"229 480 OFFCURVE",
"275 514 OFFCURVE",
"335 514 CURVE SMOOTH",
"393 514 OFFCURVE",
"453 491 OFFCURVE",
"485 431 CURVE",
"522 475 OFFCURVE",
"565 514 OFFCURVE",
"637 514 CURVE SMOOTH",
"771 514 OFFCURVE",
"828 430 OFFCURVE",
"828 307 CURVE SMOOTH",
"828 0 LINE",
"689 0 LINE",
"689 301 LINE SMOOTH",
"689 324 OFFCURVE",
"682 402 OFFCURVE",
"628 402 CURVE SMOOTH",
"553 402 OFFCURVE",
"519 330 OFFCURVE",
"519 282 CURVE SMOOTH",
"519 0 LINE",
"381 0 LINE",
"381 305 LINE SMOOTH",
"381 331 OFFCURVE",
"379 402 OFFCURVE",
"317 402 CURVE SMOOTH",
"254 402 OFFCURVE",
"211 356 OFFCURVE",
"211 309 CURVE SMOOTH",
"211 0 LINE"
);
}
);
width = 888;
}
);
unicode = 006D;
userData = {
com.typemytype.robofont.guides = (
);
com.typemytype.robofont.layerData = {
b = {
anchors = (
);
components = (
);
contours = (
);
lib = {
};
name = m;
unicodes = (
);
width = 1873.9500;
};
};
};
},
{
glyphname = n;
lastChange = "2016-08-22 09:31:58 +0000";
layers = (
{
layerId = "CAA31E91-2985-420A-82BA-6B4D8404D924";
paths = (
{
closed = 1;
nodes = (
"146 0 LINE",
"146 331 LINE",
"172 424 OFFCURVE",
"246 474 OFFCURVE",
"341 474 CURVE SMOOTH",
"431 474 OFFCURVE",
"473 415 OFFCURVE",
"473 304 CURVE SMOOTH",
"473 0 LINE",
"521 0 LINE",
"521 304 LINE SMOOTH",
"521 441 OFFCURVE",
"462 514 OFFCURVE",
"341 514 CURVE SMOOTH",
"253 514 OFFCURVE",
"178 475 OFFCURVE",
"144 400 CURVE",
"139 501 LINE",
"96 501 LINE SMOOTH",
"96 501 OFFCURVE",
"99 448 OFFCURVE",
"99 430 CURVE SMOOTH",
"99 0 LINE"
);
}
);
width = 614;
},
{
associatedMasterId = "CAA31E91-2985-420A-82BA-6B4D8404D924";
layerId = "5287D191-54C1-46BA-A1B6-AB61092740FC";
name = b;
width = 605;
},
{
layerId = "5F288B98-6DDA-4BF8-A62B-164790BC7EB2";
paths = (
{
closed = 1;
nodes = (
"177 0 LINE",
"177 314 LINE SMOOTH",
"177 365 OFFCURVE",
"244 441 OFFCURVE",
"329 441 CURVE SMOOTH",
"424 441 OFFCURVE",
"442 375 OFFCURVE",
"442 268 CURVE SMOOTH",
"442 0 LINE",
"532 0 LINE",
"532 273 LINE SMOOTH",
"532 424 OFFCURVE",
"483 514 OFFCURVE",
"346 514 CURVE SMOOTH",
"278 514 OFFCURVE",
"210 480 OFFCURVE",
"176 425 CURVE",
"176 501 LINE",
"82 501 LINE",
"82 501 OFFCURVE",
"87 438 OFFCURVE",
"87 364 CURVE SMOOTH",
"87 0 LINE"
);
}
);
width = 605;
},
{
layerId = "197E4CC0-43FA-49AB-8E7D-89E0185E23DB";
paths = (
{
closed = 1;
nodes = (
"210 0 LINE",
"210 292 LINE SMOOTH",
"210 380 OFFCURVE",
"298 402 OFFCURVE",
"321 402 CURVE SMOOTH",
"367 402 OFFCURVE",
"397 386 OFFCURVE",
"397 309 CURVE SMOOTH",
"397 0 LINE",
"536 0 LINE",
"536 293 LINE SMOOTH",
"536 480 OFFCURVE",
"446 514 OFFCURVE",
"350 514 CURVE SMOOTH",
"313 514 OFFCURVE",
"245 496 OFFCURVE",
"207 439 CURVE",
"207 501 LINE",
"60 501 LINE",
"60 501 OFFCURVE",
"72 424 OFFCURVE",
"72 280 CURVE SMOOTH",
"72 0 LINE"
);
}
);
width = 595;
}
);
unicode = 006E;
userData = {
com.typemytype.robofont.layerData = {
b = {
anchors = (
);
components = (
);
contours = (
);
lib = {
};
name = n;
unicodes = (
);
width = 1240.0500;
};
};
};
},
{
glyphname = eng;
lastChange = "2016-08-22 09:22:14 +0000";
layers = (
{
layerId = "CAA31E91-2985-420A-82BA-6B4D8404D924";
paths = (
{
closed = 1;
nodes = (
"530 -190 OFFCURVE",
"539 -83 OFFCURVE",
"539 76 CURVE SMOOTH",
"539 256 LINE SMOOTH",
"539 378 OFFCURVE",
"519 513 OFFCURVE",
"346 513 CURVE SMOOTH",
"252 513 OFFCURVE",
"198 487 OFFCURVE",
"150 434 CURVE",
"146 501 LINE",
"101 501 LINE SMOOTH",
"101 501 OFFCURVE",
"99 448 OFFCURVE",
"99 430 CURVE SMOOTH",
"99 0 LINE",
"148 0 LINE",
"148 331 LINE SMOOTH",
"149 354 OFFCURVE",
"203 470 OFFCURVE",
"339 470 CURVE SMOOTH",
"477 470 OFFCURVE",
"488 366 OFFCURVE",
"488 235 CURVE SMOOTH",
"488 80 LINE",
"488 58 LINE SMOOTH",
"488 -64 OFFCURVE",
"484 -149 OFFCURVE",
"341 -149 CURVE SMOOTH",
"296 -149 OFFCURVE",
"231 -140 OFFCURVE",
"136 -116 CURVE",
"132 -163 LINE",
"219 -182 OFFCURVE",
"288 -190 OFFCURVE",
"341 -190 CURVE SMOOTH"
);
}
);
width = 632;
},
{
layerId = "5F288B98-6DDA-4BF8-A62B-164790BC7EB2";
paths = (
{
closed = 1;
nodes = (
"120 -170 CURVE",
"131 -96 LINE",
"195 -114 OFFCURVE",
"248 -123 OFFCURVE",
"292 -123 CURVE SMOOTH",
"400 -123 OFFCURVE",
"437 -65 OFFCURVE",
"437 49 CURVE SMOOTH",
"437 268 LINE SMOOTH",
"437 375 OFFCURVE",
"421 440 OFFCURVE",
"326 440 CURVE SMOOTH",
"241 440 OFFCURVE",
"176 365 OFFCURVE",
"176 314 CURVE SMOOTH",
"176 0 LINE",
"86 0 LINE",
"86 364 LINE SMOOTH",
"86 438 OFFCURVE",
"81 501 OFFCURVE",
"81 501 CURVE",
"174 501 LINE",
"175 431 LINE",
"212 486 OFFCURVE",
"275 513 OFFCURVE",
"343 513 CURVE SMOOTH",
"481 513 OFFCURVE",
"528 424 OFFCURVE",
"528 273 CURVE SMOOTH",
"528 64 LINE SMOOTH",
"528 -101 OFFCURVE",
"464 -194 OFFCURVE",
"294 -194 CURVE SMOOTH",
"245 -194 OFFCURVE",
"187 -186 OFFCURVE"
);
}
);
width = 603;
},
{
layerId = "197E4CC0-43FA-49AB-8E7D-89E0185E23DB";
paths = (
{
closed = 1;
nodes = (
"105 -179 CURVE",
"125 -72 LINE",
"151 -80 OFFCURVE",
"192 -89 OFFCURVE",
"233 -89 CURVE SMOOTH",
"288 -89 OFFCURVE",
"376 -80 OFFCURVE",
"376 11 CURVE SMOOTH",
"376 309 LINE SMOOTH",
"376 386 OFFCURVE",
"355 403 OFFCURVE",
"310 403 CURVE SMOOTH",
"287 403 OFFCURVE",
"209 380 OFFCURVE",
"209 292 CURVE SMOOTH",
"209 0 LINE",
"71 0 LINE",
"71 280 LINE SMOOTH",
"71 424 OFFCURVE",
"59 501 OFFCURVE",
"59 501 CURVE",
"207 501 LINE",
"206 427 LINE",
"229 485 OFFCURVE",
"301 514 OFFCURVE",
"339 514 CURVE SMOOTH",
"435 514 OFFCURVE",
"515 480 OFFCURVE",
"515 293 CURVE SMOOTH",
"515 48 LINE SMOOTH",
"515 -124 OFFCURVE",
"387 -197 OFFCURVE",
"239 -197 CURVE SMOOTH",
"195 -197 OFFCURVE",
"150 -191 OFFCURVE"
);
}
);
width = 570;
}
);
unicode = 014B;
},
{
glyphname = o;
lastChange = "2016-08-22 09:31:58 +0000";
layers = (
{
layerId = "CAA31E91-2985-420A-82BA-6B4D8404D924";
paths = (
{
closed = 1;
nodes = (
"455 -10 OFFCURVE",
"554 91 OFFCURVE",
"554 249 CURVE SMOOTH",
"554 410 OFFCURVE",
"455 514 OFFCURVE",
"300 514 CURVE SMOOTH",
"146 514 OFFCURVE",
"47 410 OFFCURVE",
"47 249 CURVE SMOOTH",
"47 91 OFFCURVE",
"146 -10 OFFCURVE",
"300 -10 CURVE SMOOTH"
);
},
{
closed = 1;
nodes = (
"171 30 OFFCURVE",
"96 116 OFFCURVE",
"96 249 CURVE SMOOTH",
"96 386 OFFCURVE",
"171 474 OFFCURVE",
"300 474 CURVE SMOOTH",
"430 474 OFFCURVE",
"505 386 OFFCURVE",
"505 249 CURVE SMOOTH",
"505 116 OFFCURVE",
"430 30 OFFCURVE",
"300 30 CURVE SMOOTH"
);
}
);
width = 601;
},
{
associatedMasterId = "CAA31E91-2985-420A-82BA-6B4D8404D924";
layerId = "B59F8B29-4592-4CF8-BD33-09C2EC0758CA";
name = b;
width = 615;
},
{
layerId = "5F288B98-6DDA-4BF8-A62B-164790BC7EB2";
paths = (
{
closed = 1;
nodes = (
"309 62 CURVE SMOOTH",
"415 62 OFFCURVE",
"470 138 OFFCURVE",
"470 250 CURVE SMOOTH",
"470 364 OFFCURVE",
"414 441 OFFCURVE",
"308 441 CURVE SMOOTH",
"201 441 OFFCURVE",
"144 364 OFFCURVE",
"144 249 CURVE SMOOTH",
"144 137 OFFCURVE",
"200 62 OFFCURVE"
);
},
{
closed = 1;
nodes = (
"308 -11 CURVE SMOOTH",
"145 -11 OFFCURVE",
"49 95 OFFCURVE",
"49 250 CURVE SMOOTH",
"49 407 OFFCURVE",
"146 514 OFFCURVE",
"310 514 CURVE SMOOTH",
"471 514 OFFCURVE",
"565 408 OFFCURVE",
"565 250 CURVE SMOOTH",
"565 95 OFFCURVE",
"470 -11 OFFCURVE"
);
}
);
width = 613;
},
{
layerId = "197E4CC0-43FA-49AB-8E7D-89E0185E23DB";
paths = (
{
closed = 1;
nodes = (
"438 252 CURVE SMOOTH",
"438 328 OFFCURVE",
"407 402 OFFCURVE",
"319 402 CURVE SMOOTH",
"232 402 OFFCURVE",
"198 329 OFFCURVE",
"198 253 CURVE SMOOTH",
"198 181 OFFCURVE",
"227 100 OFFCURVE",
"318 100 CURVE SMOOTH",
"412 100 OFFCURVE",
"438 181 OFFCURVE"
);
},
{
closed = 1;
nodes = (
"56 251 CURVE SMOOTH",
"56 386 OFFCURVE",
"141 514 OFFCURVE",
"320 514 CURVE SMOOTH",
"508 514 OFFCURVE",
"582 387 OFFCURVE",
"582 249 CURVE SMOOTH",
"582 123 OFFCURVE",
"502 -11 OFFCURVE",
"321 -11 CURVE SMOOTH",
"136 -11 OFFCURVE",
"56 121 OFFCURVE"
);
}
);
width = 638;
}
);
unicode = 006F;
userData = {
com.typemytype.robofont.layerData = {
b = {
anchors = (
);
components = (
);
contours = (
);
lib = {
};
name = o;
unicodes = (
);
width = 1259.2000;
};
};
};
},
{
glyphname = oslash;
lastChange = "2016-08-22 09:22:14 +0000";
layers = (
{
components = (
{
name = o;
}
);
layerId = "CAA31E91-2985-420A-82BA-6B4D8404D924";
paths = (
{
closed = 1;
nodes = (
"471 600 LINE",
"447 610 LINE",
"138 -103 LINE",
"159 -111 LINE"
);
}
);
width = 601;
},
{
associatedMasterId = "CAA31E91-2985-420A-82BA-6B4D8404D924";
layerId = "281A2436-622F-4941-AFBD-DF4C793C6988";
name = b;
width = 613;
},
{
components = (
{
name = o;
}
);
layerId = "5F288B98-6DDA-4BF8-A62B-164790BC7EB2";
paths = (
{
closed = 1;
nodes = (
"173 -102 LINE",
"126 -83 LINE",
"436 602 LINE",
"484 582 LINE"
);
}
);
width = 612;
},
{
components = (
{
name = o;
}
);
layerId = "197E4CC0-43FA-49AB-8E7D-89E0185E23DB";
paths = (
{
closed = 1;
nodes = (
"153 -102 LINE",
"104 -77 LINE",
"414 575 LINE",
"463 552 LINE"
);
}
);
width = 618;
}
);
unicode = 00F8;
userData = {
com.typemytype.robofont.layerData = {
b = {
anchors = (
);
components = (
);
contours = (
);
lib = {
};
name = oslash;
unicodes = (
);
width = 1255;
};
};
};
},
{
glyphname = oe;
lastChange = "2016-08-22 09:22:14 +0000";
layers = (
{
layerId = "CAA31E91-2985-420A-82BA-6B4D8404D924";
paths = (
{
closed = 1;
nodes = (
"388 -10 OFFCURVE",
"467 42 OFFCURVE",
"497 124 CURVE",
"529 42 OFFCURVE",
"612 -10 OFFCURVE",
"707 -10 CURVE SMOOTH",
"768 -10 OFFCURVE",
"840 14 OFFCURVE",
"890 53 CURVE",
"873 86 LINE",
"825 52 OFFCURVE",
"762 30 OFFCURVE",
"711 30 CURVE SMOOTH",
"596 30 OFFCURVE",
"522 110 OFFCURVE",
"522 233 CURVE SMOOTH",
"522 248 LINE",
"913 248 LINE",
"913 272 LINE SMOOTH",
"913 419 OFFCURVE",
"831 514 OFFCURVE",
"703 514 CURVE SMOOTH",
"603 514 OFFCURVE",
"519 461 OFFCURVE",
"497 373 CURVE",
"466 461 OFFCURVE",
"390 514 OFFCURVE",
"294 514 CURVE SMOOTH",
"141 514 OFFCURVE",
"42 410 OFFCURVE",
"42 248 CURVE SMOOTH",
"42 91 OFFCURVE",
"140 -10 OFFCURVE",
"292 -10 CURVE SMOOTH"
);
},
{
closed = 1;
nodes = (
"172 30 OFFCURVE",
"95 114 OFFCURVE",
"95 246 CURVE SMOOTH",
"95 384 OFFCURVE",
"173 474 OFFCURVE",
"294 474 CURVE SMOOTH",
"406 474 OFFCURVE",
"478 386 OFFCURVE",
"478 250 CURVE SMOOTH",
"478 116 OFFCURVE",
"405 30 OFFCURVE",
"292 30 CURVE SMOOTH"
);
},
{
closed = 1;
nodes = (
"520 399 OFFCURVE",
"596 474 OFFCURVE",
"703 474 CURVE SMOOTH",
"798 474 OFFCURVE",
"862 411 OFFCURVE",
"872 313 CURVE SMOOTH",
"873 305 OFFCURVE",
"873 293 OFFCURVE",
"873 282 CURVE",
"522 282 LINE"
);
}
);
width = 950;
},
{
associatedMasterId = "CAA31E91-2985-420A-82BA-6B4D8404D924";
components = (
{
name = o;
transform = "{1, 0, 0, 1, -3, 0}";
},
{
name = e;
transform = "{1, 0, 0, 1, 396, 0}";
}
);
layerId = "1C2BA58A-509A-4FAE-B28B-FF03A6008AB9";
name = b;
width = 967;
},
{
layerId = "5F288B98-6DDA-4BF8-A62B-164790BC7EB2";
paths = (
{
closed = 1;
nodes = (
"544 301 CURVE",
"827 301 LINE",
"827 305 OFFCURVE",
"827 308 OFFCURVE",
"827 312 CURVE SMOOTH",
"819 383 OFFCURVE",
"769 441 OFFCURVE",
"691 441 CURVE SMOOTH",
"608 441 OFFCURVE",
"551 374 OFFCURVE"
);
},
{
closed = 1;
nodes = (
"305 62 CURVE SMOOTH",
"409 62 OFFCURVE",
"455 150 OFFCURVE",
"455 250 CURVE SMOOTH",
"455 357 OFFCURVE",
"409 441 OFFCURVE",
"302 441 CURVE SMOOTH",
"197 441 OFFCURVE",
"141 356 OFFCURVE",
"141 248 CURVE SMOOTH",
"140 147 OFFCURVE",
"191 62 OFFCURVE"
);
},
{
closed = 1;
nodes = (
"302 -11 CURVE SMOOTH",
"137 -11 OFFCURVE",
"46 102 OFFCURVE",
"46 249 CURVE SMOOTH",
"46 395 OFFCURVE",
"135 514 OFFCURVE",
"304 514 CURVE SMOOTH",
"399 514 OFFCURVE",
"463 469 OFFCURVE",
"501 401 CURVE",
"537 471 OFFCURVE",
"598 514 OFFCURVE",
"688 514 CURVE SMOOTH",
"832 514 OFFCURVE",
"910 408 OFFCURVE",
"910 256 CURVE SMOOTH",
"910 233 LINE",
"544 233 LINE",
"544 232 OFFCURVE",
"544 216 OFFCURVE",
"544 215 CURVE SMOOTH",
"549 126 OFFCURVE",
"614 62 OFFCURVE",
"710 62 CURVE SMOOTH",
"814 62 OFFCURVE",
"866 113 OFFCURVE",
"866 113 CURVE",
"894 46 LINE",
"894 46 OFFCURVE",
"836 -11 OFFCURVE",
"701 -11 CURVE SMOOTH",
"615 -11 OFFCURVE",
"532 33 OFFCURVE",
"499 106 CURVE",
"467 32 OFFCURVE",
"390 -11 OFFCURVE"
);
}
);
width = 965;
},
{
layerId = "197E4CC0-43FA-49AB-8E7D-89E0185E23DB";
paths = (
{
closed = 1;
nodes = (
"570 319 CURVE",
"770 319 LINE",
"770 312 LINE SMOOTH",
"761 369 OFFCURVE",
"717 402 OFFCURVE",
"671 402 CURVE SMOOTH",
"623 402 OFFCURVE",
"588 362 OFFCURVE"
);
},
{
closed = 1;
nodes = (
"318 100 CURVE SMOOTH",
"392 100 OFFCURVE",
"425 170 OFFCURVE",
"425 250 CURVE SMOOTH",
"425 335 OFFCURVE",
"395 402 OFFCURVE",
"315 402 CURVE SMOOTH",
"237 402 OFFCURVE",
"194 334 OFFCURVE",
"194 248 CURVE SMOOTH",
"194 167 OFFCURVE",
"234 100 OFFCURVE"
);
},
{
closed = 1;
nodes = (
"318 -11 CURVE SMOOTH",
"155 -11 OFFCURVE",
"52 96 OFFCURVE",
"52 250 CURVE SMOOTH",
"52 401 OFFCURVE",
"146 514 OFFCURVE",
"311 514 CURVE SMOOTH",
"401 514 OFFCURVE",
"463 478 OFFCURVE",
"497 440 CURVE",
"537 488 OFFCURVE",
"582 516 OFFCURVE",
"676 516 CURVE SMOOTH",
"820 516 OFFCURVE",
"906 406 OFFCURVE",
"906 236 CURVE SMOOTH",
"906 199 LINE",
"568 199 LINE",
"569 193 OFFCURVE",
"570 197 OFFCURVE",
"570 192 CURVE SMOOTH",
"585 132 OFFCURVE",
"626 100 OFFCURVE",
"713 100 CURVE SMOOTH",
"786 100 OFFCURVE",
"868 156 OFFCURVE",
"868 156 CURVE",
"904 56 LINE",
"904 56 OFFCURVE",
"815 -11 OFFCURVE",
"696 -11 CURVE SMOOTH",
"623 -11 OFFCURVE",
"538 21 OFFCURVE",
"499 63 CURVE",
"467 23 OFFCURVE",
"387 -11 OFFCURVE"
);
}
);
width = 985;
}
);
unicode = 0153;
userData = {
com.typemytype.robofont.layerData = {
b = {
anchors = (
);
components = (
{
baseGlyph = o;
transformation = (
1,
0,
0,
1,
-6,
0
);
},
{
baseGlyph = e;
transformation = (
1,
0,
0,
1,
811,
0
);
}
);
contours = (
);
lib = {
};
name = oe;
unicodes = (
);
width = 1979.8000;
};
};
};
},
{
glyphname = p;
lastChange = "2016-08-22 09:31:58 +0000";
layers = (
{
layerId = "CAA31E91-2985-420A-82BA-6B4D8404D924";
paths = (
{
closed = 1;
nodes = (
"147 -239 LINE",
"147 104 LINE",
"178 28 OFFCURVE",
"255 -13 OFFCURVE",
"343 -13 CURVE SMOOTH",
"481 -13 OFFCURVE",
"570 89 OFFCURVE",
"570 247 CURVE SMOOTH",
"570 408 OFFCURVE",
"481 511 OFFCURVE",
"343 511 CURVE SMOOTH",
"251 511 OFFCURVE",
"174 458 OFFCURVE",
"146 380 CURVE",
"144 501 LINE",
"96 501 LINE",
"96 500 OFFCURVE",
"99 422 OFFCURVE",
"99 370 CURVE SMOOTH",
"99 -239 LINE"
);
},
{
closed = 1;
nodes = (
"224 27 OFFCURVE",
"147 106 OFFCURVE",
"147 240 CURVE SMOOTH",
"147 376 OFFCURVE",
"224 471 OFFCURVE",
"343 471 CURVE SMOOTH",
"458 471 OFFCURVE",
"522 383 OFFCURVE",
"522 247 CURVE SMOOTH",
"522 113 OFFCURVE",
"458 27 OFFCURVE",
"343 27 CURVE SMOOTH"
);
}
);
width = 617;
},
{
associatedMasterId = "CAA31E91-2985-420A-82BA-6B4D8404D924";
layerId = "BA701F19-376E-41B0-A0FD-A307C3AB582E";
name = b;
width = 615;
},
{
layerId = "5F288B98-6DDA-4BF8-A62B-164790BC7EB2";
paths = (
{
closed = 1;
nodes = (
"87 -205 LINE",
"87 361 LINE SMOOTH",
"87 395 OFFCURVE",
"85 452 OFFCURVE",
"82 501 CURVE",
"176 501 LINE",
"176 414 LINE",
"197 469 OFFCURVE",
"269 514 OFFCURVE",
"340 514 CURVE SMOOTH",
"479 514 OFFCURVE",
"566 409 OFFCURVE",
"566 257 CURVE SMOOTH",
"566 99 OFFCURVE",
"477 -11 OFFCURVE",
"340 -11 CURVE SMOOTH",
"262 -11 OFFCURVE",
"194 33 OFFCURVE",
"176 80 CURVE",
"176 -205 LINE"
);
},
{
closed = 1;
nodes = (
"325 62 CURVE SMOOTH",
"419 62 OFFCURVE",
"471 139 OFFCURVE",
"471 254 CURVE SMOOTH",
"471 365 OFFCURVE",
"418 441 OFFCURVE",
"327 441 CURVE SMOOTH",
"231 441 OFFCURVE",
"175 362 OFFCURVE",
"175 244 CURVE SMOOTH",
"175 136 OFFCURVE",
"230 62 OFFCURVE"
);
}
);
width = 615;
},
{
layerId = "197E4CC0-43FA-49AB-8E7D-89E0185E23DB";
paths = (
{
closed = 1;
nodes = (
"73 -187 LINE",
"73 316 LINE SMOOTH",
"73 380 OFFCURVE",
"66 446 OFFCURVE",
"62 501 CURVE",
"209 501 LINE",
"209 438 LINE",
"207 454 OFFCURVE",
"254 514 OFFCURVE",
"358 514 CURVE SMOOTH",
"493 514 OFFCURVE",
"572 381 OFFCURVE",
"572 255 CURVE SMOOTH",
"572 133 OFFCURVE",
"496 -11 OFFCURVE",
"348 -11 CURVE SMOOTH",
"254 -11 OFFCURVE",
"207 49 OFFCURVE",
"209 63 CURVE",
"209 -187 LINE"
);
},
{
closed = 1;
nodes = (
"313 100 CURVE SMOOTH",
"405 100 OFFCURVE",
"429 180 OFFCURVE",
"429 250 CURVE SMOOTH",
"429 327 OFFCURVE",
"400 402 OFFCURVE",
"311 402 CURVE SMOOTH",
"227 402 OFFCURVE",
"199 331 OFFCURVE",
"199 258 CURVE SMOOTH",
"199 183 OFFCURVE",
"222 100 OFFCURVE"
);
}
);
width = 625;
}
);
unicode = 0070;
userData = {
com.typemytype.robofont.layerData = {
b = {
anchors = (
);
components = (
);
contours = (
);
lib = {
};
name = p;
unicodes = (
);
width = 1260.25;
};
};
};
},
{
glyphname = thorn;
lastChange = "2016-08-22 09:22:14 +0000";
layers = (
{
layerId = "CAA31E91-2985-420A-82BA-6B4D8404D924";
paths = (
{
closed = 1;
nodes = (
"140 -219 LINE",
"139 98 LINE",
"173 30 OFFCURVE",
"243 -11 OFFCURVE",
"327 -11 CURVE SMOOTH",
"469 -11 OFFCURVE",
"560 89 OFFCURVE",
"560 250 CURVE SMOOTH",
"560 418 OFFCURVE",
"469 513 OFFCURVE",
"327 513 CURVE SMOOTH",
"241 513 OFFCURVE",
"176 475 OFFCURVE",
"140 406 CURVE",
"139 708 LINE",
"83 708 LINE",
"83 -219 LINE"
);
},
{
closed = 1;
nodes = (
"205 30 OFFCURVE",
"139 120 OFFCURVE",
"139 250 CURVE SMOOTH",
"139 361 OFFCURVE",
"186 471 OFFCURVE",
"327 471 CURVE SMOOTH",
"436 471 OFFCURVE",
"505 391 OFFCURVE",
"505 250 CURVE SMOOTH",
"505 113 OFFCURVE",
"436 30 OFFCURVE",
"327 30 CURVE SMOOTH"
);
}
);
width = 609;
},
{
layerId = "5F288B98-6DDA-4BF8-A62B-164790BC7EB2";
paths = (
{
closed = 1;
nodes = (
"75 -205 LINE",
"75 712 LINE",
"165 712 LINE",
"165 437 LINE",
"202 487 OFFCURVE",
"263 513 OFFCURVE",
"324 513 CURVE SMOOTH",
"481 513 OFFCURVE",
"555 396 OFFCURVE",
"555 257 CURVE SMOOTH",
"555 117 OFFCURVE",
"479 -11 OFFCURVE",
"324 -11 CURVE SMOOTH",
"258 -11 OFFCURVE",
"203 13 OFFCURVE",
"164 58 CURVE",
"163 -205 LINE"
);
},
{
closed = 1;
nodes = (
"312 61 CURVE SMOOTH",
"415 61 OFFCURVE",
"459 153 OFFCURVE",
"459 254 CURVE SMOOTH",
"459 350 OFFCURVE",
"423 440 OFFCURVE",
"315 440 CURVE SMOOTH",
"202 440 OFFCURVE",
"164 345 OFFCURVE",
"164 241 CURVE SMOOTH",
"164 138 OFFCURVE",
"215 61 OFFCURVE"
);
}
);
width = 604;
},
{
layerId = "197E4CC0-43FA-49AB-8E7D-89E0185E23DB";
paths = (
{
closed = 1;
nodes = (
"65 -187 LINE",
"65 716 LINE",
"195 716 LINE",
"193 471 LINE",
"214 495 OFFCURVE",
"282 513 OFFCURVE",
"312 513 CURVE SMOOTH",
"466 513 OFFCURVE",
"549 393 OFFCURVE",
"549 255 CURVE SMOOTH",
"549 117 OFFCURVE",
"471 -11 OFFCURVE",
"312 -11 CURVE SMOOTH",
"271 -11 OFFCURVE",
"220 5 OFFCURVE",
"192 21 CURVE",
"192 -187 LINE"
);
},
{
closed = 1;
nodes = (
"297 100 CURVE SMOOTH",
"373 100 OFFCURVE",
"404 173 OFFCURVE",
"404 254 CURVE SMOOTH",
"404 330 OFFCURVE",
"379 401 OFFCURVE",
"301 401 CURVE SMOOTH",
"220 401 OFFCURVE",
"192 325 OFFCURVE",
"192 241 CURVE SMOOTH",
"192 160 OFFCURVE",
"227 100 OFFCURVE"
);
}
);
width = 599;
}
);
unicode = 00FE;
},
{
glyphname = q;
lastChange = "2016-08-22 09:22:14 +0000";
layers = (
{
layerId = "CAA31E91-2985-420A-82BA-6B4D8404D924";
paths = (
{
closed = 1;
nodes = (
"508 -219 LINE",
"508 426 LINE",
"508 420 LINE",
"509 420 OFFCURVE",
"511 479 OFFCURVE",
"511 499 CURVE SMOOTH",
"511 504 OFFCURVE",
"511 507 OFFCURVE",
"511 507 CURVE",
"510 501 LINE",
"457 501 LINE",
"457 412 LINE",
"438 465 OFFCURVE",
"376 514 OFFCURVE",
"278 514 CURVE SMOOTH",
"145 514 OFFCURVE",
"45 423 OFFCURVE",
"45 239 CURVE SMOOTH",
"45 64 OFFCURVE",
"155 -10 OFFCURVE",
"271 -10 CURVE SMOOTH",
"393 -10 OFFCURVE",
"451 66 OFFCURVE",
"458 116 CURVE",
"458 -219 LINE"
);
},
{
closed = 1;
nodes = (
"177 32 OFFCURVE",
"99 102 OFFCURVE",
"99 244 CURVE SMOOTH",
"99 392 OFFCURVE",
"178 471 OFFCURVE",
"283 471 CURVE SMOOTH",
"378 471 OFFCURVE",
"453 399 OFFCURVE",
"453 272 CURVE SMOOTH",
"453 109 OFFCURVE",
"377 32 OFFCURVE",
"272 32 CURVE SMOOTH"
);
}
);
width = 614;
},
{
associatedMasterId = "CAA31E91-2985-420A-82BA-6B4D8404D924";
layerId = "4356061C-CDA3-46B7-AD45-E8A41E27590B";
name = b;
width = 612;
},
{
layerId = "5F288B98-6DDA-4BF8-A62B-164790BC7EB2";
paths = (
{
closed = 1;
nodes = (
"439 -205 LINE",
"439 74 LINE",
"413 34 OFFCURVE",
"359 -11 OFFCURVE",
"280 -11 CURVE SMOOTH",
"139 -11 OFFCURVE",
"49 96 OFFCURVE",
"49 250 CURVE SMOOTH",
"49 406 OFFCURVE",
"138 514 OFFCURVE",
"283 514 CURVE SMOOTH",
"351 514 OFFCURVE",
"408 481 OFFCURVE",
"439 431 CURVE",
"439 501 LINE",
"532 501 LINE",
"531 488 OFFCURVE",
"528 399 OFFCURVE",
"528 387 CURVE SMOOTH",
"528 -205 LINE"
);
},
{
closed = 1;
nodes = (
"290 62 CURVE SMOOTH",
"388 62 OFFCURVE",
"440 140 OFFCURVE",
"440 260 CURVE SMOOTH",
"440 367 OFFCURVE",
"386 441 OFFCURVE",
"294 441 CURVE SMOOTH",
"199 441 OFFCURVE",
"143 364 OFFCURVE",
"143 249 CURVE SMOOTH",
"143 137 OFFCURVE",
"196 62 OFFCURVE"
);
}
);
width = 612;
},
{
layerId = "197E4CC0-43FA-49AB-8E7D-89E0185E23DB";
paths = (
{
closed = 1;
nodes = (
"416 -187 LINE",
"416 42 LINE",
"433 33 LINE",
"395 4 OFFCURVE",
"355 -11 OFFCURVE",
"291 -11 CURVE SMOOTH",
"119 -11 OFFCURVE",
"53 136 OFFCURVE",
"53 262 CURVE SMOOTH",
"53 384 OFFCURVE",
"131 514 OFFCURVE",
"290 514 CURVE SMOOTH",
"345 514 OFFCURVE",
"398 481 OFFCURVE",
"430 441 CURVE",
"417 437 LINE",
"417 501 LINE",
"558 501 LINE",
"553 427 OFFCURVE",
"552 409 OFFCURVE",
"552 340 CURVE SMOOTH",
"552 -187 LINE"
);
},
{
closed = 1;
nodes = (
"311 100 CURVE SMOOTH",
"400 100 OFFCURVE",
"426 178 OFFCURVE",
"426 244 CURVE SMOOTH",
"426 325 OFFCURVE",
"396 402 OFFCURVE",
"308 402 CURVE SMOOTH",
"223 402 OFFCURVE",
"196 329 OFFCURVE",
"196 254 CURVE SMOOTH",
"196 182 OFFCURVE",
"219 100 OFFCURVE"
);
}
);
width = 612;
}
);
unicode = 0071;
userData = {
com.typemytype.robofont.layerData = {
b = {
anchors = (
);
components = (
);
contours = (
);
lib = {
};
name = q;
unicodes = (
);
width = 1254.3000;
};
};
};
},
{
glyphname = r;
lastChange = "2016-08-22 09:31:58 +0000";
layers = (
{
layerId = "CAA31E91-2985-420A-82BA-6B4D8404D924";
paths = (
{
closed = 1;
nodes = (
"148 0 LINE",
"148 273 LINE SMOOTH",
"148 415 OFFCURVE",
"212 468 OFFCURVE",
"298 468 CURVE SMOOTH",
"313 468 OFFCURVE",
"328 466 OFFCURVE",
"344 463 CURVE",
"346 507 LINE",
"330 510 OFFCURVE",
"313 512 OFFCURVE",
"297 512 CURVE SMOOTH",
"232 512 OFFCURVE",
"172 485 OFFCURVE",
"149 408 CURVE",
"145 501 LINE",
"96 501 LINE SMOOTH",
"96 501 OFFCURVE",
"100 441 OFFCURVE",
"100 379 CURVE SMOOTH",
"100 0 LINE"
);
}
);
width = 376;
},
{
associatedMasterId = "CAA31E91-2985-420A-82BA-6B4D8404D924";
layerId = "BD9AE02E-B9B2-4D7F-A423-C51A6CCAD75F";
name = b;
width = 400;
},
{
layerId = "5F288B98-6DDA-4BF8-A62B-164790BC7EB2";
paths = (
{
closed = 1;
nodes = (
"88 0 LINE",
"88 379 LINE SMOOTH",
"88 394 OFFCURVE",
"83 501 OFFCURVE",
"83 501 CURVE",
"177 501 LINE",
"177 423 LINE",
"207 480 OFFCURVE",
"254 513 OFFCURVE",
"310 513 CURVE SMOOTH",
"328 513 OFFCURVE",
"345 511 OFFCURVE",
"362 507 CURVE",
"362 427 LINE",
"349 430 OFFCURVE",
"329 435 OFFCURVE",
"305 435 CURVE SMOOTH",
"230 435 OFFCURVE",
"178 377 OFFCURVE",
"178 279 CURVE SMOOTH",
"178 0 LINE"
);
}
);
width = 401;
},
{
layerId = "197E4CC0-43FA-49AB-8E7D-89E0185E23DB";
paths = (
{
closed = 1;
nodes = (
"74 0 LINE",
"74 371 LINE SMOOTH",
"74 464 OFFCURVE",
"62 501 OFFCURVE",
"62 501 CURVE",
"210 501 LINE",
"210 441 LINE",
"251 484 OFFCURVE",
"282 515 OFFCURVE",
"332 515 CURVE SMOOTH",
"344 515 OFFCURVE",
"361 512 OFFCURVE",
"380 506 CURVE",
"380 386 LINE",
"353 396 OFFCURVE",
"333 398 OFFCURVE",
"318 398 CURVE SMOOTH",
"261 398 OFFCURVE",
"212 367 OFFCURVE",
"212 287 CURVE SMOOTH",
"212 0 LINE"
);
}
);
width = 371;
}
);
unicode = 0072;
userData = {
com.typemytype.robofont.layerData = {
b = {
anchors = (
);
components = (
);
contours = (
);
lib = {
};
name = r;
unicodes = (
);
width = 818.9000;
};
};
};
},
{
glyphname = s;
lastChange = "2016-08-22 09:31:58 +0000";
layers = (
{
layerId = "CAA31E91-2985-420A-82BA-6B4D8404D924";
paths = (
{
closed = 1;
nodes = (
"331 -10 OFFCURVE",
"409 34 OFFCURVE",
"409 137 CURVE SMOOTH",
"409 209 OFFCURVE",
"369 241 OFFCURVE",
"289 267 CURVE SMOOTH",
"190 297 LINE SMOOTH",
"124 318 OFFCURVE",
"104 333 OFFCURVE",
"104 386 CURVE SMOOTH",
"105 441 OFFCURVE",
"146 474 OFFCURVE",
"240 474 CURVE SMOOTH",
"314 474 OFFCURVE",
"358 450 OFFCURVE",
"374 441 CURVE",
"390 477 LINE",
"372 488 OFFCURVE",
"330 514 OFFCURVE",
"240 514 CURVE SMOOTH",
"131 514 OFFCURVE",
"57 474 OFFCURVE",
"57 382 CURVE SMOOTH",
"57 307 OFFCURVE",
"100 277 OFFCURVE",
"172 255 CURVE SMOOTH",
"273 224 LINE SMOOTH",
"337 205 OFFCURVE",
"363 183 OFFCURVE",
"363 128 CURVE SMOOTH",
"363 46 OFFCURVE",
"290 32 OFFCURVE",
"231 32 CURVE SMOOTH",
"149 32 OFFCURVE",
"94 74 OFFCURVE",
"78 84 CURVE",
"60 47 LINE",
"76 35 OFFCURVE",
"138 -10 OFFCURVE",
"233 -10 CURVE SMOOTH"
);
}
);
width = 457;
},
{
associatedMasterId = "CAA31E91-2985-420A-82BA-6B4D8404D924";
layerId = "B6D6316B-62B0-402F-A3F1-96282529EEFA";
name = b;
paths = (
{
closed = 1;
nodes = (
"243 -11 CURVE SMOOTH",
"138 -11 OFFCURVE",
"71 34 OFFCURVE",
"57 46 CURVE",
"78 108 LINE",
"102 92 OFFCURVE",
"170 53 OFFCURVE",
"236 53 CURVE SMOOTH",
"288 53 OFFCURVE",
"347 69 OFFCURVE",
"347 133 CURVE SMOOTH",
"347 193 OFFCURVE",
"274 208 OFFCURVE",
"201 231 CURVE",
"128 254 OFFCURVE",
"55 286 OFFCURVE",
"55 376 CURVE SMOOTH",
"55 474 OFFCURVE",
"155 513 OFFCURVE",
"238 513 CURVE SMOOTH",
"349 513 OFFCURVE",
"387 484 OFFCURVE",
"406 472 CURVE",
"383 416 LINE",
"377 419 OFFCURVE",
"326 448 OFFCURVE",
"246 448 CURVE SMOOTH",
"173 448 OFFCURVE",
"138 431 OFFCURVE",
"138 378 CURVE SMOOTH",
"138 322 OFFCURVE",
"211 307 OFFCURVE",
"284 284 CURVE SMOOTH",
"357 260 OFFCURVE",
"430 229 OFFCURVE",
"430 139 CURVE SMOOTH",
"430 30 OFFCURVE",
"334 -11 OFFCURVE"
);
}
);
width = 479;
},
{
layerId = "5F288B98-6DDA-4BF8-A62B-164790BC7EB2";
paths = (
{
closed = 1;
nodes = (
"253 -11 CURVE SMOOTH",
"144 -11 OFFCURVE",
"77 33 OFFCURVE",
"57 49 CURVE",
"82 116 LINE",
"113 94 OFFCURVE",
"176 62 OFFCURVE",
"246 62 CURVE SMOOTH",
"298 62 OFFCURVE",
"346 78 OFFCURVE",
"346 136 CURVE SMOOTH",
"346 187 OFFCURVE",
"302 196 OFFCURVE",
"213 226 CURVE",
"128 255 OFFCURVE",
"59 282 OFFCURVE",
"59 374 CURVE SMOOTH",
"59 473 OFFCURVE",
"153 513 OFFCURVE",
"241 513 CURVE SMOOTH",
"333 513 OFFCURVE",
"387 487 OFFCURVE",
"414 470 CURVE",
"388 405 LINE",
"374 413 OFFCURVE",
"318 441 OFFCURVE",
"257 441 CURVE SMOOTH",
"190 441 OFFCURVE",
"150 418 OFFCURVE",
"150 377 CURVE SMOOTH",
"150 328 OFFCURVE",
"182 324 OFFCURVE",
"282 289 CURVE SMOOTH",
"371 258 OFFCURVE",
"435 232 OFFCURVE",
"435 139 CURVE SMOOTH",
"435 29 OFFCURVE",
"344 -11 OFFCURVE"
);
}
);
width = 478;
},
{
layerId = "197E4CC0-43FA-49AB-8E7D-89E0185E23DB";
paths = (
{
closed = 1;
nodes = (
"280 -11 CURVE SMOOTH",
"190 -11 OFFCURVE",
"107 15 OFFCURVE",
"57 53 CURVE",
"90 157 LINE",
"139 120 OFFCURVE",
"212 101 OFFCURVE",
"267 101 CURVE SMOOTH",
"318 101 OFFCURVE",
"341 117 OFFCURVE",
"341 146 CURVE SMOOTH",
"341 152 OFFCURVE",
"339 167 OFFCURVE",
"269 191 CURVE SMOOTH",
"165 227 OFFCURVE",
"64 250 OFFCURVE",
"64 364 CURVE SMOOTH",
"64 473 OFFCURVE",
"150 512 OFFCURVE",
"258 512 CURVE SMOOTH",
"305 512 OFFCURVE",
"382 503 OFFCURVE",
"446 461 CURVE",
"412 365 LINE",
"359 392 OFFCURVE",
"297 403 OFFCURVE",
"262 403 CURVE SMOOTH",
"228 403 OFFCURVE",
"198 388 OFFCURVE",
"198 365 CURVE SMOOTH",
"199 351 OFFCURVE",
"217 342 OFFCURVE",
"280 319 CURVE SMOOTH",
"384 282 OFFCURVE",
"468 260 OFFCURVE",
"468 143 CURVE SMOOTH",
"468 24 OFFCURVE",
"362 -11 OFFCURVE"
);
}
);
width = 514;
}
);
unicode = 0073;
userData = {
com.typemytype.robofont.layerData = {
b = {
anchors = (
);
components = (
);
contours = (
{
points = (
{
segmentType = curve;
smooth = 1;
x = 498;
y = -23;
},
{
smooth = 0;
x = 282;
y = -23;
},
{
smooth = 0;
x = 145;
y = 70;
},
{
segmentType = curve;
smooth = 0;
x = 116;
y = 94;
},
{
segmentType = line;
smooth = 0;
x = 160;
y = 222;
},
{
smooth = 0;
x = 208;
y = 189;
},
{
smooth = 0;
x = 348;
y = 109;
},
{
segmentType = curve;
smooth = 1;
x = 484;
y = 109;
},
{
smooth = 0;
x = 589;
y = 109;
},
{
smooth = 0;
x = 711;
y = 141;
},
{
segmentType = curve;
smooth = 1;
x = 711;
y = 272;
},
{
smooth = 0;
x = 711;
y = 395;
},
{
smooth = 0;
x = 561;
y = 426;
},
{
segmentType = curve;
smooth = 0;
x = 412;
y = 474;
},
{
smooth = 0;
x = 262;
y = 521;
},
{
smooth = 0;
x = 112;
y = 585;
},
{
segmentType = curve;
smooth = 1;
x = 112;
y = 771;
},
{
smooth = 0;
x = 112;
y = 970;
},
{
smooth = 0;
x = 318;
y = 1051;
},
{
segmentType = curve;
smooth = 1;
x = 488;
y = 1051;
},
{
smooth = 0;
x = 715;
y = 1051;
},
{
smooth = 0;
x = 792;
y = 991;
},
{
segmentType = curve;
smooth = 0;
x = 832;
y = 966;
},
{
segmentType = line;
smooth = 0;
x = 785;
y = 851;
},
{
smooth = 0;
x = 772;
y = 858;
},
{
smooth = 0;
x = 667;
y = 917;
},
{
segmentType = curve;
smooth = 1;
x = 504;
y = 917;
},
{
smooth = 0;
x = 355;
y = 917;
},
{
smooth = 0;
x = 283;
y = 882;
},
{
segmentType = curve;
smooth = 1;
x = 283;
y = 774;
},
{
smooth = 0;
x = 283;
y = 660;
},
{
smooth = 0;
x = 433;
y = 629;
},
{
segmentType = curve;
smooth = 1;
x = 582;
y = 581;
},
{
smooth = 0;
x = 732;
y = 533;
},
{
smooth = 0;
x = 881;
y = 468;
},
{
segmentType = curve;
smooth = 1;
x = 881;
y = 284;
},
{
smooth = 0;
x = 881;
y = 62;
},
{
smooth = 0;
x = 685;
y = -23;
}
);
}
);
lib = {
};
name = s;
unicodes = (
);
width = 981.9000;
};
};
};
},
{
glyphname = germandbls;
lastChange = "2016-08-22 09:22:14 +0000";
layers = (
{
layerId = "CAA31E91-2985-420A-82BA-6B4D8404D924";
paths = (
{
closed = 1;
nodes = (
"484 -14 OFFCURVE",
"562 55 OFFCURVE",
"562 161 CURVE SMOOTH",
"562 307 OFFCURVE",
"438 378 OFFCURVE",
"322 409 CURVE SMOOTH",
"304 414 LINE",
"323 418 LINE SMOOTH",
"435 447 OFFCURVE",
"481 488 OFFCURVE",
"481 590 CURVE SMOOTH",
"481 687 OFFCURVE",
"407 749 OFFCURVE",
"292 749 CURVE SMOOTH",
"165 749 OFFCURVE",
"98 669 OFFCURVE",
"97 519 CURVE SMOOTH",
"96 0 LINE",
"144 0 LINE",
"144 519 LINE SMOOTH",
"144 642 OFFCURVE",
"194 707 OFFCURVE",
"291 707 CURVE SMOOTH",
"379 707 OFFCURVE",
"437 661 OFFCURVE",
"437 590 CURVE SMOOTH",
"437 517 OFFCURVE",
"424 470 OFFCURVE",
"262 434 CURVE",
"262 393 LINE",
"442 337 OFFCURVE",
"513 275 OFFCURVE",
"513 161 CURVE SMOOTH",
"513 79 OFFCURVE",
"455 26 OFFCURVE",
"364 26 CURVE SMOOTH",
"326 26 OFFCURVE",
"270 39 OFFCURVE",
"220 59 CURVE",
"215 18 LINE",
"263 -1 OFFCURVE",
"321 -14 OFFCURVE",
"364 -14 CURVE SMOOTH"
);
}
);
width = 606;
},
{
associatedMasterId = "CAA31E91-2985-420A-82BA-6B4D8404D924";
layerId = "513ACC9E-2837-408D-9F4C-89A6B9B74B5D";
name = b;
width = 611;
},
{
layerId = "5F288B98-6DDA-4BF8-A62B-164790BC7EB2";
paths = (
{
closed = 1;
nodes = (
"394 -11 CURVE SMOOTH",
"305 -11 OFFCURVE",
"234 18 OFFCURVE",
"234 18 CURVE",
"248 88 LINE",
"248 88 OFFCURVE",
"324 58 OFFCURVE",
"389 61 CURVE SMOOTH",
"437 64 OFFCURVE",
"481 99 OFFCURVE",
"481 161 CURVE SMOOTH",
"481 255 OFFCURVE",
"395 314 OFFCURVE",
"272 368 CURVE",
"272 434 LINE",
"370 474 OFFCURVE",
"402 511 OFFCURVE",
"402 574 CURVE SMOOTH",
"402 629 OFFCURVE",
"364 663 OFFCURVE",
"295 663 CURVE SMOOTH",
"210 663 OFFCURVE",
"170 594 OFFCURVE",
"170 502 CURVE SMOOTH",
"170 0 LINE",
"82 0 LINE",
"81 501 LINE SMOOTH",
"81 649 OFFCURVE",
"161 734 OFFCURVE",
"295 734 CURVE SMOOTH",
"420 734 OFFCURVE",
"495 671 OFFCURVE",
"495 576 CURVE SMOOTH",
"495 500 OFFCURVE",
"455 455 OFFCURVE",
"376 416 CURVE SMOOTH",
"371 414 OFFCURVE",
"352 406 OFFCURVE",
"348 404 CURVE",
"352 403 OFFCURVE",
"371 396 OFFCURVE",
"375 394 CURVE SMOOTH",
"475 354 OFFCURVE",
"576 291 OFFCURVE",
"576 168 CURVE SMOOTH",
"576 59 OFFCURVE",
"490 -11 OFFCURVE"
);
}
);
width = 610;
},
{
layerId = "197E4CC0-43FA-49AB-8E7D-89E0185E23DB";
paths = (
{
closed = 1;
nodes = (
"410 -11 CURVE SMOOTH",
"512 -11 OFFCURVE",
"590 60 OFFCURVE",
"590 176 CURVE SMOOTH",
"590 271 OFFCURVE",
"535 343 OFFCURVE",
"445 372 CURVE SMOOTH",
"417 381 OFFCURVE",
"401 385 OFFCURVE",
"372 392 CURVE",
"399 399 OFFCURVE",
"412 403 OFFCURVE",
"437 416 CURVE SMOOTH",
"488 442 OFFCURVE",
"517 516 OFFCURVE",
"517 562 CURVE SMOOTH",
"517 650 OFFCURVE",
"422 715 OFFCURVE",
"297 715 CURVE SMOOTH",
"159 715 OFFCURVE",
"63 647 OFFCURVE",
"63 481 CURVE SMOOTH",
"66 0 LINE",
"199 0 LINE",
"199 480 LINE SMOOTH",
"199 570 OFFCURVE",
"246 604 OFFCURVE",
"297 604 CURVE SMOOTH",
"322 604 OFFCURVE",
"363 587 OFFCURVE",
"363 552 CURVE SMOOTH",
"363 503 OFFCURVE",
"302 450 OFFCURVE",
"282 440 CURVE",
"282 333 LINE",
"409 267 OFFCURVE",
"433 229 OFFCURVE",
"433 165 CURVE SMOOTH",
"433 123 OFFCURVE",
"421 109 OFFCURVE",
"393 101 CURVE SMOOTH",
"345 88 OFFCURVE",
"278 125 OFFCURVE",
"278 125 CURVE",
"252 18 LINE",
"252 18 OFFCURVE",
"325 -11 OFFCURVE"
);
}
);
width = 622;
}
);
unicode = 00DF;
userData = {
com.typemytype.robofont.layerData = {
b = {
anchors = (
);
components = (
);
contours = (
);
lib = {
};
name = germandbls;
unicodes = (
);
width = 1250.9514;
};
};
};
},
{
glyphname = t;
lastChange = "2016-08-22 09:31:58 +0000";
layers = (
{
layerId = "CAA31E91-2985-420A-82BA-6B4D8404D924";
paths = (
{
closed = 1;
nodes = (
"273 0 OFFCURVE",
"281 0 OFFCURVE",
"289 0 CURVE",
"289 41 LINE",
"175 41 OFFCURVE",
"174 60 OFFCURVE",
"174 158 CURVE SMOOTH",
"174 469 LINE",
"288 469 LINE",
"288 501 LINE",
"174 501 LINE",
"174 659 LINE",
"126 645 LINE",
"126 501 LINE",
"27 501 LINE",
"27 469 LINE",
"126 469 LINE",
"126 159 LINE",
"126 131 LINE SMOOTH",
"126 59 OFFCURVE",
"133 7 OFFCURVE",
"267 0 CURVE"
);
}
);
width = 336;
},
{
associatedMasterId = "CAA31E91-2985-420A-82BA-6B4D8404D924";
layerId = "39873552-9AFA-42B2-AEA8-AFCE19B046FF";
name = b;
width = 373;
},
{
layerId = "5F288B98-6DDA-4BF8-A62B-164790BC7EB2";
paths = (
{
closed = 1;
nodes = (
"331 0 LINE",
"304 0 LINE SMOOTH",
"156 0 OFFCURVE",
"114 42 OFFCURVE",
"114 173 CURVE SMOOTH",
"114 442 LINE",
"12 442 LINE",
"12 501 LINE",
"115 501 LINE",
"115 630 LINE",
"203 656 LINE",
"203 501 LINE",
"328 501 LINE",
"328 442 LINE",
"203 442 LINE",
"203 168 LINE SMOOTH",
"203 82 OFFCURVE",
"218 70 OFFCURVE",
"331 70 CURVE"
);
}
);
width = 366;
},
{
layerId = "197E4CC0-43FA-49AB-8E7D-89E0185E23DB";
paths = (
{
closed = 1;
nodes = (
"383 0 LINE",
"318 0 LINE SMOOTH",
"207 0 OFFCURVE",
"103 9 OFFCURVE",
"103 189 CURVE SMOOTH",
"103 407 LINE",
"-1 407 LINE",
"-1 501 LINE",
"103 501 LINE",
"103 612 LINE",
"240 652 LINE",
"240 501 LINE",
"380 501 LINE",
"380 407 LINE",
"240 407 LINE",
"240 181 LINE SMOOTH",
"240 111 OFFCURVE",
"271 106 OFFCURVE",
"383 106 CURVE"
);
}
);
width = 421;
}
);
unicode = 0074;
userData = {
com.typemytype.robofont.layerData = {
b = {
anchors = (
);
components = (
);
contours = (
);
lib = {
};
name = t;
unicodes = (
);
width = 763.9000;
};
};
};
},
{
glyphname = tbar;
lastChange = "2016-08-22 09:22:14 +0000";
layers = (
{
components = (
{
name = t;
},
{
name = macron;
transform = "{1, 0, 0, 1, -13, -330}";
}
);
layerId = "CAA31E91-2985-420A-82BA-6B4D8404D924";
width = 335;
},
{
associatedMasterId = "CAA31E91-2985-420A-82BA-6B4D8404D924";
layerId = "D25FD165-4294-4B29-BCC8-5D3F16F38382";
name = b;
width = 366;
},
{
components = (
{
name = t;
}
);
layerId = "5F288B98-6DDA-4BF8-A62B-164790BC7EB2";
paths = (
{
closed = 1;
nodes = (
"21 284 LINE",
"21 357 LINE",
"327 357 LINE",
"327 284 LINE"
);
}
);
width = 364;
},
{
components = (
{
name = t;
}
);
layerId = "197E4CC0-43FA-49AB-8E7D-89E0185E23DB";
paths = (
{
closed = 1;
nodes = (
"41 221 LINE",
"41 315 LINE",
"338 315 LINE",
"338 221 LINE"
);
}
);
width = 411;
}
);
unicode = 0167;
userData = {
com.typemytype.robofont.layerData = {
b = {
anchors = (
);
components = (
);
contours = (
);
lib = {
};
name = tbar;
unicodes = (
);
width = 750.1500;
};
};
};
},
{
glyphname = u;
lastChange = "2016-08-22 09:31:58 +0000";
layers = (
{
layerId = "CAA31E91-2985-420A-82BA-6B4D8404D924";
paths = (
{
closed = 1;
nodes = (
"372 -13 OFFCURVE",
"435 27 OFFCURVE",
"477 93 CURVE",
"481 0 LINE",
"525 0 LINE",
"523 26 OFFCURVE",
"522 55 OFFCURVE",
"522 110 CURVE SMOOTH",
"522 501 LINE",
"475 501 LINE",
"475 173 LINE SMOOTH",
"475 127 OFFCURVE",
"410 27 OFFCURVE",
"285 27 CURVE SMOOTH",
"191 27 OFFCURVE",
"145 87 OFFCURVE",
"145 199 CURVE SMOOTH",
"145 501 LINE",
"97 501 LINE",
"97 201 LINE SMOOTH",
"97 61 OFFCURVE",
"160 -13 OFFCURVE",
"285 -13 CURVE SMOOTH"
);
}
);
width = 628;
},
{
associatedMasterId = "CAA31E91-2985-420A-82BA-6B4D8404D924";
layerId = "81F350B1-9B3C-42CB-8736-174C6606B8AE";
name = b;
width = 599;
},
{
layerId = "5F288B98-6DDA-4BF8-A62B-164790BC7EB2";
paths = (
{
closed = 1;
nodes = (
"270 -11 CURVE SMOOTH",
"128 -11 OFFCURVE",
"75 84 OFFCURVE",
"75 191 CURVE SMOOTH",
"75 501 LINE",
"164 501 LINE",
"164 191 LINE SMOOTH",
"164 105 OFFCURVE",
"207 62 OFFCURVE",
"286 62 CURVE SMOOTH",
"374 62 OFFCURVE",
"425 118 OFFCURVE",
"425 204 CURVE SMOOTH",
"425 501 LINE",
"515 501 LINE",
"515 124 LINE SMOOTH",
"515 85 OFFCURVE",
"517 30 OFFCURVE",
"519 0 CURVE",
"427 0 LINE",
"425 80 LINE",
"399 34 OFFCURVE",
"351 -11 OFFCURVE"
);
}
);
width = 601;
},
{
layerId = "197E4CC0-43FA-49AB-8E7D-89E0185E23DB";
paths = (
{
closed = 1;
nodes = (
"250 -11 CURVE SMOOTH",
"138 -11 OFFCURVE",
"59 53 OFFCURVE",
"59 179 CURVE SMOOTH",
"59 501 LINE",
"195 501 LINE",
"195 182 LINE SMOOTH",
"195 124 OFFCURVE",
"232 100 OFFCURVE",
"278 100 CURVE SMOOTH",
"340 100 OFFCURVE",
"368 120 OFFCURVE",
"368 199 CURVE SMOOTH",
"368 501 LINE",
"506 501 LINE",
"506 142 LINE SMOOTH",
"506 123 OFFCURVE",
"515 -27 OFFCURVE",
"513 0 CURVE",
"370 0 LINE",
"368 71 LINE",
"373 60 OFFCURVE",
"341 -11 OFFCURVE"
);
}
);
width = 569;
}
);
unicode = 0075;
userData = {
com.typemytype.robofont.layerData = {
b = {
anchors = (
);
components = (
);
contours = (
);
lib = {
};
name = u;
unicodes = (
);
width = 1227.2000;
};
};
};
},
{
glyphname = v;
lastChange = "2016-08-22 09:22:14 +0000";
layers = (
{
layerId = "CAA31E91-2985-420A-82BA-6B4D8404D924";
paths = (
{
closed = 1;
nodes = (
"261 0 LINE",
"467 501 LINE",
"418 501 LINE",
"257 103 LINE",
"234 38 LINE",
"210 103 LINE",
"50 501 LINE",
"0 501 LINE",
"207 0 LINE"
);
}
);
width = 463;
},
{
associatedMasterId = "CAA31E91-2985-420A-82BA-6B4D8404D924";
layerId = "702EADD8-47D1-46E0-A4E1-17EAF006C04A";
name = b;
width = 516;
},
{
layerId = "5F288B98-6DDA-4BF8-A62B-164790BC7EB2";
paths = (
{
closed = 1;
nodes = (
"213 0 LINE",
"4 501 LINE",
"102 501 LINE",
"227 183 LINE",
"260 92 LINE",
"292 183 LINE",
"414 501 LINE",
"509 501 LINE",
"300 0 LINE"
);
}
);
width = 513;
},
{
layerId = "197E4CC0-43FA-49AB-8E7D-89E0185E23DB";
paths = (
{
closed = 1;
nodes = (
"224 0 LINE",
"12 501 LINE",
"167 501 LINE",
"243 283 LINE",
"291 159 LINE",
"337 283 LINE",
"410 501 LINE",
"561 501 LINE",
"347 0 LINE"
);
}
);
width = 573;
}
);
unicode = 0076;
userData = {
com.typemytype.robofont.layerData = {
b = {
anchors = (
);
components = (
);
contours = (
);
lib = {
};
name = v;
unicodes = (
);
width = 1056.8000;
};
};
};
},
{
glyphname = w;
lastChange = "2016-08-22 09:31:58 +0000";
layers = (
{
layerId = "CAA31E91-2985-420A-82BA-6B4D8404D924";
paths = (
{
closed = 1;
nodes = (
"229 0 LINE",
"366 391 LINE",
"388 458 LINE",
"410 391 LINE",
"538 0 LINE",
"601 0 LINE",
"736 501 LINE",
"683 501 LINE",
"578 89 LINE",
"568 50 LINE",
"556 89 LINE",
"417 501 LINE",
"355 501 LINE",
"214 89 LINE",
"201 50 LINE",
"190 89 LINE",
"73 501 LINE",
"21 501 LINE",
"167 0 LINE"
);
}
);
width = 758;
},
{
associatedMasterId = "CAA31E91-2985-420A-82BA-6B4D8404D924";
layerId = "0C4F3815-5301-4950-800E-F59E44DBD506";
name = b;
width = 798;
},
{
layerId = "5F288B98-6DDA-4BF8-A62B-164790BC7EB2";
paths = (
{
closed = 1;
nodes = (
"264 0 LINE",
"378 326 LINE",
"402 393 LINE",
"424 325 LINE",
"531 0 LINE",
"615 0 LINE",
"782 501 LINE",
"695 501 LINE",
"595 157 LINE",
"579 104 LINE",
"561 158 LINE",
"450 501 LINE",
"363 501 LINE",
"247 157 LINE",
"229 105 LINE",
"212 161 LINE",
"109 501 LINE",
"14 501 LINE",
"180 0 LINE"
);
}
);
width = 795;
},
{
layerId = "197E4CC0-43FA-49AB-8E7D-89E0185E23DB";
paths = (
{
closed = 1;
nodes = (
"305 0 LINE",
"393 244 LINE",
"418 312 LINE",
"440 245 LINE",
"523 0 LINE",
"633 0 LINE",
"835 501 LINE",
"709 501 LINE",
"615 244 LINE",
"591 172 LINE",
"567 248 LINE",
"488 501 LINE",
"373 501 LINE",
"294 268 LINE",
"263 174 LINE",
"230 271 LINE",
"152 501 LINE",
"4 501 LINE",
"194 0 LINE"
);
}
);
width = 840;
}
);
unicode = 0077;
userData = {
com.typemytype.robofont.layerData = {
b = {
anchors = (
);
components = (
);
contours = (
);
lib = {
};
name = w;
unicodes = (
);
width = 1634.1000;
};
};
};
},
{
glyphname = x;
lastChange = "2016-08-22 09:22:14 +0000";
layers = (
{
layerId = "CAA31E91-2985-420A-82BA-6B4D8404D924";
paths = (
{
closed = 1;
nodes = (
"83 0 LINE",
"273 225 LINE",
"461 0 LINE",
"514 0 LINE",
"300 250 LINE",
"505 501 LINE",
"449 501 LINE",
"271 284 LINE",
"99 501 LINE",
"44 503 LINE",
"245 257 LINE",
"28 0 LINE"
);
}
);
width = 544;
},
{
associatedMasterId = "CAA31E91-2985-420A-82BA-6B4D8404D924";
layerId = "7330EDB2-4321-4A34-80BF-F46936BE9F2E";
name = b;
width = 519;
},
{
layerId = "5F288B98-6DDA-4BF8-A62B-164790BC7EB2";
paths = (
{
closed = 1;
nodes = (
"17 0 LINE",
"212 250 LINE",
"28 501 LINE",
"128 501 LINE",
"262 314 LINE",
"405 501 LINE",
"502 501 LINE",
"314 256 LINE",
"506 0 LINE",
"408 0 LINE",
"264 192 LINE",
"114 0 LINE"
);
}
);
width = 523;
},
{
layerId = "197E4CC0-43FA-49AB-8E7D-89E0185E23DB";
paths = (
{
closed = 1;
nodes = (
"3 0 LINE",
"173 240 LINE",
"9 500 LINE",
"163 501 LINE",
"254 353 LINE",
"359 501 LINE",
"500 501 LINE",
"330 264 LINE",
"498 0 LINE",
"345 0 LINE",
"250 151 LINE",
"146 0 LINE"
);
}
);
width = 501;
}
);
unicode = 0078;
userData = {
com.typemytype.robofont.layerData = {
b = {
anchors = (
);
components = (
);
contours = (
);
lib = {
};
name = x;
unicodes = (
);
width = 1062.8500;
};
};
};
},
{
glyphname = y;
lastChange = "2016-08-22 09:31:58 +0000";
layers = (
{
layerId = "CAA31E91-2985-420A-82BA-6B4D8404D924";
paths = (
{
closed = 1;
nodes = (
"189 -183 OFFCURVE",
"241 -97 OFFCURVE",
"267 -25 CURVE SMOOTH",
"468 501 LINE",
"421 501 LINE",
"249 47 LINE",
"82 501 LINE",
"30 501 LINE",
"225 -10 LINE",
"213 -39 LINE SMOOTH",
"195 -82 OFFCURVE",
"164 -142 OFFCURVE",
"61 -168 CURVE",
"77 -204 LINE"
);
}
);
width = 480;
},
{
associatedMasterId = "CAA31E91-2985-420A-82BA-6B4D8404D924";
layerId = "43170BA2-7B4E-4D6B-8BAF-F1FEF24E5DE3";
name = b;
width = 520;
},
{
layerId = "5F288B98-6DDA-4BF8-A62B-164790BC7EB2";
paths = (
{
closed = 1;
nodes = (
"103 -211 CURVE",
"66 -150 LINE",
"161 -119 OFFCURVE",
"201 -68 OFFCURVE",
"218 -19 CURVE SMOOTH",
"226 5 LINE",
"21 501 LINE",
"115 501 LINE",
"269 100 LINE",
"415 501 LINE",
"505 501 LINE",
"303 -27 LINE SMOOTH",
"267 -119 OFFCURVE",
"198 -188 OFFCURVE"
);
}
);
width = 517;
},
{
layerId = "197E4CC0-43FA-49AB-8E7D-89E0185E23DB";
paths = (
{
closed = 1;
nodes = (
"135 -221 CURVE",
"76 -127 LINE",
"163 -90 OFFCURVE",
"207 -64 OFFCURVE",
"222 -9 CURVE",
"228 15 LINE",
"11 501 LINE",
"154 501 LINE",
"294 165 LINE",
"407 501 LINE",
"549 501 LINE",
"346 -28 LINE",
"299 -146 OFFCURVE",
"209 -194 OFFCURVE"
);
}
);
width = 561;
}
);
unicode = 0079;
userData = {
com.typemytype.robofont.layerData = {
b = {
anchors = (
);
components = (
);
contours = (
);
lib = {
};
name = y;
unicodes = (
);
width = 1065.0500;
};
};
};
},
{
glyphname = z;
lastChange = "2016-08-22 09:31:58 +0000";
layers = (
{
layerId = "CAA31E91-2985-420A-82BA-6B4D8404D924";
paths = (
{
closed = 1;
nodes = (
"412 0 LINE",
"412 40 LINE",
"107 40 LINE",
"417 473 LINE",
"417 501 LINE",
"56 501 LINE",
"56 461 LINE",
"356 461 LINE",
"44 29 LINE",
"44 0 LINE"
);
}
);
width = 456;
},
{
associatedMasterId = "CAA31E91-2985-420A-82BA-6B4D8404D924";
layerId = "A5846A93-9B7E-4D1B-85C9-E5991294372D";
name = b;
width = 475;
},
{
layerId = "5F288B98-6DDA-4BF8-A62B-164790BC7EB2";
paths = (
{
closed = 1;
nodes = (
"47 0 LINE",
"47 48 LINE",
"310 428 LINE",
"51 428 LINE",
"51 501 LINE",
"426 501 LINE",
"426 454 LINE",
"163 73 LINE",
"435 73 LINE",
"435 0 LINE"
);
}
);
width = 473;
},
{
layerId = "197E4CC0-43FA-49AB-8E7D-89E0185E23DB";
paths = (
{
closed = 1;
nodes = (
"51 0 LINE",
"51 73 LINE",
"269 391 LINE",
"67 391 LINE",
"67 501 LINE",
"450 501 LINE",
"450 429 LINE",
"228 109 LINE",
"464 109 LINE",
"464 0 LINE"
);
}
);
width = 495;
}
);
unicode = 007A;
userData = {
com.typemytype.robofont.layerData = {
b = {
anchors = (
);
components = (
);
contours = (
);
lib = {
};
name = z;
unicodes = (
);
width = 971.8500;
};
};
};
},
{
glyphname = f_f;
lastChange = "2016-08-22 14:15:06 +0000";
layers = (
{
layerId = "CAA31E91-2985-420A-82BA-6B4D8404D924";
paths = (
{
closed = 1;
nodes = (
"165 0 LINE",
"165 469 LINE",
"411 469 LINE",
"411 0 LINE",
"459 0 LINE",
"459 469 LINE",
"587 469 LINE",
"587 501 LINE",
"459 501 LINE",
"459 590 LINE SMOOTH",
"459 655 OFFCURVE",
"468 691 OFFCURVE",
"600 691 CURVE",
"597 732 LINE",
"577 732 LINE SMOOTH",
"437 732 OFFCURVE",
"411 681 OFFCURVE",
"411 572 CURVE SMOOTH",
"411 501 LINE",
"165 501 LINE",
"165 590 LINE SMOOTH",
"165 655 OFFCURVE",
"174 691 OFFCURVE",
"306 691 CURVE",
"303 732 LINE",
"283 732 LINE SMOOTH",
"143 732 OFFCURVE",
"117 681 OFFCURVE",
"117 572 CURVE SMOOTH",
"117 501 LINE",
"32 501 LINE",
"32 469 LINE",
"117 469 LINE",
"117 0 LINE"
);
}
);
width = 588;
},
{
components = (
{
name = f;
},
{
name = f;
transform = "{1, 0, 0, 1, 354, 0}";
}
);
layerId = "5F288B98-6DDA-4BF8-A62B-164790BC7EB2";
width = 708;
},
{
components = (
{
name = f;
},
{
name = f;
transform = "{1, 0, 0, 1, 426, 0}";
}
);
layerId = "197E4CC0-43FA-49AB-8E7D-89E0185E23DB";
width = 852;
}
);
},
{
glyphname = f_f_i;
lastChange = "2016-08-22 14:15:06 +0000";
layers = (
{
layerId = "CAA31E91-2985-420A-82BA-6B4D8404D924";
paths = (
{
closed = 1;
nodes = (
"165 0 LINE",
"165 469 LINE",
"411 469 LINE",
"411 0 LINE",
"459 0 LINE",
"459 469 LINE",
"682 469 LINE",
"682 0 LINE",
"729 0 LINE",
"729 501 LINE",
"459 501 LINE",
"459 590 LINE SMOOTH",
"459 655 OFFCURVE",
"468 691 OFFCURVE",
"600 691 CURVE",
"597 732 LINE",
"577 732 LINE SMOOTH",
"437 732 OFFCURVE",
"411 681 OFFCURVE",
"411 572 CURVE SMOOTH",
"411 501 LINE",
"165 501 LINE",
"165 590 LINE SMOOTH",
"165 655 OFFCURVE",
"174 691 OFFCURVE",
"306 691 CURVE",
"303 732 LINE",
"283 732 LINE SMOOTH",
"143 732 OFFCURVE",
"117 681 OFFCURVE",
"117 572 CURVE SMOOTH",
"117 501 LINE",
"32 501 LINE",
"32 469 LINE",
"117 469 LINE",
"117 0 LINE"
);
},
{
closed = 1;
nodes = (
"729 657 LINE",
"729 711 LINE",
"682 711 LINE",
"682 657 LINE"
);
}
);
width = 828;
},
{
components = (
{
name = f;
},
{
name = f;
transform = "{1, 0, 0, 1, 354, 0}";
},
{
name = i;
transform = "{1, 0, 0, 1, 708, 0}";
}
);
layerId = "5F288B98-6DDA-4BF8-A62B-164790BC7EB2";
width = 957;
},
{
components = (
{
name = i;
},
{
name = f;
transform = "{1, 0, 0, 1, 278, 0}";
},
{
name = f;
transform = "{1, 0, 0, 1, 704, 0}";
}
);
layerId = "197E4CC0-43FA-49AB-8E7D-89E0185E23DB";
width = 1129;
}
);
},
{
glyphname = f_f_l;
lastChange = "2016-08-22 14:15:06 +0000";
layers = (
{
components = (
{
name = fl;
transform = "{1, 0, 0, 1, 247, 0}";
}
);
layerId = "CAA31E91-2985-420A-82BA-6B4D8404D924";
paths = (
{
closed = 1;
nodes = (
"165 0 LINE",
"165 469 LINE",
"293 469 LINE",
"293 501 LINE",
"165 501 LINE",
"165 590 LINE SMOOTH",
"165 655 OFFCURVE",
"174 691 OFFCURVE",
"306 691 CURVE",
"303 732 LINE",
"283 732 LINE SMOOTH",
"143 732 OFFCURVE",
"117 681 OFFCURVE",
"117 572 CURVE SMOOTH",
"117 501 LINE",
"32 501 LINE",
"32 469 LINE",
"117 469 LINE",
"117 0 LINE"
);
}
);
width = 837;
},
{
components = (
{
name = f;
},
{
name = f;
transform = "{1, 0, 0, 1, 354, 0}";
},
{
name = l;
transform = "{1, 0, 0, 1, 708, 0}";
}
);
layerId = "5F288B98-6DDA-4BF8-A62B-164790BC7EB2";
width = 961;
},
{
components = (
{
name = l;
},
{
name = f;
transform = "{1, 0, 0, 1, 260, 0}";
},
{
name = f;
transform = "{1, 0, 0, 1, 686, 0}";
}
);
layerId = "197E4CC0-43FA-49AB-8E7D-89E0185E23DB";
width = 1112;
}
);
},
{
glyphname = fi;
lastChange = "2016-08-22 09:22:14 +0000";
layers = (
{
components = (
{
name = i;
transform = "{1, 0, 0, 1, 323, 0}";
}
);
layerId = "CAA31E91-2985-420A-82BA-6B4D8404D924";
paths = (
{
closed = 1;
nodes = (
"173 0 LINE",
"173 466 LINE",
"442 466 LINE",
"442 501 LINE",
"173 501 LINE",
"173 585 LINE SMOOTH",
"173 652 OFFCURVE",
"181 687 OFFCURVE",
"312 687 CURVE",
"309 731 LINE",
"288 731 LINE SMOOTH",
"145 731 OFFCURVE",
"118 679 OFFCURVE",
"118 568 CURVE SMOOTH",
"118 501 LINE",
"33 501 LINE",
"33 466 LINE",
"118 466 LINE",
"118 0 LINE"
);
}
);
width = 573;
},
{
associatedMasterId = "CAA31E91-2985-420A-82BA-6B4D8404D924";
layerId = "12A06584-15D2-476F-94BD-BF71C3445C7A";
name = b;
paths = (
{
closed = 1;
nodes = (
"122 0 LINE",
"122 449 LINE",
"33 449 LINE",
"33 501 LINE",
"122 501 LINE",
"122 550 LINE SMOOTH",
"122 673 OFFCURVE",
"144 729 OFFCURVE",
"308 729 CURVE SMOOTH",
"330 729 LINE",
"330 666 LINE",
"210 666 OFFCURVE",
"202 640 OFFCURVE",
"202 562 CURVE SMOOTH",
"202 501 LINE",
"323 501 LINE",
"323 449 LINE",
"202 449 LINE",
"202 0 LINE"
);
},
{
closed = 1;
nodes = (
"424 0 LINE",
"424 501 LINE",
"504 501 LINE",
"504 0 LINE"
);
},
{
closed = 1;
nodes = (
"424 638 LINE",
"424 714 LINE",
"504 714 LINE",
"504 638 LINE"
);
}
);
width = 604;
},
{
components = (
{
name = i;
transform = "{1, 0, 0, 1, 349, 0}";
}
);
layerId = "5F288B98-6DDA-4BF8-A62B-164790BC7EB2";
paths = (
{
closed = 1;
nodes = (
"123 0 LINE",
"123 440 LINE",
"34 440 LINE",
"34 501 LINE",
"123 501 LINE",
"123 541 LINE SMOOTH",
"123 670 OFFCURVE",
"144 727 OFFCURVE",
"317 727 CURVE SMOOTH",
"340 727 LINE",
"339 655 LINE",
"224 655 OFFCURVE",
"216 634 OFFCURVE",
"216 549 CURVE SMOOTH",
"216 501 LINE",
"447 501 LINE",
"447 440 LINE",
"216 440 LINE",
"216 0 LINE"
);
}
);
width = 604;
},
{
components = (
{
name = i;
transform = "{1, 0, 0, 1, 357, 0}";
}
);
layerId = "197E4CC0-43FA-49AB-8E7D-89E0185E23DB";
paths = (
{
closed = 1;
nodes = (
"125 0 LINE",
"125 432 LINE",
"34 432 LINE",
"34 501 LINE",
"125 501 LINE",
"125 533 LINE SMOOTH",
"125 667 OFFCURVE",
"144 726 OFFCURVE",
"325 726 CURVE SMOOTH",
"350 726 LINE",
"347 646 LINE",
"237 646 OFFCURVE",
"228 628 OFFCURVE",
"228 538 CURVE SMOOTH",
"228 501 LINE",
"449 501 LINE",
"449 432 LINE",
"228 432 LINE",
"228 0 LINE"
);
}
);
width = 613;
}
);
unicode = FB01;
userData = {
com.typemytype.robofont.layerData = {
b = {
anchors = (
);
components = (
);
contours = (
{
points = (
{
segmentType = line;
smooth = 0;
x = 249;
y = 0;
},
{
segmentType = line;
smooth = 0;
x = 249;
y = 919;
},
{
segmentType = line;
smooth = 0;
x = 68;
y = 919;
},
{
segmentType = line;
smooth = 0;
x = 68;
y = 1026;
},
{
segmentType = line;
smooth = 0;
x = 249;
y = 1026;
},
{
segmentType = line;
smooth = 1;
x = 249;
y = 1127;
},
{
smooth = 0;
x = 249;
y = 1378;
},
{
smooth = 0;
x = 295;
y = 1492;
},
{
segmentType = curve;
smooth = 1;
x = 630;
y = 1492;
},
{
segmentType = line;
smooth = 0;
x = 676;
y = 1492;
},
{
segmentType = line;
smooth = 0;
x = 676;
y = 1364;
},
{
smooth = 0;
x = 431;
y = 1364;
},
{
smooth = 0;
x = 413;
y = 1311;
},
{
segmentType = curve;
smooth = 1;
x = 413;
y = 1150;
},
{
segmentType = line;
smooth = 0;
x = 413;
y = 1026;
},
{
segmentType = line;
smooth = 0;
x = 662;
y = 1026;
},
{
segmentType = line;
smooth = 0;
x = 662;
y = 919;
},
{
segmentType = line;
smooth = 0;
x = 413;
y = 919;
},
{
segmentType = line;
smooth = 0;
x = 413;
y = 0;
}
);
},
{
points = (
{
segmentType = line;
smooth = 0;
x = 869;
y = 0;
},
{
segmentType = line;
smooth = 0;
x = 869;
y = 1026;
},
{
segmentType = line;
smooth = 0;
x = 1033;
y = 1026;
},
{
segmentType = line;
smooth = 0;
x = 1033;
y = 0;
}
);
},
{
points = (
{
segmentType = line;
smooth = 0;
x = 869;
y = 1307;
},
{
segmentType = line;
smooth = 0;
x = 869;
y = 1462;
},
{
segmentType = line;
smooth = 0;
x = 1033;
y = 1462;
},
{
segmentType = line;
smooth = 0;
x = 1033;
y = 1307;
}
);
}
);
lib = {
};
name = fi;
unicodes = (
);
width = 1237.6500;
};
};
};
},
{
glyphname = fl;
lastChange = "2016-08-22 09:22:14 +0000";
layers = (
{
layerId = "CAA31E91-2985-420A-82BA-6B4D8404D924";
paths = (
{
closed = 1;
nodes = (
"189 0 LINE",
"189 469 LINE",
"316 469 LINE",
"316 501 LINE",
"189 501 LINE",
"189 567 LINE SMOOTH",
"189 650 OFFCURVE",
"212 674 OFFCURVE",
"368 674 CURVE SMOOTH",
"446 674 LINE",
"446 0 LINE",
"501 0 LINE",
"501 717 LINE",
"383 717 LINE SMOOTH",
"184 717 OFFCURVE",
"135 678 OFFCURVE",
"135 564 CURVE SMOOTH",
"135 501 LINE",
"33 501 LINE",
"33 469 LINE",
"135 469 LINE",
"135 0 LINE"
);
}
);
width = 600;
},
{
associatedMasterId = "CAA31E91-2985-420A-82BA-6B4D8404D924";
components = (
{
name = f;
transform = "{1, 0, 0, 1, 10, 0}";
},
{
name = l;
transform = "{1, 0, 0, 1, 349, 0}";
}
);
layerId = "401DD237-94DE-4E45-8068-78E6B4262279";
name = b;
width = 612;
},
{
layerId = "5F288B98-6DDA-4BF8-A62B-164790BC7EB2";
paths = (
{
closed = 1;
nodes = (
"222 440 LINE",
"222 0 LINE",
"130 0 LINE",
"130 440 LINE",
"34 440 LINE",
"34 501 LINE",
"130 501 LINE",
"130 534 LINE SMOOTH",
"130 663 OFFCURVE",
"171 715 OFFCURVE",
"353 715 CURVE SMOOTH",
"531 715 LINE",
"531 0 LINE",
"439 0 LINE",
"439 644 LINE",
"361 644 LINE SMOOTH",
"243 644 OFFCURVE",
"222 622 OFFCURVE",
"222 549 CURVE SMOOTH",
"222 501 LINE",
"341 501 LINE",
"341 440 LINE"
);
}
);
width = 611;
},
{
layerId = "197E4CC0-43FA-49AB-8E7D-89E0185E23DB";
paths = (
{
closed = 1;
nodes = (
"231 432 LINE",
"231 0 LINE",
"128 0 LINE",
"128 432 LINE",
"34 432 LINE",
"34 501 LINE",
"128 501 LINE",
"128 524 LINE SMOOTH",
"128 658 OFFCURVE",
"168 715 OFFCURVE",
"344 715 CURVE SMOOTH",
"540 715 LINE",
"540 0 LINE",
"437 0 LINE",
"437 635 LINE",
"358 635 LINE SMOOTH",
"252 635 OFFCURVE",
"231 613 OFFCURVE",
"231 544 CURVE SMOOTH",
"231 501 LINE",
"348 501 LINE",
"348 432 LINE"
);
}
);
width = 615;
}
);
unicode = FB02;
userData = {
com.typemytype.robofont.layerData = {
b = {
anchors = (
);
components = (
{
baseGlyph = f;
transformation = (
1,
0,
0,
1,
20,
0
);
},
{
baseGlyph = l;
transformation = (
1,
0,
0,
1,
714,
0
);
}
);
contours = (
);
lib = {
};
name = fl;
unicodes = (
);
width = 1252.7000;
};
};
};
},
{
glyphname = ordfeminine;
lastChange = "2016-08-22 09:22:14 +0000";
layers = (
{
layerId = "CAA31E91-2985-420A-82BA-6B4D8404D924";
paths = (
{
closed = 1;
nodes = (
"190 392 OFFCURVE",
"235 402 OFFCURVE",
"260 439 CURVE",
"258 395 LINE",
"303 395 LINE",
"300 439 OFFCURVE",
"300 461 OFFCURVE",
"300 461 CURVE",
"300 461 OFFCURVE",
"300 457 OFFCURVE",
"301 449 CURVE",
"301 428 OFFCURVE",
"303 606 OFFCURVE",
"303 627 CURVE",
"300 691 OFFCURVE",
"248 722 OFFCURVE",
"183 722 CURVE SMOOTH",
"113 722 OFFCURVE",
"56 690 OFFCURVE",
"56 690 CURVE",
"65 660 LINE",
"65 660 OFFCURVE",
"118 686 OFFCURVE",
"186 686 CURVE SMOOTH",
"254 686 OFFCURVE",
"264 658 OFFCURVE",
"264 594 CURVE SMOOTH",
"264 586 LINE",
"181 586 LINE SMOOTH",
"83 586 OFFCURVE",
"34 547 OFFCURVE",
"34 490 CURVE SMOOTH",
"34 435 OFFCURVE",
"77 392 OFFCURVE",
"153 392 CURVE SMOOTH"
);
},
{
closed = 1;
nodes = (
"108 430 OFFCURVE",
"82 451 OFFCURVE",
"82 494 CURVE SMOOTH",
"82 552 OFFCURVE",
"136 555 OFFCURVE",
"223 555 CURVE SMOOTH",
"265 555 LINE",
"265 540 LINE SMOOTH",
"265 492 OFFCURVE",
"248 430 OFFCURVE",
"161 430 CURVE SMOOTH"
);
}
);
width = 337;
},
{
associatedMasterId = "CAA31E91-2985-420A-82BA-6B4D8404D924";
layerId = "AFFFA0DE-601C-4E29-991C-993F54D81115";
name = b;
width = 389;
},
{
layerId = "5F288B98-6DDA-4BF8-A62B-164790BC7EB2";
paths = (
{
closed = 1;
nodes = (
"162 370 CURVE SMOOTH",
"214 370 OFFCURVE",
"253 396 OFFCURVE",
"269 427 CURVE",
"272 381 LINE",
"342 381 LINE",
"339 414 OFFCURVE",
"338 427 OFFCURVE",
"338 446 CURVE SMOOTH",
"338 454 OFFCURVE",
"338 579 OFFCURVE",
"338 598 CURVE SMOOTH",
"338 688 OFFCURVE",
"276 722 OFFCURVE",
"202 722 CURVE SMOOTH",
"121 722 OFFCURVE",
"63 689 OFFCURVE",
"63 689 CURVE",
"83 637 LINE",
"83 637 OFFCURVE",
"139 663 OFFCURVE",
"197 663 CURVE SMOOTH",
"246 663 OFFCURVE",
"267 642 OFFCURVE",
"267 589 CURVE SMOOTH",
"267 574 LINE",
"182 574 LINE SMOOTH",
"90 574 OFFCURVE",
"44 535 OFFCURVE",
"44 472 CURVE SMOOTH",
"44 409 OFFCURVE",
"95 370 OFFCURVE"
);
},
{
closed = 1;
nodes = (
"170 422 CURVE SMOOTH",
"135 422 OFFCURVE",
"112 440 OFFCURVE",
"112 474 CURVE SMOOTH",
"112 531 OFFCURVE",
"159 530 OFFCURVE",
"267 530 CURVE",
"267 519 LINE SMOOTH",
"267 462 OFFCURVE",
"227 422 OFFCURVE"
);
}
);
width = 386;
},
{
layerId = "197E4CC0-43FA-49AB-8E7D-89E0185E23DB";
paths = (
{
closed = 1;
nodes = (
"174 343 CURVE SMOOTH",
"244 343 OFFCURVE",
"275 388 OFFCURVE",
"279 411 CURVE",
"289 362 LINE",
"387 362 LINE",
"387 359 OFFCURVE",
"385 367 OFFCURVE",
"383 442 CURVE SMOOTH",
"382 492 OFFCURVE",
"380 456 OFFCURVE",
"380 569 CURVE SMOOTH",
"380 688 OFFCURVE",
"307 722 OFFCURVE",
"225 722 CURVE SMOOTH",
"129 722 OFFCURVE",
"70 687 OFFCURVE",
"70 687 CURVE",
"103 608 LINE",
"103 608 OFFCURVE",
"165 634 OFFCURVE",
"211 634 CURVE SMOOTH",
"238 634 OFFCURVE",
"271 623 OFFCURVE",
"271 582 CURVE SMOOTH",
"271 558 LINE",
"182 558 LINE SMOOTH",
"98 558 OFFCURVE",
"57 519 OFFCURVE",
"57 450 CURVE SMOOTH",
"57 376 OFFCURVE",
"118 343 OFFCURVE"
);
},
{
closed = 1;
nodes = (
"180 412 CURVE SMOOTH",
"168 412 OFFCURVE",
"146 427 OFFCURVE",
"146 449 CURVE SMOOTH",
"146 494 OFFCURVE",
"167 500 OFFCURVE",
"269 500 CURVE",
"269 498 OFFCURVE",
"269 496 OFFCURVE",
"269 495 CURVE SMOOTH",
"269 426 OFFCURVE",
"203 412 OFFCURVE"
);
}
);
width = 445;
}
);
unicode = 00AA;
userData = {
com.typemytype.robofont.layerData = {
b = {
anchors = (
);
components = (
);
contours = (
);
lib = {
};
name = ordfeminine;
unicodes = (
);
width = 797.1000;
};
};
};
},
{
glyphname = ordmasculine;
lastChange = "2016-08-22 09:22:14 +0000";
layers = (
{
layerId = "CAA31E91-2985-420A-82BA-6B4D8404D924";
paths = (
{
closed = 1;
nodes = (
"316 394 OFFCURVE",
"375 470 OFFCURVE",
"375 563 CURVE SMOOTH",
"375 659 OFFCURVE",
"319 732 OFFCURVE",
"208 732 CURVE SMOOTH",
"100 732 OFFCURVE",
"40 658 OFFCURVE",
"40 564 CURVE SMOOTH",
"40 469 OFFCURVE",
"97 394 OFFCURVE",
"208 394 CURVE SMOOTH"
);
},
{
closed = 1;
nodes = (
"132 436 OFFCURVE",
"92 483 OFFCURVE",
"92 563 CURVE SMOOTH",
"92 640 OFFCURVE",
"134 688 OFFCURVE",
"207 688 CURVE SMOOTH",
"283 688 OFFCURVE",
"326 639 OFFCURVE",
"326 560 CURVE SMOOTH",
"326 484 OFFCURVE",
"283 436 OFFCURVE",
"210 436 CURVE SMOOTH"
);
}
);
width = 415;
},
{
associatedMasterId = "CAA31E91-2985-420A-82BA-6B4D8404D924";
layerId = "F59A6CE7-9D3D-4628-9C8B-B0CCA9EBF49B";
name = b;
width = 434;
},
{
layerId = "5F288B98-6DDA-4BF8-A62B-164790BC7EB2";
paths = (
{
closed = 1;
nodes = (
"218 430 CURVE SMOOTH",
"281 430 OFFCURVE",
"320 474 OFFCURVE",
"320 541 CURVE SMOOTH",
"320 611 OFFCURVE",
"281 654 OFFCURVE",
"217 654 CURVE SMOOTH",
"154 654 OFFCURVE",
"114 610 OFFCURVE",
"114 542 CURVE SMOOTH",
"114 472 OFFCURVE",
"151 430 OFFCURVE"
);
},
{
closed = 1;
nodes = (
"218 368 CURVE SMOOTH",
"99 368 OFFCURVE",
"38 445 OFFCURVE",
"38 544 CURVE SMOOTH",
"38 640 OFFCURVE",
"103 717 OFFCURVE",
"217 717 CURVE SMOOTH",
"332 717 OFFCURVE",
"395 640 OFFCURVE",
"395 542 CURVE SMOOTH",
"395 447 OFFCURVE",
"332 368 OFFCURVE"
);
}
);
width = 432;
},
{
layerId = "197E4CC0-43FA-49AB-8E7D-89E0185E23DB";
paths = (
{
closed = 1;
nodes = (
"226 424 CURVE SMOOTH",
"277 424 OFFCURVE",
"314 461 OFFCURVE",
"314 516 CURVE SMOOTH",
"314 576 OFFCURVE",
"278 611 OFFCURVE",
"229 611 CURVE SMOOTH",
"178 611 OFFCURVE",
"140 574 OFFCURVE",
"140 518 CURVE SMOOTH",
"140 459 OFFCURVE",
"173 424 OFFCURVE"
);
},
{
closed = 1;
nodes = (
"229 336 CURVE SMOOTH",
"101 336 OFFCURVE",
"35 414 OFFCURVE",
"35 518 CURVE SMOOTH",
"35 618 OFFCURVE",
"106 697 OFFCURVE",
"227 697 CURVE SMOOTH",
"349 697 OFFCURVE",
"419 615 OFFCURVE",
"419 516 CURVE SMOOTH",
"419 418 OFFCURVE",
"352 336 OFFCURVE"
);
}
);
width = 454;
}
);
unicode = 00BA;
userData = {
com.typemytype.robofont.layerData = {
b = {
anchors = (
);
components = (
);
contours = (
);
lib = {
};
name = ordmasculine;
unicodes = (
);
width = 887.8500;
};
};
};
},
{
glyphname = Delta;
lastChange = "2016-08-22 09:36:12 +0000";
layers = (
{
layerId = "CAA31E91-2985-420A-82BA-6B4D8404D924";
paths = (
{
closed = 1;
nodes = (
"614 0 LINE",
"614 23 LINE",
"325 708 LINE",
"310 708 LINE",
"20 23 LINE",
"20 0 LINE"
);
},
{
closed = 1;
nodes = (
"315 632 LINE",
"564 38 LINE",
"67 38 LINE"
);
}
);
width = 634;
},
{
layerId = "197E4CC0-43FA-49AB-8E7D-89E0185E23DB";
width = 293;
},
{
layerId = "5F288B98-6DDA-4BF8-A62B-164790BC7EB2";
width = 600;
}
);
unicode = 0394;
},
{
glyphname = Omega;
lastChange = "2016-08-22 09:22:14 +0000";
layers = (
{
layerId = "CAA31E91-2985-420A-82BA-6B4D8404D924";
paths = (
{
closed = 1;
nodes = (
"303 0 LINE",
"302 42 LINE",
"195 111 OFFCURVE",
"123 215 OFFCURVE",
"123 357 CURVE SMOOTH",
"123 532 OFFCURVE",
"236 650 OFFCURVE",
"401 650 CURVE SMOOTH",
"583 650 OFFCURVE",
"676 512 OFFCURVE",
"676 354 CURVE SMOOTH",
"676 211 OFFCURVE",
"599 111 OFFCURVE",
"495 42 CURVE",
"496 0 LINE",
"730 0 LINE",
"735 44 LINE",
"540 44 LINE",
"633 110 OFFCURVE",
"730 210 OFFCURVE",
"730 365 CURVE SMOOTH",
"730 552 OFFCURVE",
"605 695 OFFCURVE",
"405 695 CURVE SMOOTH",
"212 695 OFFCURVE",
"68 566 OFFCURVE",
"68 365 CURVE SMOOTH",
"68 214 OFFCURVE",
"147 111 OFFCURVE",
"256 44 CURVE",
"65 44 LINE",
"70 0 LINE"
);
}
);
width = 783;
},
{
layerId = "5F288B98-6DDA-4BF8-A62B-164790BC7EB2";
paths = (
{
closed = 1;
nodes = (
"48 0 LINE",
"38 75 LINE",
"199 75 LINE",
"111 143 OFFCURVE",
"52 253 OFFCURVE",
"52 384 CURVE SMOOTH",
"52 584 OFFCURVE",
"197 712 OFFCURVE",
"392 712 CURVE SMOOTH",
"594 712 OFFCURVE",
"721 569 OFFCURVE",
"721 381 CURVE SMOOTH",
"721 247 OFFCURVE",
"650 140 OFFCURVE",
"571 75 CURVE",
"583 75 OFFCURVE",
"710 75 OFFCURVE",
"721 75 CURVE",
"715 0 LINE",
"456 0 LINE",
"454 65 LINE",
"552 131 OFFCURVE",
"624 245 OFFCURVE",
"624 373 CURVE SMOOTH",
"624 513 OFFCURVE",
"545 635 OFFCURVE",
"390 635 CURVE SMOOTH",
"248 635 OFFCURVE",
"149 529 OFFCURVE",
"149 375 CURVE SMOOTH",
"149 247 OFFCURVE",
"217 130 OFFCURVE",
"317 65 CURVE",
"319 0 LINE"
);
}
);
width = 783;
},
{
layerId = "197E4CC0-43FA-49AB-8E7D-89E0185E23DB";
paths = (
{
closed = 1;
nodes = (
"32 0 LINE",
"-1 114 LINE",
"129 113 LINE",
"68 184 OFFCURVE",
"33 302 OFFCURVE",
"33 408 CURVE SMOOTH",
"33 606 OFFCURVE",
"179 732 OFFCURVE",
"375 732 CURVE SMOOTH",
"580 732 OFFCURVE",
"709 590 OFFCURVE",
"709 401 CURVE SMOOTH",
"709 293 OFFCURVE",
"670 177 OFFCURVE",
"608 113 CURVE",
"675 113 OFFCURVE",
"641 114 OFFCURVE",
"705 114 CURVE",
"690 0 LINE",
"409 0 LINE",
"405 93 LINE",
"495 156 OFFCURVE",
"562 287 OFFCURVE",
"562 397 CURVE SMOOTH",
"562 515 OFFCURVE",
"499 617 OFFCURVE",
"375 617 CURVE SMOOTH",
"262 617 OFFCURVE",
"182 525 OFFCURVE",
"182 397 CURVE SMOOTH",
"182 288 OFFCURVE",
"245 152 OFFCURVE",
"335 93 CURVE",
"337 0 LINE"
);
}
);
width = 783;
}
);
unicode = 03A9;
},
{
glyphname = mu;
lastChange = "2016-08-22 09:36:12 +0000";
layers = (
{
layerId = "CAA31E91-2985-420A-82BA-6B4D8404D924";
paths = (
{
closed = 1;
nodes = (
"145 41 LINE",
"176 5 OFFCURVE",
"223 -13 OFFCURVE",
"285 -13 CURVE SMOOTH",
"372 -13 OFFCURVE",
"435 27 OFFCURVE",
"477 93 CURVE",
"481 0 LINE",
"525 0 LINE",
"523 26 OFFCURVE",
"522 55 OFFCURVE",
"522 110 CURVE SMOOTH",
"522 501 LINE",
"475 501 LINE",
"475 173 LINE SMOOTH",
"475 127 OFFCURVE",
"410 27 OFFCURVE",
"285 27 CURVE SMOOTH",
"191 27 OFFCURVE",
"145 87 OFFCURVE",
"145 199 CURVE SMOOTH",
"145 501 LINE",
"97 501 LINE",
"97 -160 LINE",
"145 -162 LINE"
);
}
);
width = 627;
},
{
layerId = "197E4CC0-43FA-49AB-8E7D-89E0185E23DB";
width = 293;
},
{
layerId = "5F288B98-6DDA-4BF8-A62B-164790BC7EB2";
width = 600;
}
);
unicode = 03BC;
},
{
glyphname = pi;
lastChange = "2016-08-22 09:22:14 +0000";
layers = (
{
layerId = "CAA31E91-2985-420A-82BA-6B4D8404D924";
paths = (
{
closed = 1;
nodes = (
"527 -4 OFFCURVE",
"542 -2 OFFCURVE",
"556 0 CURVE",
"552 37 LINE",
"544 36 OFFCURVE",
"537 35 OFFCURVE",
"531 35 CURVE SMOOTH",
"480 35 OFFCURVE",
"469 68 OFFCURVE",
"469 122 CURVE SMOOTH",
"469 459 LINE",
"554 459 LINE",
"554 501 LINE",
"189 501 LINE SMOOTH",
"150 501 OFFCURVE",
"118 493 OFFCURVE",
"74 470 CURVE",
"82 431 LINE",
"129 457 OFFCURVE",
"161 459 OFFCURVE",
"188 459 CURVE",
"176 234 OFFCURVE",
"185 126 OFFCURVE",
"88 0 CURVE",
"148 0 LINE",
"224 106 OFFCURVE",
"226 228 OFFCURVE",
"236 459 CURVE",
"421 459 LINE",
"421 122 LINE SMOOTH",
"421 18 OFFCURVE",
"463 -4 OFFCURVE",
"513 -4 CURVE SMOOTH"
);
}
);
width = 629;
},
{
associatedMasterId = "CAA31E91-2985-420A-82BA-6B4D8404D924";
layerId = "AA5EEDA6-8DE8-4219-9318-589C583EEA5B";
name = b;
width = 629;
},
{
layerId = "5F288B98-6DDA-4BF8-A62B-164790BC7EB2";
paths = (
{
closed = 1;
nodes = (
"518 -5 CURVE SMOOTH",
"443 -5 OFFCURVE",
"411 34 OFFCURVE",
"411 133 CURVE SMOOTH",
"411 431 LINE",
"256 431 LINE",
"256 431 OFFCURVE",
"232 63 OFFCURVE",
"183 0 CURVE",
"92 0 LINE",
"144 75 OFFCURVE",
"163 272 OFFCURVE",
"173 431 CURVE",
"115 429 OFFCURVE",
"69 419 OFFCURVE",
"39 402 CURVE",
"30 470 LINE",
"58 493 OFFCURVE",
"107 501 OFFCURVE",
"188 501 CURVE SMOOTH",
"593 501 LINE",
"593 431 LINE",
"495 431 LINE",
"495 135 LINE SMOOTH",
"495 106 OFFCURVE",
"495 66 OFFCURVE",
"542 66 CURVE SMOOTH",
"552 66 OFFCURVE",
"565 68 OFFCURVE",
"580 73 CURVE",
"580 63 OFFCURVE",
"579 49 OFFCURVE",
"579 40 CURVE SMOOTH",
"579 25 OFFCURVE",
"580 17 OFFCURVE",
"585 2 CURVE",
"560 -3 OFFCURVE",
"537 -5 OFFCURVE"
);
}
);
width = 629;
},
{
layerId = "197E4CC0-43FA-49AB-8E7D-89E0185E23DB";
paths = (
{
closed = 1;
nodes = (
"508 -12 CURVE SMOOTH",
"431 -12 OFFCURVE",
"364 28 OFFCURVE",
"364 129 CURVE SMOOTH",
"364 403 LINE",
"244 403 LINE",
"244 403 OFFCURVE",
"250 100 OFFCURVE",
"208 0 CURVE",
"70 0 LINE",
"116 97 OFFCURVE",
"119 276 OFFCURVE",
"120 403 CURVE",
"60 401 OFFCURVE",
"26 384 OFFCURVE",
"22 373 CURVE",
"14 470 LINE",
"23 479 OFFCURVE",
"68 501 OFFCURVE",
"123 501 CURVE SMOOTH",
"593 501 LINE",
"593 403 LINE",
"491 403 LINE",
"491 172 LINE SMOOTH",
"491 143 OFFCURVE",
"492 99 OFFCURVE",
"540 99 CURVE SMOOTH",
"550 99 OFFCURVE",
"564 101 OFFCURVE",
"580 105 CURVE",
"580 95 OFFCURVE",
"579 60 OFFCURVE",
"579 50 CURVE SMOOTH",
"579 35 OFFCURVE",
"580 11 OFFCURVE",
"585 -5 CURVE",
"559 -9 OFFCURVE",
"527 -12 OFFCURVE"
);
}
);
width = 629;
}
);
unicode = 03C0;
userData = {
com.typemytype.robofont.layerData = {
b = {
anchors = (
);
components = (
);
contours = (
);
lib = {
};
name = pi;
unicodes = (
);
width = 1288;
};
};
};
},
{
glyphname = zero;
lastChange = "2016-08-22 09:22:14 +0000";
layers = (
{
layerId = "CAA31E91-2985-420A-82BA-6B4D8404D924";
paths = (
{
closed = 1;
nodes = (
"438 -11 OFFCURVE",
"514 115 OFFCURVE",
"514 353 CURVE SMOOTH",
"514 596 OFFCURVE",
"438 724 OFFCURVE",
"292 724 CURVE SMOOTH",
"141 724 OFFCURVE",
"61 596 OFFCURVE",
"61 353 CURVE SMOOTH",
"61 115 OFFCURVE",
"141 -11 OFFCURVE",
"292 -11 CURVE SMOOTH"
);
},
{
closed = 1;
nodes = (
"176 31 OFFCURVE",
"114 142 OFFCURVE",
"114 353 CURVE SMOOTH",
"114 568 OFFCURVE",
"176 682 OFFCURVE",
"292 682 CURVE SMOOTH",
"402 682 OFFCURVE",
"460 568 OFFCURVE",
"460 353 CURVE SMOOTH",
"460 142 OFFCURVE",
"402 31 OFFCURVE",
"292 31 CURVE SMOOTH"
);
}
);
width = 575;
},
{
layerId = "5F288B98-6DDA-4BF8-A62B-164790BC7EB2";
paths = (
{
closed = 1;
nodes = (
"304 69 CURVE SMOOTH",
"409 69 OFFCURVE",
"442 193 OFFCURVE",
"442 357 CURVE SMOOTH",
"442 519 OFFCURVE",
"409 643 OFFCURVE",
"304 643 CURVE SMOOTH",
"196 643 OFFCURVE",
"157 519 OFFCURVE",
"157 358 CURVE SMOOTH",
"157 193 OFFCURVE",
"196 69 OFFCURVE"
);
},
{
closed = 1;
nodes = (
"302 -11 CURVE SMOOTH",
"142 -11 OFFCURVE",
"61 141 OFFCURVE",
"61 358 CURVE SMOOTH",
"61 585 OFFCURVE",
"141 724 OFFCURVE",
"303 724 CURVE SMOOTH",
"465 724 OFFCURVE",
"540 583 OFFCURVE",
"540 357 CURVE SMOOTH",
"540 141 OFFCURVE",
"465 -11 OFFCURVE"
);
}
);
width = 601;
},
{
layerId = "197E4CC0-43FA-49AB-8E7D-89E0185E23DB";
paths = (
{
closed = 1;
nodes = (
"318 109 CURVE SMOOTH",
"401 109 OFFCURVE",
"430 215 OFFCURVE",
"430 363 CURVE SMOOTH",
"430 477 OFFCURVE",
"403 604 OFFCURVE",
"318 604 CURVE SMOOTH",
"229 604 OFFCURVE",
"204 478 OFFCURVE",
"204 363 CURVE SMOOTH",
"204 215 OFFCURVE",
"229 109 OFFCURVE"
);
},
{
closed = 1;
nodes = (
"315 -11 CURVE SMOOTH",
"154 -11 OFFCURVE",
"61 137 OFFCURVE",
"61 364 CURVE SMOOTH",
"61 591 OFFCURVE",
"152 724 OFFCURVE",
"316 724 CURVE SMOOTH",
"479 724 OFFCURVE",
"571 580 OFFCURVE",
"571 364 CURVE SMOOTH",
"571 139 OFFCURVE",
"480 -11 OFFCURVE"
);
}
);
width = 633;
}
);
unicode = 0030;
},
{
glyphname = one;
lastChange = "2016-08-22 09:22:14 +0000";
layers = (
{
layerId = "CAA31E91-2985-420A-82BA-6B4D8404D924";
paths = (
{
closed = 1;
nodes = (
"458 0 LINE",
"458 42 LINE",
"327 42 LINE",
"327 711 LINE",
"303 711 LINE",
"259 682 OFFCURVE",
"173 639 OFFCURVE",
"125 621 CURVE",
"125 574 LINE",
"170 595 OFFCURVE",
"223 613 OFFCURVE",
"274 645 CURVE",
"274 42 LINE",
"131 42 LINE",
"131 0 LINE"
);
}
);
width = 575;
},
{
associatedMasterId = "CAA31E91-2985-420A-82BA-6B4D8404D924";
layerId = "DD54B973-D713-4003-BFD4-78808109F0C4";
name = b;
width = 603;
},
{
layerId = "5F288B98-6DDA-4BF8-A62B-164790BC7EB2";
paths = (
{
closed = 1;
nodes = (
"138 0 LINE",
"138 77 LINE",
"272 77 LINE",
"272 610 LINE",
"231 587 OFFCURVE",
"178 567 OFFCURVE",
"127 548 CURVE",
"127 632 LINE",
"177 650 OFFCURVE",
"249 685 OFFCURVE",
"293 711 CURVE",
"365 711 LINE",
"365 77 LINE",
"494 77 LINE",
"494 0 LINE"
);
}
);
width = 601;
},
{
layerId = "197E4CC0-43FA-49AB-8E7D-89E0185E23DB";
paths = (
{
closed = 1;
nodes = (
"146 0 LINE",
"146 109 LINE",
"270 109 LINE",
"270 571 LINE",
"241 559 OFFCURVE",
"187 536 OFFCURVE",
"129 519 CURVE",
"129 646 LINE",
"182 664 OFFCURVE",
"235 688 OFFCURVE",
"279 711 CURVE",
"410 711 LINE",
"410 107 LINE",
"537 107 LINE",
"537 0 LINE"
);
}
);
width = 633;
}
);
unicode = 0031;
userData = {
com.typemytype.robofont.layerData = {
b = {
anchors = (
);
components = (
);
contours = (
);
lib = {
};
name = one;
unicodes = (
);
width = 1234.1000;
};
};
};
},
{
glyphname = two;
lastChange = "2016-08-22 09:22:14 +0000";
layers = (
{
layerId = "CAA31E91-2985-420A-82BA-6B4D8404D924";
paths = (
{
closed = 1;
nodes = (
"501 0 LINE",
"501 42 LINE",
"160 42 LINE",
"377 288 LINE SMOOTH",
"455 376 OFFCURVE",
"504 438 OFFCURVE",
"504 529 CURVE SMOOTH",
"504 623 OFFCURVE",
"451 724 OFFCURVE",
"286 724 CURVE SMOOTH",
"220 724 OFFCURVE",
"150 706 OFFCURVE",
"90 670 CURVE",
"109 632 LINE",
"164 663 OFFCURVE",
"228 681 OFFCURVE",
"286 681 CURVE SMOOTH",
"415 681 OFFCURVE",
"455 607 OFFCURVE",
"455 521 CURVE SMOOTH",
"455 449 OFFCURVE",
"423 405 OFFCURVE",
"346 317 CURVE SMOOTH",
"106 44 LINE",
"106 0 LINE"
);
}
);
width = 592;
},
{
associatedMasterId = "CAA31E91-2985-420A-82BA-6B4D8404D924";
layerId = "C27A0613-BDEA-4F32-A827-E626BD0711DF";
name = b;
width = 608;
},
{
layerId = "5F288B98-6DDA-4BF8-A62B-164790BC7EB2";
paths = (
{
closed = 1;
nodes = (
"293 723 CURVE SMOOTH",
"416 723 OFFCURVE",
"504 640 OFFCURVE",
"507 514 CURVE SMOOTH",
"510 411 OFFCURVE",
"465 331 OFFCURVE",
"372 237 CURVE SMOOTH",
"223 86 LINE",
"504 86 LINE",
"504 0 LINE",
"99 0 LINE",
"99 81 LINE",
"305 299 LINE SMOOTH",
"383 382 OFFCURVE",
"410 444 OFFCURVE",
"406 513 CURVE",
"402 588 OFFCURVE",
"357 635 OFFCURVE",
"285 635 CURVE SMOOTH",
"189 635 OFFCURVE",
"109 573 OFFCURVE",
"108 573 CURVE SMOOTH",
"75 654 LINE",
"75 654 OFFCURVE",
"160 723 OFFCURVE"
);
}
);
width = 607;
},
{
layerId = "197E4CC0-43FA-49AB-8E7D-89E0185E23DB";
paths = (
{
closed = 1;
nodes = (
"293 723 CURVE SMOOTH",
"415 723 OFFCURVE",
"510 652 OFFCURVE",
"520 518 CURVE SMOOTH",
"529 396 OFFCURVE",
"473 322 OFFCURVE",
"400 246 CURVE SMOOTH",
"258 114 LINE",
"506 114 LINE",
"506 0 LINE",
"95 0 LINE",
"95 104 LINE",
"302 313 LINE SMOOTH",
"376 394 OFFCURVE",
"407 435 OFFCURVE",
"396 521 CURVE SMOOTH",
"386 596 OFFCURVE",
"336 604 OFFCURVE",
"279 604 CURVE SMOOTH",
"191 604 OFFCURVE",
"101 541 OFFCURVE",
"100 541 CURVE",
"66 653 LINE",
"66 653 OFFCURVE",
"158 723 OFFCURVE"
);
}
);
width = 617;
}
);
unicode = 0032;
userData = {
com.typemytype.robofont.layerData = {
b = {
anchors = (
);
components = (
);
contours = (
);
lib = {
};
name = two;
unicodes = (
);
width = 1244.5;
};
};
};
},
{
glyphname = three;
lastChange = "2016-08-22 09:22:14 +0000";
layers = (
{
layerId = "CAA31E91-2985-420A-82BA-6B4D8404D924";
paths = (
{
closed = 1;
nodes = (
"410 -11 OFFCURVE",
"504 68 OFFCURVE",
"504 191 CURVE SMOOTH",
"504 282 OFFCURVE",
"443 362 OFFCURVE",
"347 377 CURVE",
"436 395 OFFCURVE",
"484 474 OFFCURVE",
"484 546 CURVE SMOOTH",
"484 654 OFFCURVE",
"401 724 OFFCURVE",
"271 724 CURVE SMOOTH",
"178 724 OFFCURVE",
"93 687 OFFCURVE",
"55 626 CURVE",
"83 598 LINE",
"125 656 OFFCURVE",
"201 682 OFFCURVE",
"271 682 CURVE SMOOTH",
"372 682 OFFCURVE",
"437 629 OFFCURVE",
"437 546 CURVE SMOOTH",
"437 458 OFFCURVE",
"384 400 OFFCURVE",
"273 400 CURVE SMOOTH",
"220 400 LINE",
"221 354 LINE",
"273 354 LINE SMOOTH",
"393 351 OFFCURVE",
"450 288 OFFCURVE",
"450 191 CURVE SMOOTH",
"450 94 OFFCURVE",
"376 31 OFFCURVE",
"263 31 CURVE SMOOTH",
"222 31 OFFCURVE",
"160 39 OFFCURVE",
"105 67 CURVE",
"95 27 LINE",
"135 4 OFFCURVE",
"201 -11 OFFCURVE",
"263 -11 CURVE SMOOTH"
);
}
);
width = 575;
},
{
associatedMasterId = "CAA31E91-2985-420A-82BA-6B4D8404D924";
layerId = "FC2427A8-5319-4316-A80D-AB37454B86EC";
name = b;
paths = (
{
closed = 1;
nodes = (
"168 493 CURVE SMOOTH",
"168 404 OFFCURVE",
"207 335 OFFCURVE",
"310 335 CURVE SMOOTH",
"397 335 OFFCURVE",
"458 392 OFFCURVE",
"458 484 CURVE SMOOTH",
"458 569 OFFCURVE",
"413 651 OFFCURVE",
"310 651 CURVE SMOOTH",
"219 651 OFFCURVE",
"168 584 OFFCURVE"
);
},
{
closed = 1;
nodes = (
"290 -12 CURVE SMOOTH",
"231 -12 OFFCURVE",
"179 0 OFFCURVE",
"116 32 CURVE",
"140 96 LINE",
"196 67 OFFCURVE",
"239 61 OFFCURVE",
"284 61 CURVE SMOOTH",
"396 61 OFFCURVE",
"464 150 OFFCURVE",
"464 321 CURVE SMOOTH",
"464 353 LINE",
"433 293 OFFCURVE",
"377 266 OFFCURVE",
"296 266 CURVE SMOOTH",
"160 266 OFFCURVE",
"82 359 OFFCURVE",
"82 490 CURVE SMOOTH",
"82 623 OFFCURVE",
"167 724 OFFCURVE",
"314 724 CURVE SMOOTH",
"473 724 OFFCURVE",
"549 601 OFFCURVE",
"549 378 CURVE SMOOTH",
"549 99 OFFCURVE",
"437 -12 OFFCURVE"
);
}
);
width = 603;
},
{
layerId = "5F288B98-6DDA-4BF8-A62B-164790BC7EB2";
paths = (
{
closed = 1;
nodes = (
"283 -11 CURVE SMOOTH",
"173 -11 OFFCURVE",
"94 35 OFFCURVE",
"87 39 CURVE",
"113 113 LINE",
"135 101 OFFCURVE",
"201 69 OFFCURVE",
"278 69 CURVE SMOOTH",
"368 69 OFFCURVE",
"432 118 OFFCURVE",
"432 200 CURVE SMOOTH",
"432 295 OFFCURVE",
"358 335 OFFCURVE",
"240 334 CURVE SMOOTH",
"205 334 LINE",
"204 412 LINE",
"235 412 LINE SMOOTH",
"348 412 OFFCURVE",
"415 441 OFFCURVE",
"415 540 CURVE SMOOTH",
"415 611 OFFCURVE",
"346 645 OFFCURVE",
"274 645 CURVE SMOOTH",
"193 645 OFFCURVE",
"141 611 OFFCURVE",
"108 581 CURVE",
"65 642 LINE",
"118 698 OFFCURVE",
"188 724 OFFCURVE",
"285 724 CURVE SMOOTH",
"396 724 OFFCURVE",
"507 661 OFFCURVE",
"507 542 CURVE SMOOTH",
"507 458 OFFCURVE",
"462 395 OFFCURVE",
"378 374 CURVE",
"471 355 OFFCURVE",
"524 290 OFFCURVE",
"524 197 CURVE SMOOTH",
"524 67 OFFCURVE",
"417 -11 OFFCURVE"
);
}
);
width = 601;
},
{
layerId = "197E4CC0-43FA-49AB-8E7D-89E0185E23DB";
paths = (
{
closed = 1;
nodes = (
"315 -11 CURVE SMOOTH",
"145 -11 OFFCURVE",
"72 58 OFFCURVE",
"78 54 CURVE",
"123 158 LINE",
"104 168 OFFCURVE",
"191 109 OFFCURVE",
"286 109 CURVE SMOOTH",
"374 109 OFFCURVE",
"412 150 OFFCURVE",
"412 211 CURVE SMOOTH",
"412 283 OFFCURVE",
"331 314 OFFCURVE",
"215 309 CURVE SMOOTH",
"186 307 LINE",
"185 427 LINE",
"222 427 LINE SMOOTH",
"354 427 OFFCURVE",
"389 454 OFFCURVE",
"389 534 CURVE SMOOTH",
"389 582 OFFCURVE",
"330 603 OFFCURVE",
"280 603 CURVE SMOOTH",
"198 603 OFFCURVE",
"157 562 OFFCURVE",
"139 559 CURVE",
"77 663 LINE",
"156 704 OFFCURVE",
"184 724 OFFCURVE",
"299 724 CURVE SMOOTH",
"419 724 OFFCURVE",
"533 666 OFFCURVE",
"533 536 CURVE SMOOTH",
"533 472 OFFCURVE",
"498 383 OFFCURVE",
"398 374 CURVE",
"495 357 OFFCURVE",
"549 282 OFFCURVE",
"549 204 CURVE SMOOTH",
"549 67 OFFCURVE",
"436 -11 OFFCURVE"
);
}
);
width = 633;
}
);
unicode = 0033;
userData = {
com.typemytype.robofont.layerData = {
b = {
anchors = (
);
components = (
);
contours = (
{
points = (
{
segmentType = curve;
smooth = 1;
x = 344;
y = 1010;
},
{
smooth = 0;
x = 344;
y = 827;
},
{
smooth = 0;
x = 423;
y = 687;
},
{
segmentType = curve;
smooth = 1;
x = 634;
y = 687;
},
{
smooth = 0;
x = 814;
y = 687;
},
{
smooth = 0;
x = 938;
y = 803;
},
{
segmentType = curve;
smooth = 1;
x = 938;
y = 991;
},
{
smooth = 0;
x = 938;
y = 1166;
},
{
smooth = 0;
x = 845;
y = 1334;
},
{
segmentType = curve;
smooth = 1;
x = 635;
y = 1334;
},
{
smooth = 0;
x = 449;
y = 1334;
},
{
smooth = 0;
x = 344;
y = 1196;
}
);
},
{
points = (
{
segmentType = curve;
smooth = 1;
x = 594;
y = -24;
},
{
smooth = 0;
x = 473;
y = -24;
},
{
smooth = 0;
x = 367;
y = -1;
},
{
segmentType = curve;
smooth = 0;
x = 238;
y = 65;
},
{
segmentType = line;
smooth = 0;
x = 287;
y = 197;
},
{
smooth = 0;
x = 401;
y = 138;
},
{
smooth = 0;
x = 489;
y = 124;
},
{
segmentType = curve;
smooth = 1;
x = 581;
y = 124;
},
{
smooth = 0;
x = 812;
y = 124;
},
{
smooth = 0;
x = 950;
y = 308;
},
{
segmentType = curve;
smooth = 1;
x = 950;
y = 657;
},
{
segmentType = line;
smooth = 0;
x = 950;
y = 722;
},
{
smooth = 0;
x = 886;
y = 600;
},
{
smooth = 0;
x = 772;
y = 544;
},
{
segmentType = curve;
smooth = 1;
x = 607;
y = 544;
},
{
smooth = 0;
x = 328;
y = 544;
},
{
smooth = 0;
x = 168;
y = 735;
},
{
segmentType = curve;
smooth = 1;
x = 168;
y = 1004;
},
{
smooth = 0;
x = 168;
y = 1275;
},
{
smooth = 0;
x = 341;
y = 1483;
},
{
segmentType = curve;
smooth = 1;
x = 643;
y = 1483;
},
{
smooth = 0;
x = 969;
y = 1483;
},
{
smooth = 0;
x = 1125;
y = 1231;
},
{
segmentType = curve;
smooth = 1;
x = 1125;
y = 774;
},
{
smooth = 0;
x = 1125;
y = 203;
},
{
smooth = 0;
x = 894;
y = -24;
}
);
}
);
lib = {
};
name = three;
unicodes = (
);
width = 1234.1000;
};
};
};
},
{
glyphname = four;
lastChange = "2016-08-22 09:22:14 +0000";
layers = (
{
layerId = "CAA31E91-2985-420A-82BA-6B4D8404D924";
paths = (
{
closed = 1;
nodes = (
"428 0 LINE",
"428 191 LINE",
"529 191 LINE",
"529 237 LINE",
"430 237 LINE",
"430 711 LINE",
"342 711 LINE",
"49 232 LINE",
"49 191 LINE",
"375 191 LINE",
"375 0 LINE"
);
},
{
closed = 1;
nodes = (
"297 550 LINE",
"374 677 LINE",
"374 237 LINE",
"108 237 LINE"
);
}
);
width = 575;
},
{
associatedMasterId = "CAA31E91-2985-420A-82BA-6B4D8404D924";
layerId = "6004F472-869E-41C7-86C8-5FAAD3021A33";
name = b;
width = 603;
},
{
layerId = "5F288B98-6DDA-4BF8-A62B-164790BC7EB2";
paths = (
{
closed = 1;
nodes = (
"363 0 LINE",
"363 188 LINE",
"51 188 LINE",
"51 264 LINE",
"336 711 LINE",
"457 711 LINE",
"457 262 LINE",
"563 262 LINE",
"563 188 LINE",
"457 188 LINE",
"457 0 LINE"
);
},
{
closed = 1;
nodes = (
"150 262 LINE",
"363 262 LINE",
"363 609 LINE",
"313 528 LINE"
);
}
);
width = 601;
},
{
layerId = "197E4CC0-43FA-49AB-8E7D-89E0185E23DB";
paths = (
{
closed = 1;
nodes = (
"351 0 LINE",
"351 185 LINE",
"53 185 LINE",
"53 281 LINE",
"340 711 LINE",
"489 711 LINE",
"489 293 LINE",
"604 293 LINE",
"604 185 LINE",
"492 185 LINE",
"492 0 LINE"
);
},
{
closed = 1;
nodes = (
"210 293 LINE",
"354 293 LINE",
"354 529 LINE",
"335 498 LINE"
);
}
);
width = 633;
}
);
unicode = 0034;
userData = {
com.typemytype.robofont.layerData = {
b = {
anchors = (
);
components = (
);
contours = (
);
lib = {
};
name = four;
unicodes = (
);
width = 1234.1000;
};
};
};
},
{
glyphname = five;
lastChange = "2016-08-22 09:22:14 +0000";
layers = (
{
layerId = "CAA31E91-2985-420A-82BA-6B4D8404D924";
paths = (
{
closed = 1;
nodes = (
"400 -11 OFFCURVE",
"516 66 OFFCURVE",
"516 218 CURVE SMOOTH",
"516 351 OFFCURVE",
"426 436 OFFCURVE",
"287 436 CURVE SMOOTH",
"229 436 OFFCURVE",
"171 413 OFFCURVE",
"140 376 CURVE",
"154 667 LINE",
"464 667 LINE",
"464 711 LINE",
"106 711 LINE",
"97 329 LINE",
"137 320 LINE",
"165 365 OFFCURVE",
"223 394 OFFCURVE",
"287 394 CURVE SMOOTH",
"393 394 OFFCURVE",
"462 326 OFFCURVE",
"462 219 CURVE SMOOTH",
"462 90 OFFCURVE",
"378 29 OFFCURVE",
"277 29 CURVE SMOOTH",
"217 29 OFFCURVE",
"151 51 OFFCURVE",
"92 91 CURVE",
"74 53 LINE",
"133 10 OFFCURVE",
"205 -11 OFFCURVE",
"272 -11 CURVE SMOOTH"
);
}
);
width = 575;
},
{
layerId = "5F288B98-6DDA-4BF8-A62B-164790BC7EB2";
paths = (
{
closed = 1;
nodes = (
"297 -11 CURVE SMOOTH",
"219 -11 OFFCURVE",
"139 12 OFFCURVE",
"81 71 CURVE",
"126 141 LINE",
"174 87 OFFCURVE",
"238 69 OFFCURVE",
"296 69 CURVE SMOOTH",
"395 69 OFFCURVE",
"444 135 OFFCURVE",
"444 227 CURVE SMOOTH",
"444 307 OFFCURVE",
"400 373 OFFCURVE",
"314 373 CURVE SMOOTH",
"271 373 OFFCURVE",
"222 355 OFFCURVE",
"202 325 CURVE",
"115 329 LINE",
"115 711 LINE",
"498 711 LINE",
"498 631 LINE",
"202 631 LINE",
"195 407 LINE",
"225 440 OFFCURVE",
"276 455 OFFCURVE",
"322 455 CURVE SMOOTH",
"455 455 OFFCURVE",
"541 357 OFFCURVE",
"541 225 CURVE SMOOTH",
"541 85 OFFCURVE",
"448 -11 OFFCURVE"
);
}
);
width = 601;
},
{
layerId = "197E4CC0-43FA-49AB-8E7D-89E0185E23DB";
paths = (
{
closed = 1;
nodes = (
"308 -11 CURVE SMOOTH",
"227 -11 OFFCURVE",
"141 26 OFFCURVE",
"77 94 CURVE",
"154 200 LINE",
"200 141 OFFCURVE",
"256 109 OFFCURVE",
"304 109 CURVE SMOOTH",
"354 109 OFFCURVE",
"426 142 OFFCURVE",
"426 236 CURVE SMOOTH",
"426 294 OFFCURVE",
"396 352 OFFCURVE",
"351 352 CURVE SMOOTH",
"323 352 OFFCURVE",
"302 351 OFFCURVE",
"286 330 CURVE",
"143 354 LINE",
"143 711 LINE",
"543 711 LINE",
"543 591 LINE",
"265 591 LINE",
"259 433 LINE",
"285 472 OFFCURVE",
"333 479 OFFCURVE",
"385 479 CURVE SMOOTH",
"476 479 OFFCURVE",
"571 374 OFFCURVE",
"571 234 CURVE SMOOTH",
"571 60 OFFCURVE",
"421 -11 OFFCURVE"
);
}
);
width = 633;
}
);
unicode = 0035;
},
